#N canvas 620 445 450 300 10;
#X floatatom 18 78 5 0 0 0 - - -, f 5;
#X obj 18 119 sel 0 1 2 3 4 5;
#X text 13 10 ADDRESS : 192.168.11.5 PORT : 4001;
#X obj 18 48 rcv_data 4001 test;
#X msg 208 84 0;
#X obj 156 119 send_data 192.168.11.5 3000 sound;
#X msg 240 84 100;
#X connect 0 0 1 0;
#X connect 3 0 0 0;
#X connect 4 0 5 0;
#X connect 6 0 5 0;
