#N canvas 557 283 673 257 10;
#X floatatom 18 78 5 0 0 0 - - -, f 5;
#X obj 18 119 sel 0 1 2 3 4 5;
#X text 13 10 ADDRESS : 192.168.11.5 PORT : 4001;
#X msg 18 147 0;
#X obj 248 41 tgl 15 0 empty empty empty 17 7 0 10 -262144 -1 -1 0
1;
#X obj 397 77 bng 15 250 50 0 empty empty empty 17 7 0 10 -262144 -1
-1;
#X obj 396 54 sel 0;
#X msg 156 87 100;
#X obj 389 33 metro 10000;
#X obj 156 108 t f;
#X floatatom 214 138 5 0 0 0 - - -, f 5;
#X obj 18 49 rcv_data 4559 sync;
#X obj 214 160 send_data 192.168.11.255 4559 sync;
#X obj 241 63 metro 125;
#X connect 0 0 1 0;
#X connect 4 0 6 0;
#X connect 4 0 13 0;
#X connect 5 0 12 1;
#X connect 6 0 5 0;
#X connect 7 0 9 0;
#X connect 8 0 5 0;
#X connect 9 0 12 0;
#X connect 10 0 12 0;
#X connect 11 0 0 0;
#X connect 13 0 10 0;
