#N canvas 0 0 765 681 10;
#N canvas 410 79 762 555 set_octave 0;
#X obj 106 156 hradio 10 1 1 7 empty empty empty 0 -8 0 10 -262144
-1 -1 4;
#X floatatom 106 117 5 0 0 2 Octave - -, f 5;
#X obj 107 63 loadbang;
#X floatatom 66 86 5 0 0 0 - - -, f 5;
#X obj 66 63 +;
#X msg 35 40 -1;
#X msg 66 40 1;
#X floatatom 35 -31 5 0 0 0 - - -, f 5;
#X obj 35 -51 key;
#X obj 35 13 onebang;
#X obj 95 13 onebang;
#X floatatom 123 -32 5 0 0 0 - - -, f 5;
#X obj 123 -13 sel 0;
#X obj 123 -51 keyname;
#X obj 17 86 inlet;
#X obj 277 122 vsl 30 128 20 1 0 1 empty empty empty 0 -9 0 10 -220534
-1 -1 5900 1;
#X obj 190 122 vsl 30 128 0 10000 0 1 empty empty empty 0 -9 0 10 -259449
-1 -1 902 1;
#X obj 318 122 vsl 30 128 10 2000 0 1 empty empty empty 0 -9 0 10 -52096
-1 -1 4678 1;
#X floatatom 190 256 6 0 0 2 - - -, f 6;
#X floatatom 236 256 6 0 0 2 - - -, f 6;
#X floatatom 277 256 6 0 0 2 - - -, f 6;
#X floatatom 318 256 7 0 0 2 - - -, f 7;
#X obj 236 122 vsl 30 128 0 10000 0 1 empty empty empty 0 -9 0 10 -220534
-1 -1 1645 1;
#X obj 254 -51 loadbang;
#X floatatom 283 386 6 0 0 2 - - -, f 6;
#X obj 35 -13 sel 49 50;
#X obj 121 43 r Oct_A;
#X obj 49 139 s Oct_A;
#X obj 137 408 s para1_A;
#X obj 201 408 s para2_A;
#X obj 265 408 s para3_A;
#X obj 329 408 s Release_A;
#X obj 577 343 hip~ 5;
#X obj 577 322 lop~ 2000;
#X obj 577 365 *~ 0.2;
#X obj 577 57 catch~ out_A;
#X obj 657 57 keyname;
#X floatatom 723 98 5 0 0 0 - - -, f 5;
#X obj 657 87 sel 1;
#X obj 592 145 osc~;
#X msg 611 113 2;
#X obj 465 -27 inlet;
#X text 463 -42 volume;
#X text 359 101 volume;
#X text 102 139 '1' or '2'key;
#N canvas 0 23 932 441 keyinput 0;
#X obj 100 100 cnv 15 80 40 empty empty key_input 4 14 0 10 -18012
-262144 0;
#X floatatom 108 59 5 0 0 0 - - -, f 5;
#X obj 69 295 onebang;
#X obj 119 295 onebang;
#X obj 169 295 onebang;
#X obj 219 295 onebang;
#X obj 269 295 onebang;
#X obj 319 295 onebang;
#X obj 369 295 onebang;
#X obj 419 295 onebang;
#X obj 469 295 onebang;
#X obj 519 295 onebang;
#X obj 108 20 keyup;
#X obj 108 80 sel 122 120 99 118 98 110 109 44 46 47;
#X obj 159 189 sel 122 120 99 118 98 110 109 44 46 47;
#X obj 148 20 key;
#X obj 590 189 sel 115 100 103 104 106 108 59;
#X obj 571 295 onebang;
#X obj 621 295 onebang;
#X obj 671 295 onebang;
#X obj 721 295 onebang;
#X obj 771 295 onebang;
#X obj 821 295 onebang;
#X obj 871 295 onebang;
#X obj 610 80 sel 115 100 103 104 106 108 59;
#X obj 47 190 loadbang;
#X obj 517 190 loadbang;
#X msg 146 341 24;
#X msg 176 341 26;
#X msg 205 341 28;
#X msg 236 341 29;
#X msg 266 341 31;
#X msg 295 341 33;
#X msg 326 341 35;
#X msg 355 341 36;
#X msg 385 341 38;
#X msg 415 341 40;
#X msg 577 341 25;
#X msg 607 341 27;
#X msg 636 341 30;
#X msg 667 341 32;
#X msg 697 341 34;
#X msg 726 341 37;
#X msg 757 341 39;
#X obj 12 6 inlet;
#X obj 108 39 *;
#X obj 148 39 *;
#X floatatom 148 59 5 0 0 0 - - -, f 5;
#N canvas 70 354 450 300 snd_A 0;
#X obj 77 80 mtof;
#X floatatom 77 103 5 0 0 0 - - -, f 5;
#X floatatom 101 162 5 0 0 0 - - -, f 5;
#X obj 101 229 *~;
#X obj 77 259 +~;
#X obj 101 139 * 2;
#X obj 258 306 line~;
#X obj 77 327 *~;
#X obj 136 205 line~;
#X obj 258 154 bng 15 250 50 0 empty empty empty 17 7 0 10 -262144
-1 -1;
#X obj 77 23 inlet;
#X obj 77 55 +;
#X obj 115 44 * 12;
#X obj 77 299 osc~;
#X obj 101 204 osc~;
#X obj 226 125 pack f f f f;
#X msg 155 183 \$2 \, \$3 \$4;
#X msg 308 273 0 743;
#X obj 418 116 prepend set;
#X obj 418 95 pack 0 f;
#X obj 418 71 bng 15 250 50 0 empty empty empty 17 7 0 10 -262144 -1
-1;
#X obj 328 84 /;
#X floatatom 328 106 5 0 0 0 - - -, f 5;
#X obj 317 62 bng 15 250 50 0 empty empty empty 17 7 0 10 -262144 -1
-1;
#X obj 115 23 r Oct_A;
#X obj 207 35 r para1_A;
#X obj 277 35 r para2_A;
#X obj 347 35 r para3_A;
#X obj 463 36 r Release_A;
#X obj 77 362 throw~ out_A;
#X obj 283 249 del 5;
#X msg 259 273 0.25 1;
#X connect 0 0 1 0;
#X connect 0 0 9 0;
#X connect 1 0 4 0;
#X connect 1 0 5 0;
#X connect 2 0 14 0;
#X connect 3 0 4 1;
#X connect 4 0 13 0;
#X connect 5 0 2 0;
#X connect 6 0 7 1;
#X connect 7 0 29 0;
#X connect 8 0 3 1;
#X connect 9 0 15 0;
#X connect 9 0 31 0;
#X connect 9 0 30 0;
#X connect 10 0 11 0;
#X connect 11 0 0 0;
#X connect 12 0 11 1;
#X connect 13 0 7 0;
#X connect 14 0 3 0;
#X connect 15 0 16 0;
#X connect 16 0 8 0;
#X connect 17 0 6 0;
#X connect 18 0 17 0;
#X connect 19 0 18 0;
#X connect 20 0 19 0;
#X connect 21 0 22 0;
#X connect 22 0 15 3;
#X connect 23 0 21 0;
#X connect 24 0 12 0;
#X connect 25 0 15 1;
#X connect 26 0 15 2;
#X connect 27 0 21 1;
#X connect 27 0 23 0;
#X connect 28 0 19 1;
#X connect 28 0 20 0;
#X connect 28 0 21 0;
#X connect 30 0 17 0;
#X connect 31 0 6 0;
#X restore 27 377 pd snd_A;
#N canvas 70 354 450 300 snd_A 0;
#X obj 77 80 mtof;
#X floatatom 77 103 5 0 0 0 - - -, f 5;
#X floatatom 101 162 5 0 0 0 - - -, f 5;
#X obj 101 229 *~;
#X obj 77 259 +~;
#X obj 101 139 * 2;
#X obj 258 306 line~;
#X obj 77 327 *~;
#X obj 136 205 line~;
#X obj 258 154 bng 15 250 50 0 empty empty empty 17 7 0 10 -262144
-1 -1;
#X obj 77 23 inlet;
#X obj 77 55 +;
#X obj 115 44 * 12;
#X obj 77 299 osc~;
#X obj 101 204 osc~;
#X obj 226 125 pack f f f f;
#X msg 155 183 \$2 \, \$3 \$4;
#X msg 308 273 0 743;
#X obj 418 116 prepend set;
#X obj 418 95 pack 0 f;
#X obj 418 71 bng 15 250 50 0 empty empty empty 17 7 0 10 -262144 -1
-1;
#X obj 328 84 /;
#X floatatom 328 106 5 0 0 0 - - -, f 5;
#X obj 317 62 bng 15 250 50 0 empty empty empty 17 7 0 10 -262144 -1
-1;
#X obj 115 23 r Oct_A;
#X obj 207 35 r para1_A;
#X obj 277 35 r para2_A;
#X obj 347 35 r para3_A;
#X obj 463 36 r Release_A;
#X obj 77 362 throw~ out_A;
#X obj 283 249 del 5;
#X msg 259 273 0.25 1;
#X connect 0 0 1 0;
#X connect 0 0 9 0;
#X connect 1 0 4 0;
#X connect 1 0 5 0;
#X connect 2 0 14 0;
#X connect 3 0 4 1;
#X connect 4 0 13 0;
#X connect 5 0 2 0;
#X connect 6 0 7 1;
#X connect 7 0 29 0;
#X connect 8 0 3 1;
#X connect 9 0 15 0;
#X connect 9 0 31 0;
#X connect 9 0 30 0;
#X connect 10 0 11 0;
#X connect 11 0 0 0;
#X connect 12 0 11 1;
#X connect 13 0 7 0;
#X connect 14 0 3 0;
#X connect 15 0 16 0;
#X connect 16 0 8 0;
#X connect 17 0 6 0;
#X connect 18 0 17 0;
#X connect 19 0 18 0;
#X connect 20 0 19 0;
#X connect 21 0 22 0;
#X connect 22 0 15 3;
#X connect 23 0 21 0;
#X connect 24 0 12 0;
#X connect 25 0 15 1;
#X connect 26 0 15 2;
#X connect 27 0 21 1;
#X connect 27 0 23 0;
#X connect 28 0 19 1;
#X connect 28 0 20 0;
#X connect 28 0 21 0;
#X connect 30 0 17 0;
#X connect 31 0 6 0;
#X restore 77 377 pd snd_A;
#N canvas 70 354 450 300 snd_A 0;
#X obj 77 80 mtof;
#X floatatom 77 103 5 0 0 0 - - -, f 5;
#X floatatom 101 162 5 0 0 0 - - -, f 5;
#X obj 101 229 *~;
#X obj 77 259 +~;
#X obj 101 139 * 2;
#X obj 258 306 line~;
#X obj 77 327 *~;
#X obj 136 205 line~;
#X obj 258 154 bng 15 250 50 0 empty empty empty 17 7 0 10 -262144
-1 -1;
#X obj 77 23 inlet;
#X obj 77 55 +;
#X obj 115 44 * 12;
#X obj 77 299 osc~;
#X obj 101 204 osc~;
#X obj 226 125 pack f f f f;
#X msg 155 183 \$2 \, \$3 \$4;
#X msg 308 273 0 743;
#X obj 418 116 prepend set;
#X obj 418 95 pack 0 f;
#X obj 418 71 bng 15 250 50 0 empty empty empty 17 7 0 10 -262144 -1
-1;
#X obj 328 84 /;
#X floatatom 328 106 5 0 0 0 - - -, f 5;
#X obj 317 62 bng 15 250 50 0 empty empty empty 17 7 0 10 -262144 -1
-1;
#X obj 115 23 r Oct_A;
#X obj 207 35 r para1_A;
#X obj 277 35 r para2_A;
#X obj 347 35 r para3_A;
#X obj 463 36 r Release_A;
#X obj 77 362 throw~ out_A;
#X obj 283 249 del 5;
#X msg 259 273 0.25 1;
#X connect 0 0 1 0;
#X connect 0 0 9 0;
#X connect 1 0 4 0;
#X connect 1 0 5 0;
#X connect 2 0 14 0;
#X connect 3 0 4 1;
#X connect 4 0 13 0;
#X connect 5 0 2 0;
#X connect 6 0 7 1;
#X connect 7 0 29 0;
#X connect 8 0 3 1;
#X connect 9 0 15 0;
#X connect 9 0 31 0;
#X connect 9 0 30 0;
#X connect 10 0 11 0;
#X connect 11 0 0 0;
#X connect 12 0 11 1;
#X connect 13 0 7 0;
#X connect 14 0 3 0;
#X connect 15 0 16 0;
#X connect 16 0 8 0;
#X connect 17 0 6 0;
#X connect 18 0 17 0;
#X connect 19 0 18 0;
#X connect 20 0 19 0;
#X connect 21 0 22 0;
#X connect 22 0 15 3;
#X connect 23 0 21 0;
#X connect 24 0 12 0;
#X connect 25 0 15 1;
#X connect 26 0 15 2;
#X connect 27 0 21 1;
#X connect 27 0 23 0;
#X connect 28 0 19 1;
#X connect 28 0 20 0;
#X connect 28 0 21 0;
#X connect 30 0 17 0;
#X connect 31 0 6 0;
#X restore 127 377 pd snd_A;
#N canvas 70 354 450 300 snd_A 0;
#X obj 77 80 mtof;
#X floatatom 77 103 5 0 0 0 - - -, f 5;
#X floatatom 101 162 5 0 0 0 - - -, f 5;
#X obj 101 229 *~;
#X obj 77 259 +~;
#X obj 101 139 * 2;
#X obj 258 306 line~;
#X obj 77 327 *~;
#X obj 136 205 line~;
#X obj 258 154 bng 15 250 50 0 empty empty empty 17 7 0 10 -262144
-1 -1;
#X obj 77 23 inlet;
#X obj 77 55 +;
#X obj 115 44 * 12;
#X obj 77 299 osc~;
#X obj 101 204 osc~;
#X obj 226 125 pack f f f f;
#X msg 155 183 \$2 \, \$3 \$4;
#X msg 308 273 0 743;
#X obj 418 116 prepend set;
#X obj 418 95 pack 0 f;
#X obj 418 71 bng 15 250 50 0 empty empty empty 17 7 0 10 -262144 -1
-1;
#X obj 328 84 /;
#X floatatom 328 106 5 0 0 0 - - -, f 5;
#X obj 317 62 bng 15 250 50 0 empty empty empty 17 7 0 10 -262144 -1
-1;
#X obj 115 23 r Oct_A;
#X obj 207 35 r para1_A;
#X obj 277 35 r para2_A;
#X obj 347 35 r para3_A;
#X obj 463 36 r Release_A;
#X obj 77 362 throw~ out_A;
#X obj 283 249 del 5;
#X msg 259 273 0.25 1;
#X connect 0 0 1 0;
#X connect 0 0 9 0;
#X connect 1 0 4 0;
#X connect 1 0 5 0;
#X connect 2 0 14 0;
#X connect 3 0 4 1;
#X connect 4 0 13 0;
#X connect 5 0 2 0;
#X connect 6 0 7 1;
#X connect 7 0 29 0;
#X connect 8 0 3 1;
#X connect 9 0 15 0;
#X connect 9 0 31 0;
#X connect 9 0 30 0;
#X connect 10 0 11 0;
#X connect 11 0 0 0;
#X connect 12 0 11 1;
#X connect 13 0 7 0;
#X connect 14 0 3 0;
#X connect 15 0 16 0;
#X connect 16 0 8 0;
#X connect 17 0 6 0;
#X connect 18 0 17 0;
#X connect 19 0 18 0;
#X connect 20 0 19 0;
#X connect 21 0 22 0;
#X connect 22 0 15 3;
#X connect 23 0 21 0;
#X connect 24 0 12 0;
#X connect 25 0 15 1;
#X connect 26 0 15 2;
#X connect 27 0 21 1;
#X connect 27 0 23 0;
#X connect 28 0 19 1;
#X connect 28 0 20 0;
#X connect 28 0 21 0;
#X connect 30 0 17 0;
#X connect 31 0 6 0;
#X restore 177 377 pd snd_A;
#N canvas 70 354 450 300 snd_A 0;
#X obj 77 80 mtof;
#X floatatom 77 103 5 0 0 0 - - -, f 5;
#X floatatom 101 162 5 0 0 0 - - -, f 5;
#X obj 101 229 *~;
#X obj 77 259 +~;
#X obj 101 139 * 2;
#X obj 258 306 line~;
#X obj 77 327 *~;
#X obj 136 205 line~;
#X obj 258 154 bng 15 250 50 0 empty empty empty 17 7 0 10 -262144
-1 -1;
#X obj 77 23 inlet;
#X obj 77 55 +;
#X obj 115 44 * 12;
#X obj 77 299 osc~;
#X obj 101 204 osc~;
#X obj 226 125 pack f f f f;
#X msg 155 183 \$2 \, \$3 \$4;
#X msg 308 273 0 743;
#X obj 418 116 prepend set;
#X obj 418 95 pack 0 f;
#X obj 418 71 bng 15 250 50 0 empty empty empty 17 7 0 10 -262144 -1
-1;
#X obj 328 84 /;
#X floatatom 328 106 5 0 0 0 - - -, f 5;
#X obj 317 62 bng 15 250 50 0 empty empty empty 17 7 0 10 -262144 -1
-1;
#X obj 115 23 r Oct_A;
#X obj 207 35 r para1_A;
#X obj 277 35 r para2_A;
#X obj 347 35 r para3_A;
#X obj 463 36 r Release_A;
#X obj 77 362 throw~ out_A;
#X obj 283 249 del 5;
#X msg 259 273 0.25 1;
#X connect 0 0 1 0;
#X connect 0 0 9 0;
#X connect 1 0 4 0;
#X connect 1 0 5 0;
#X connect 2 0 14 0;
#X connect 3 0 4 1;
#X connect 4 0 13 0;
#X connect 5 0 2 0;
#X connect 6 0 7 1;
#X connect 7 0 29 0;
#X connect 8 0 3 1;
#X connect 9 0 15 0;
#X connect 9 0 31 0;
#X connect 9 0 30 0;
#X connect 10 0 11 0;
#X connect 11 0 0 0;
#X connect 12 0 11 1;
#X connect 13 0 7 0;
#X connect 14 0 3 0;
#X connect 15 0 16 0;
#X connect 16 0 8 0;
#X connect 17 0 6 0;
#X connect 18 0 17 0;
#X connect 19 0 18 0;
#X connect 20 0 19 0;
#X connect 21 0 22 0;
#X connect 22 0 15 3;
#X connect 23 0 21 0;
#X connect 24 0 12 0;
#X connect 25 0 15 1;
#X connect 26 0 15 2;
#X connect 27 0 21 1;
#X connect 27 0 23 0;
#X connect 28 0 19 1;
#X connect 28 0 20 0;
#X connect 28 0 21 0;
#X connect 30 0 17 0;
#X connect 31 0 6 0;
#X restore 227 377 pd snd_A;
#N canvas 70 354 450 300 snd_A 0;
#X obj 77 80 mtof;
#X floatatom 77 103 5 0 0 0 - - -, f 5;
#X floatatom 101 162 5 0 0 0 - - -, f 5;
#X obj 101 229 *~;
#X obj 77 259 +~;
#X obj 101 139 * 2;
#X obj 258 306 line~;
#X obj 77 327 *~;
#X obj 136 205 line~;
#X obj 258 154 bng 15 250 50 0 empty empty empty 17 7 0 10 -262144
-1 -1;
#X obj 77 23 inlet;
#X obj 77 55 +;
#X obj 115 44 * 12;
#X obj 77 299 osc~;
#X obj 101 204 osc~;
#X obj 226 125 pack f f f f;
#X msg 155 183 \$2 \, \$3 \$4;
#X msg 308 273 0 743;
#X obj 418 116 prepend set;
#X obj 418 95 pack 0 f;
#X obj 418 71 bng 15 250 50 0 empty empty empty 17 7 0 10 -262144 -1
-1;
#X obj 328 84 /;
#X floatatom 328 106 5 0 0 0 - - -, f 5;
#X obj 317 62 bng 15 250 50 0 empty empty empty 17 7 0 10 -262144 -1
-1;
#X obj 115 23 r Oct_A;
#X obj 207 35 r para1_A;
#X obj 277 35 r para2_A;
#X obj 347 35 r para3_A;
#X obj 463 36 r Release_A;
#X obj 77 362 throw~ out_A;
#X obj 283 249 del 5;
#X msg 259 273 0.25 1;
#X connect 0 0 1 0;
#X connect 0 0 9 0;
#X connect 1 0 4 0;
#X connect 1 0 5 0;
#X connect 2 0 14 0;
#X connect 3 0 4 1;
#X connect 4 0 13 0;
#X connect 5 0 2 0;
#X connect 6 0 7 1;
#X connect 7 0 29 0;
#X connect 8 0 3 1;
#X connect 9 0 15 0;
#X connect 9 0 31 0;
#X connect 9 0 30 0;
#X connect 10 0 11 0;
#X connect 11 0 0 0;
#X connect 12 0 11 1;
#X connect 13 0 7 0;
#X connect 14 0 3 0;
#X connect 15 0 16 0;
#X connect 16 0 8 0;
#X connect 17 0 6 0;
#X connect 18 0 17 0;
#X connect 19 0 18 0;
#X connect 20 0 19 0;
#X connect 21 0 22 0;
#X connect 22 0 15 3;
#X connect 23 0 21 0;
#X connect 24 0 12 0;
#X connect 25 0 15 1;
#X connect 26 0 15 2;
#X connect 27 0 21 1;
#X connect 27 0 23 0;
#X connect 28 0 19 1;
#X connect 28 0 20 0;
#X connect 28 0 21 0;
#X connect 30 0 17 0;
#X connect 31 0 6 0;
#X restore 277 377 pd snd_A;
#N canvas 70 354 450 300 snd_A 0;
#X obj 77 80 mtof;
#X floatatom 77 103 5 0 0 0 - - -, f 5;
#X floatatom 101 162 5 0 0 0 - - -, f 5;
#X obj 101 229 *~;
#X obj 77 259 +~;
#X obj 101 139 * 2;
#X obj 258 306 line~;
#X obj 77 327 *~;
#X obj 136 205 line~;
#X obj 258 154 bng 15 250 50 0 empty empty empty 17 7 0 10 -262144
-1 -1;
#X obj 77 23 inlet;
#X obj 77 55 +;
#X obj 115 44 * 12;
#X obj 77 299 osc~;
#X obj 101 204 osc~;
#X obj 226 125 pack f f f f;
#X msg 155 183 \$2 \, \$3 \$4;
#X msg 308 273 0 743;
#X obj 418 116 prepend set;
#X obj 418 95 pack 0 f;
#X obj 418 71 bng 15 250 50 0 empty empty empty 17 7 0 10 -262144 -1
-1;
#X obj 328 84 /;
#X floatatom 328 106 5 0 0 0 - - -, f 5;
#X obj 317 62 bng 15 250 50 0 empty empty empty 17 7 0 10 -262144 -1
-1;
#X obj 115 23 r Oct_A;
#X obj 207 35 r para1_A;
#X obj 277 35 r para2_A;
#X obj 347 35 r para3_A;
#X obj 463 36 r Release_A;
#X obj 77 362 throw~ out_A;
#X obj 283 249 del 5;
#X msg 259 273 0.25 1;
#X connect 0 0 1 0;
#X connect 0 0 9 0;
#X connect 1 0 4 0;
#X connect 1 0 5 0;
#X connect 2 0 14 0;
#X connect 3 0 4 1;
#X connect 4 0 13 0;
#X connect 5 0 2 0;
#X connect 6 0 7 1;
#X connect 7 0 29 0;
#X connect 8 0 3 1;
#X connect 9 0 15 0;
#X connect 9 0 31 0;
#X connect 9 0 30 0;
#X connect 10 0 11 0;
#X connect 11 0 0 0;
#X connect 12 0 11 1;
#X connect 13 0 7 0;
#X connect 14 0 3 0;
#X connect 15 0 16 0;
#X connect 16 0 8 0;
#X connect 17 0 6 0;
#X connect 18 0 17 0;
#X connect 19 0 18 0;
#X connect 20 0 19 0;
#X connect 21 0 22 0;
#X connect 22 0 15 3;
#X connect 23 0 21 0;
#X connect 24 0 12 0;
#X connect 25 0 15 1;
#X connect 26 0 15 2;
#X connect 27 0 21 1;
#X connect 27 0 23 0;
#X connect 28 0 19 1;
#X connect 28 0 20 0;
#X connect 28 0 21 0;
#X connect 30 0 17 0;
#X connect 31 0 6 0;
#X restore 327 377 pd snd_A;
#N canvas 70 354 450 300 snd_A 0;
#X obj 77 80 mtof;
#X floatatom 77 103 5 0 0 0 - - -, f 5;
#X floatatom 101 162 5 0 0 0 - - -, f 5;
#X obj 101 229 *~;
#X obj 77 259 +~;
#X obj 101 139 * 2;
#X obj 258 306 line~;
#X obj 77 327 *~;
#X obj 136 205 line~;
#X obj 258 154 bng 15 250 50 0 empty empty empty 17 7 0 10 -262144
-1 -1;
#X obj 77 23 inlet;
#X obj 77 55 +;
#X obj 115 44 * 12;
#X obj 77 299 osc~;
#X obj 101 204 osc~;
#X obj 226 125 pack f f f f;
#X msg 155 183 \$2 \, \$3 \$4;
#X msg 308 273 0 743;
#X obj 418 116 prepend set;
#X obj 418 95 pack 0 f;
#X obj 418 71 bng 15 250 50 0 empty empty empty 17 7 0 10 -262144 -1
-1;
#X obj 328 84 /;
#X floatatom 328 106 5 0 0 0 - - -, f 5;
#X obj 317 62 bng 15 250 50 0 empty empty empty 17 7 0 10 -262144 -1
-1;
#X obj 115 23 r Oct_A;
#X obj 207 35 r para1_A;
#X obj 277 35 r para2_A;
#X obj 347 35 r para3_A;
#X obj 463 36 r Release_A;
#X obj 77 362 throw~ out_A;
#X obj 283 249 del 5;
#X msg 259 273 0.25 1;
#X connect 0 0 1 0;
#X connect 0 0 9 0;
#X connect 1 0 4 0;
#X connect 1 0 5 0;
#X connect 2 0 14 0;
#X connect 3 0 4 1;
#X connect 4 0 13 0;
#X connect 5 0 2 0;
#X connect 6 0 7 1;
#X connect 7 0 29 0;
#X connect 8 0 3 1;
#X connect 9 0 15 0;
#X connect 9 0 31 0;
#X connect 9 0 30 0;
#X connect 10 0 11 0;
#X connect 11 0 0 0;
#X connect 12 0 11 1;
#X connect 13 0 7 0;
#X connect 14 0 3 0;
#X connect 15 0 16 0;
#X connect 16 0 8 0;
#X connect 17 0 6 0;
#X connect 18 0 17 0;
#X connect 19 0 18 0;
#X connect 20 0 19 0;
#X connect 21 0 22 0;
#X connect 22 0 15 3;
#X connect 23 0 21 0;
#X connect 24 0 12 0;
#X connect 25 0 15 1;
#X connect 26 0 15 2;
#X connect 27 0 21 1;
#X connect 27 0 23 0;
#X connect 28 0 19 1;
#X connect 28 0 20 0;
#X connect 28 0 21 0;
#X connect 30 0 17 0;
#X connect 31 0 6 0;
#X restore 377 377 pd snd_A;
#N canvas 70 354 450 300 snd_A 0;
#X obj 77 80 mtof;
#X floatatom 77 103 5 0 0 0 - - -, f 5;
#X floatatom 101 162 5 0 0 0 - - -, f 5;
#X obj 101 229 *~;
#X obj 77 259 +~;
#X obj 101 139 * 2;
#X obj 258 306 line~;
#X obj 77 327 *~;
#X obj 136 205 line~;
#X obj 258 154 bng 15 250 50 0 empty empty empty 17 7 0 10 -262144
-1 -1;
#X obj 77 23 inlet;
#X obj 77 55 +;
#X obj 115 44 * 12;
#X obj 77 299 osc~;
#X obj 101 204 osc~;
#X obj 226 125 pack f f f f;
#X msg 155 183 \$2 \, \$3 \$4;
#X msg 308 273 0 743;
#X obj 418 116 prepend set;
#X obj 418 95 pack 0 f;
#X obj 418 71 bng 15 250 50 0 empty empty empty 17 7 0 10 -262144 -1
-1;
#X obj 328 84 /;
#X floatatom 328 106 5 0 0 0 - - -, f 5;
#X obj 317 62 bng 15 250 50 0 empty empty empty 17 7 0 10 -262144 -1
-1;
#X obj 115 23 r Oct_A;
#X obj 207 35 r para1_A;
#X obj 277 35 r para2_A;
#X obj 347 35 r para3_A;
#X obj 463 36 r Release_A;
#X obj 77 362 throw~ out_A;
#X obj 283 249 del 5;
#X msg 259 273 0.25 1;
#X connect 0 0 1 0;
#X connect 0 0 9 0;
#X connect 1 0 4 0;
#X connect 1 0 5 0;
#X connect 2 0 14 0;
#X connect 3 0 4 1;
#X connect 4 0 13 0;
#X connect 5 0 2 0;
#X connect 6 0 7 1;
#X connect 7 0 29 0;
#X connect 8 0 3 1;
#X connect 9 0 15 0;
#X connect 9 0 31 0;
#X connect 9 0 30 0;
#X connect 10 0 11 0;
#X connect 11 0 0 0;
#X connect 12 0 11 1;
#X connect 13 0 7 0;
#X connect 14 0 3 0;
#X connect 15 0 16 0;
#X connect 16 0 8 0;
#X connect 17 0 6 0;
#X connect 18 0 17 0;
#X connect 19 0 18 0;
#X connect 20 0 19 0;
#X connect 21 0 22 0;
#X connect 22 0 15 3;
#X connect 23 0 21 0;
#X connect 24 0 12 0;
#X connect 25 0 15 1;
#X connect 26 0 15 2;
#X connect 27 0 21 1;
#X connect 27 0 23 0;
#X connect 28 0 19 1;
#X connect 28 0 20 0;
#X connect 28 0 21 0;
#X connect 30 0 17 0;
#X connect 31 0 6 0;
#X restore 427 377 pd snd_A;
#N canvas 70 354 450 300 snd_A 0;
#X obj 77 80 mtof;
#X floatatom 77 103 5 0 0 0 - - -, f 5;
#X floatatom 101 162 5 0 0 0 - - -, f 5;
#X obj 101 229 *~;
#X obj 77 259 +~;
#X obj 101 139 * 2;
#X obj 258 306 line~;
#X obj 77 327 *~;
#X obj 136 205 line~;
#X obj 258 154 bng 15 250 50 0 empty empty empty 17 7 0 10 -262144
-1 -1;
#X obj 77 23 inlet;
#X obj 77 55 +;
#X obj 115 44 * 12;
#X obj 77 299 osc~;
#X obj 101 204 osc~;
#X obj 226 125 pack f f f f;
#X msg 155 183 \$2 \, \$3 \$4;
#X msg 308 273 0 743;
#X obj 418 116 prepend set;
#X obj 418 95 pack 0 f;
#X obj 418 71 bng 15 250 50 0 empty empty empty 17 7 0 10 -262144 -1
-1;
#X obj 328 84 /;
#X floatatom 328 106 5 0 0 0 - - -, f 5;
#X obj 317 62 bng 15 250 50 0 empty empty empty 17 7 0 10 -262144 -1
-1;
#X obj 115 23 r Oct_A;
#X obj 207 35 r para1_A;
#X obj 277 35 r para2_A;
#X obj 347 35 r para3_A;
#X obj 463 36 r Release_A;
#X obj 77 362 throw~ out_A;
#X obj 283 249 del 5;
#X msg 259 273 0.25 1;
#X connect 0 0 1 0;
#X connect 0 0 9 0;
#X connect 1 0 4 0;
#X connect 1 0 5 0;
#X connect 2 0 14 0;
#X connect 3 0 4 1;
#X connect 4 0 13 0;
#X connect 5 0 2 0;
#X connect 6 0 7 1;
#X connect 7 0 29 0;
#X connect 8 0 3 1;
#X connect 9 0 15 0;
#X connect 9 0 31 0;
#X connect 9 0 30 0;
#X connect 10 0 11 0;
#X connect 11 0 0 0;
#X connect 12 0 11 1;
#X connect 13 0 7 0;
#X connect 14 0 3 0;
#X connect 15 0 16 0;
#X connect 16 0 8 0;
#X connect 17 0 6 0;
#X connect 18 0 17 0;
#X connect 19 0 18 0;
#X connect 20 0 19 0;
#X connect 21 0 22 0;
#X connect 22 0 15 3;
#X connect 23 0 21 0;
#X connect 24 0 12 0;
#X connect 25 0 15 1;
#X connect 26 0 15 2;
#X connect 27 0 21 1;
#X connect 27 0 23 0;
#X connect 28 0 19 1;
#X connect 28 0 20 0;
#X connect 28 0 21 0;
#X connect 30 0 17 0;
#X connect 31 0 6 0;
#X restore 477 377 pd snd_A;
#N canvas 70 354 450 300 snd_A 0;
#X obj 77 80 mtof;
#X floatatom 77 103 5 0 0 0 - - -, f 5;
#X floatatom 101 162 5 0 0 0 - - -, f 5;
#X obj 101 229 *~;
#X obj 77 259 +~;
#X obj 101 139 * 2;
#X obj 258 306 line~;
#X obj 77 327 *~;
#X obj 136 205 line~;
#X obj 258 154 bng 15 250 50 0 empty empty empty 17 7 0 10 -262144
-1 -1;
#X obj 77 23 inlet;
#X obj 77 55 +;
#X obj 115 44 * 12;
#X obj 77 299 osc~;
#X obj 101 204 osc~;
#X obj 226 125 pack f f f f;
#X msg 155 183 \$2 \, \$3 \$4;
#X msg 308 273 0 743;
#X obj 418 116 prepend set;
#X obj 418 95 pack 0 f;
#X obj 418 71 bng 15 250 50 0 empty empty empty 17 7 0 10 -262144 -1
-1;
#X obj 328 84 /;
#X floatatom 328 106 5 0 0 0 - - -, f 5;
#X obj 317 62 bng 15 250 50 0 empty empty empty 17 7 0 10 -262144 -1
-1;
#X obj 115 23 r Oct_A;
#X obj 207 35 r para1_A;
#X obj 277 35 r para2_A;
#X obj 347 35 r para3_A;
#X obj 463 36 r Release_A;
#X obj 77 362 throw~ out_A;
#X obj 283 249 del 5;
#X msg 259 273 0.25 1;
#X connect 0 0 1 0;
#X connect 0 0 9 0;
#X connect 1 0 4 0;
#X connect 1 0 5 0;
#X connect 2 0 14 0;
#X connect 3 0 4 1;
#X connect 4 0 13 0;
#X connect 5 0 2 0;
#X connect 6 0 7 1;
#X connect 7 0 29 0;
#X connect 8 0 3 1;
#X connect 9 0 15 0;
#X connect 9 0 31 0;
#X connect 9 0 30 0;
#X connect 10 0 11 0;
#X connect 11 0 0 0;
#X connect 12 0 11 1;
#X connect 13 0 7 0;
#X connect 14 0 3 0;
#X connect 15 0 16 0;
#X connect 16 0 8 0;
#X connect 17 0 6 0;
#X connect 18 0 17 0;
#X connect 19 0 18 0;
#X connect 20 0 19 0;
#X connect 21 0 22 0;
#X connect 22 0 15 3;
#X connect 23 0 21 0;
#X connect 24 0 12 0;
#X connect 25 0 15 1;
#X connect 26 0 15 2;
#X connect 27 0 21 1;
#X connect 27 0 23 0;
#X connect 28 0 19 1;
#X connect 28 0 20 0;
#X connect 28 0 21 0;
#X connect 30 0 17 0;
#X connect 31 0 6 0;
#X restore 537 377 pd snd_A;
#N canvas 70 354 450 300 snd_A 0;
#X obj 77 80 mtof;
#X floatatom 77 103 5 0 0 0 - - -, f 5;
#X floatatom 101 162 5 0 0 0 - - -, f 5;
#X obj 101 229 *~;
#X obj 77 259 +~;
#X obj 101 139 * 2;
#X obj 258 306 line~;
#X obj 77 327 *~;
#X obj 136 205 line~;
#X obj 258 154 bng 15 250 50 0 empty empty empty 17 7 0 10 -262144
-1 -1;
#X obj 77 23 inlet;
#X obj 77 55 +;
#X obj 115 44 * 12;
#X obj 77 299 osc~;
#X obj 101 204 osc~;
#X obj 226 125 pack f f f f;
#X msg 155 183 \$2 \, \$3 \$4;
#X msg 308 273 0 743;
#X obj 418 116 prepend set;
#X obj 418 95 pack 0 f;
#X obj 418 71 bng 15 250 50 0 empty empty empty 17 7 0 10 -262144 -1
-1;
#X obj 328 84 /;
#X floatatom 328 106 5 0 0 0 - - -, f 5;
#X obj 317 62 bng 15 250 50 0 empty empty empty 17 7 0 10 -262144 -1
-1;
#X obj 115 23 r Oct_A;
#X obj 207 35 r para1_A;
#X obj 277 35 r para2_A;
#X obj 347 35 r para3_A;
#X obj 463 36 r Release_A;
#X obj 77 362 throw~ out_A;
#X obj 283 249 del 5;
#X msg 259 273 0.25 1;
#X connect 0 0 1 0;
#X connect 0 0 9 0;
#X connect 1 0 4 0;
#X connect 1 0 5 0;
#X connect 2 0 14 0;
#X connect 3 0 4 1;
#X connect 4 0 13 0;
#X connect 5 0 2 0;
#X connect 6 0 7 1;
#X connect 7 0 29 0;
#X connect 8 0 3 1;
#X connect 9 0 15 0;
#X connect 9 0 31 0;
#X connect 9 0 30 0;
#X connect 10 0 11 0;
#X connect 11 0 0 0;
#X connect 12 0 11 1;
#X connect 13 0 7 0;
#X connect 14 0 3 0;
#X connect 15 0 16 0;
#X connect 16 0 8 0;
#X connect 17 0 6 0;
#X connect 18 0 17 0;
#X connect 19 0 18 0;
#X connect 20 0 19 0;
#X connect 21 0 22 0;
#X connect 22 0 15 3;
#X connect 23 0 21 0;
#X connect 24 0 12 0;
#X connect 25 0 15 1;
#X connect 26 0 15 2;
#X connect 27 0 21 1;
#X connect 27 0 23 0;
#X connect 28 0 19 1;
#X connect 28 0 20 0;
#X connect 28 0 21 0;
#X connect 30 0 17 0;
#X connect 31 0 6 0;
#X restore 587 377 pd snd_A;
#N canvas 70 354 450 300 snd_A 0;
#X obj 77 80 mtof;
#X floatatom 77 103 5 0 0 0 - - -, f 5;
#X floatatom 101 162 5 0 0 0 - - -, f 5;
#X obj 101 229 *~;
#X obj 77 259 +~;
#X obj 101 139 * 2;
#X obj 258 306 line~;
#X obj 77 327 *~;
#X obj 136 205 line~;
#X obj 258 154 bng 15 250 50 0 empty empty empty 17 7 0 10 -262144
-1 -1;
#X obj 77 23 inlet;
#X obj 77 55 +;
#X obj 115 44 * 12;
#X obj 77 299 osc~;
#X obj 101 204 osc~;
#X obj 226 125 pack f f f f;
#X msg 155 183 \$2 \, \$3 \$4;
#X msg 308 273 0 743;
#X obj 418 116 prepend set;
#X obj 418 95 pack 0 f;
#X obj 418 71 bng 15 250 50 0 empty empty empty 17 7 0 10 -262144 -1
-1;
#X obj 328 84 /;
#X floatatom 328 106 5 0 0 0 - - -, f 5;
#X obj 317 62 bng 15 250 50 0 empty empty empty 17 7 0 10 -262144 -1
-1;
#X obj 115 23 r Oct_A;
#X obj 207 35 r para1_A;
#X obj 277 35 r para2_A;
#X obj 347 35 r para3_A;
#X obj 463 36 r Release_A;
#X obj 77 362 throw~ out_A;
#X obj 283 249 del 5;
#X msg 259 273 0.25 1;
#X connect 0 0 1 0;
#X connect 0 0 9 0;
#X connect 1 0 4 0;
#X connect 1 0 5 0;
#X connect 2 0 14 0;
#X connect 3 0 4 1;
#X connect 4 0 13 0;
#X connect 5 0 2 0;
#X connect 6 0 7 1;
#X connect 7 0 29 0;
#X connect 8 0 3 1;
#X connect 9 0 15 0;
#X connect 9 0 31 0;
#X connect 9 0 30 0;
#X connect 10 0 11 0;
#X connect 11 0 0 0;
#X connect 12 0 11 1;
#X connect 13 0 7 0;
#X connect 14 0 3 0;
#X connect 15 0 16 0;
#X connect 16 0 8 0;
#X connect 17 0 6 0;
#X connect 18 0 17 0;
#X connect 19 0 18 0;
#X connect 20 0 19 0;
#X connect 21 0 22 0;
#X connect 22 0 15 3;
#X connect 23 0 21 0;
#X connect 24 0 12 0;
#X connect 25 0 15 1;
#X connect 26 0 15 2;
#X connect 27 0 21 1;
#X connect 27 0 23 0;
#X connect 28 0 19 1;
#X connect 28 0 20 0;
#X connect 28 0 21 0;
#X connect 30 0 17 0;
#X connect 31 0 6 0;
#X restore 637 377 pd snd_A;
#N canvas 70 354 450 300 snd_A 0;
#X obj 77 80 mtof;
#X floatatom 77 103 5 0 0 0 - - -, f 5;
#X floatatom 101 162 5 0 0 0 - - -, f 5;
#X obj 101 229 *~;
#X obj 77 259 +~;
#X obj 101 139 * 2;
#X obj 258 306 line~;
#X obj 77 327 *~;
#X obj 136 205 line~;
#X obj 258 154 bng 15 250 50 0 empty empty empty 17 7 0 10 -262144
-1 -1;
#X obj 77 23 inlet;
#X obj 77 55 +;
#X obj 115 44 * 12;
#X obj 77 299 osc~;
#X obj 101 204 osc~;
#X obj 226 125 pack f f f f;
#X msg 155 183 \$2 \, \$3 \$4;
#X msg 308 273 0 743;
#X obj 418 116 prepend set;
#X obj 418 95 pack 0 f;
#X obj 418 71 bng 15 250 50 0 empty empty empty 17 7 0 10 -262144 -1
-1;
#X obj 328 84 /;
#X floatatom 328 106 5 0 0 0 - - -, f 5;
#X obj 317 62 bng 15 250 50 0 empty empty empty 17 7 0 10 -262144 -1
-1;
#X obj 115 23 r Oct_A;
#X obj 207 35 r para1_A;
#X obj 277 35 r para2_A;
#X obj 347 35 r para3_A;
#X obj 463 36 r Release_A;
#X obj 77 362 throw~ out_A;
#X obj 283 249 del 5;
#X msg 259 273 0.25 1;
#X connect 0 0 1 0;
#X connect 0 0 9 0;
#X connect 1 0 4 0;
#X connect 1 0 5 0;
#X connect 2 0 14 0;
#X connect 3 0 4 1;
#X connect 4 0 13 0;
#X connect 5 0 2 0;
#X connect 6 0 7 1;
#X connect 7 0 29 0;
#X connect 8 0 3 1;
#X connect 9 0 15 0;
#X connect 9 0 31 0;
#X connect 9 0 30 0;
#X connect 10 0 11 0;
#X connect 11 0 0 0;
#X connect 12 0 11 1;
#X connect 13 0 7 0;
#X connect 14 0 3 0;
#X connect 15 0 16 0;
#X connect 16 0 8 0;
#X connect 17 0 6 0;
#X connect 18 0 17 0;
#X connect 19 0 18 0;
#X connect 20 0 19 0;
#X connect 21 0 22 0;
#X connect 22 0 15 3;
#X connect 23 0 21 0;
#X connect 24 0 12 0;
#X connect 25 0 15 1;
#X connect 26 0 15 2;
#X connect 27 0 21 1;
#X connect 27 0 23 0;
#X connect 28 0 19 1;
#X connect 28 0 20 0;
#X connect 28 0 21 0;
#X connect 30 0 17 0;
#X connect 31 0 6 0;
#X restore 687 377 pd snd_A;
#N canvas 70 354 450 300 snd_A 0;
#X obj 77 80 mtof;
#X floatatom 77 103 5 0 0 0 - - -, f 5;
#X floatatom 101 162 5 0 0 0 - - -, f 5;
#X obj 101 229 *~;
#X obj 77 259 +~;
#X obj 101 139 * 2;
#X obj 258 306 line~;
#X obj 77 327 *~;
#X obj 136 205 line~;
#X obj 258 154 bng 15 250 50 0 empty empty empty 17 7 0 10 -262144
-1 -1;
#X obj 77 23 inlet;
#X obj 77 55 +;
#X obj 115 44 * 12;
#X obj 77 299 osc~;
#X obj 101 204 osc~;
#X obj 226 125 pack f f f f;
#X msg 155 183 \$2 \, \$3 \$4;
#X msg 308 273 0 743;
#X obj 418 116 prepend set;
#X obj 418 95 pack 0 f;
#X obj 418 71 bng 15 250 50 0 empty empty empty 17 7 0 10 -262144 -1
-1;
#X obj 328 84 /;
#X floatatom 328 106 5 0 0 0 - - -, f 5;
#X obj 317 62 bng 15 250 50 0 empty empty empty 17 7 0 10 -262144 -1
-1;
#X obj 115 23 r Oct_A;
#X obj 207 35 r para1_A;
#X obj 277 35 r para2_A;
#X obj 347 35 r para3_A;
#X obj 463 36 r Release_A;
#X obj 77 362 throw~ out_A;
#X obj 283 249 del 5;
#X msg 259 273 0.25 1;
#X connect 0 0 1 0;
#X connect 0 0 9 0;
#X connect 1 0 4 0;
#X connect 1 0 5 0;
#X connect 2 0 14 0;
#X connect 3 0 4 1;
#X connect 4 0 13 0;
#X connect 5 0 2 0;
#X connect 6 0 7 1;
#X connect 7 0 29 0;
#X connect 8 0 3 1;
#X connect 9 0 15 0;
#X connect 9 0 31 0;
#X connect 9 0 30 0;
#X connect 10 0 11 0;
#X connect 11 0 0 0;
#X connect 12 0 11 1;
#X connect 13 0 7 0;
#X connect 14 0 3 0;
#X connect 15 0 16 0;
#X connect 16 0 8 0;
#X connect 17 0 6 0;
#X connect 18 0 17 0;
#X connect 19 0 18 0;
#X connect 20 0 19 0;
#X connect 21 0 22 0;
#X connect 22 0 15 3;
#X connect 23 0 21 0;
#X connect 24 0 12 0;
#X connect 25 0 15 1;
#X connect 26 0 15 2;
#X connect 27 0 21 1;
#X connect 27 0 23 0;
#X connect 28 0 19 1;
#X connect 28 0 20 0;
#X connect 28 0 21 0;
#X connect 30 0 17 0;
#X connect 31 0 6 0;
#X restore 737 377 pd snd_A;
#N canvas 70 354 450 300 snd_A 0;
#X obj 77 80 mtof;
#X floatatom 77 103 5 0 0 0 - - -, f 5;
#X floatatom 101 162 5 0 0 0 - - -, f 5;
#X obj 101 229 *~;
#X obj 77 259 +~;
#X obj 101 139 * 2;
#X obj 258 306 line~;
#X obj 77 327 *~;
#X obj 136 205 line~;
#X obj 258 154 bng 15 250 50 0 empty empty empty 17 7 0 10 -262144
-1 -1;
#X obj 77 23 inlet;
#X obj 77 55 +;
#X obj 115 44 * 12;
#X obj 77 299 osc~;
#X obj 101 204 osc~;
#X obj 226 125 pack f f f f;
#X msg 155 183 \$2 \, \$3 \$4;
#X msg 308 273 0 743;
#X obj 418 116 prepend set;
#X obj 418 95 pack 0 f;
#X obj 418 71 bng 15 250 50 0 empty empty empty 17 7 0 10 -262144 -1
-1;
#X obj 328 84 /;
#X floatatom 328 106 5 0 0 0 - - -, f 5;
#X obj 317 62 bng 15 250 50 0 empty empty empty 17 7 0 10 -262144 -1
-1;
#X obj 115 23 r Oct_A;
#X obj 207 35 r para1_A;
#X obj 277 35 r para2_A;
#X obj 347 35 r para3_A;
#X obj 463 36 r Release_A;
#X obj 77 362 throw~ out_A;
#X obj 283 249 del 5;
#X msg 259 273 0.25 1;
#X connect 0 0 1 0;
#X connect 0 0 9 0;
#X connect 1 0 4 0;
#X connect 1 0 5 0;
#X connect 2 0 14 0;
#X connect 3 0 4 1;
#X connect 4 0 13 0;
#X connect 5 0 2 0;
#X connect 6 0 7 1;
#X connect 7 0 29 0;
#X connect 8 0 3 1;
#X connect 9 0 15 0;
#X connect 9 0 31 0;
#X connect 9 0 30 0;
#X connect 10 0 11 0;
#X connect 11 0 0 0;
#X connect 12 0 11 1;
#X connect 13 0 7 0;
#X connect 14 0 3 0;
#X connect 15 0 16 0;
#X connect 16 0 8 0;
#X connect 17 0 6 0;
#X connect 18 0 17 0;
#X connect 19 0 18 0;
#X connect 20 0 19 0;
#X connect 21 0 22 0;
#X connect 22 0 15 3;
#X connect 23 0 21 0;
#X connect 24 0 12 0;
#X connect 25 0 15 1;
#X connect 26 0 15 2;
#X connect 27 0 21 1;
#X connect 27 0 23 0;
#X connect 28 0 19 1;
#X connect 28 0 20 0;
#X connect 28 0 21 0;
#X connect 30 0 17 0;
#X connect 31 0 6 0;
#X restore 787 377 pd snd_A;
#N canvas 70 354 450 300 snd_A 0;
#X obj 77 80 mtof;
#X floatatom 77 103 5 0 0 0 - - -, f 5;
#X floatatom 101 162 5 0 0 0 - - -, f 5;
#X obj 101 229 *~;
#X obj 77 259 +~;
#X obj 101 139 * 2;
#X obj 258 306 line~;
#X obj 77 327 *~;
#X obj 136 205 line~;
#X obj 258 154 bng 15 250 50 0 empty empty empty 17 7 0 10 -262144
-1 -1;
#X obj 77 23 inlet;
#X obj 77 55 +;
#X obj 115 44 * 12;
#X obj 77 299 osc~;
#X obj 101 204 osc~;
#X obj 226 125 pack f f f f;
#X msg 155 183 \$2 \, \$3 \$4;
#X msg 308 273 0 743;
#X obj 418 116 prepend set;
#X obj 418 95 pack 0 f;
#X obj 418 71 bng 15 250 50 0 empty empty empty 17 7 0 10 -262144 -1
-1;
#X obj 328 84 /;
#X floatatom 328 106 5 0 0 0 - - -, f 5;
#X obj 317 62 bng 15 250 50 0 empty empty empty 17 7 0 10 -262144 -1
-1;
#X obj 115 23 r Oct_A;
#X obj 207 35 r para1_A;
#X obj 277 35 r para2_A;
#X obj 347 35 r para3_A;
#X obj 463 36 r Release_A;
#X obj 77 362 throw~ out_A;
#X obj 283 249 del 5;
#X msg 259 273 0.25 1;
#X connect 0 0 1 0;
#X connect 0 0 9 0;
#X connect 1 0 4 0;
#X connect 1 0 5 0;
#X connect 2 0 14 0;
#X connect 3 0 4 1;
#X connect 4 0 13 0;
#X connect 5 0 2 0;
#X connect 6 0 7 1;
#X connect 7 0 29 0;
#X connect 8 0 3 1;
#X connect 9 0 15 0;
#X connect 9 0 31 0;
#X connect 9 0 30 0;
#X connect 10 0 11 0;
#X connect 11 0 0 0;
#X connect 12 0 11 1;
#X connect 13 0 7 0;
#X connect 14 0 3 0;
#X connect 15 0 16 0;
#X connect 16 0 8 0;
#X connect 17 0 6 0;
#X connect 18 0 17 0;
#X connect 19 0 18 0;
#X connect 20 0 19 0;
#X connect 21 0 22 0;
#X connect 22 0 15 3;
#X connect 23 0 21 0;
#X connect 24 0 12 0;
#X connect 25 0 15 1;
#X connect 26 0 15 2;
#X connect 27 0 21 1;
#X connect 27 0 23 0;
#X connect 28 0 19 1;
#X connect 28 0 20 0;
#X connect 28 0 21 0;
#X connect 30 0 17 0;
#X connect 31 0 6 0;
#X restore 837 377 pd snd_A;
#X connect 1 0 13 0;
#X connect 1 0 24 0;
#X connect 2 0 27 0;
#X connect 3 0 28 0;
#X connect 4 0 29 0;
#X connect 5 0 30 0;
#X connect 6 0 31 0;
#X connect 7 0 32 0;
#X connect 8 0 33 0;
#X connect 9 0 34 0;
#X connect 10 0 35 0;
#X connect 11 0 36 0;
#X connect 12 0 45 0;
#X connect 13 0 2 1;
#X connect 13 1 3 1;
#X connect 13 2 4 1;
#X connect 13 3 5 1;
#X connect 13 4 6 1;
#X connect 13 5 7 1;
#X connect 13 6 8 1;
#X connect 13 7 9 1;
#X connect 13 8 10 1;
#X connect 13 9 11 1;
#X connect 14 0 2 0;
#X connect 14 1 3 0;
#X connect 14 2 4 0;
#X connect 14 3 5 0;
#X connect 14 4 6 0;
#X connect 14 5 7 0;
#X connect 14 6 8 0;
#X connect 14 7 9 0;
#X connect 14 8 10 0;
#X connect 14 9 11 0;
#X connect 15 0 46 0;
#X connect 16 0 17 0;
#X connect 16 1 18 0;
#X connect 16 2 19 0;
#X connect 16 3 20 0;
#X connect 16 4 21 0;
#X connect 16 5 22 0;
#X connect 16 6 23 0;
#X connect 17 0 37 0;
#X connect 18 0 38 0;
#X connect 19 0 39 0;
#X connect 20 0 40 0;
#X connect 21 0 41 0;
#X connect 22 0 42 0;
#X connect 23 0 43 0;
#X connect 24 0 17 1;
#X connect 24 1 18 1;
#X connect 24 2 19 1;
#X connect 24 3 20 1;
#X connect 24 4 21 1;
#X connect 24 5 22 1;
#X connect 24 6 23 1;
#X connect 25 0 2 1;
#X connect 25 0 3 1;
#X connect 25 0 4 1;
#X connect 25 0 5 1;
#X connect 25 0 6 1;
#X connect 25 0 7 1;
#X connect 25 0 8 1;
#X connect 25 0 9 1;
#X connect 25 0 10 1;
#X connect 25 0 11 1;
#X connect 26 0 17 1;
#X connect 26 0 18 1;
#X connect 26 0 19 1;
#X connect 26 0 20 1;
#X connect 26 0 21 1;
#X connect 26 0 22 1;
#X connect 27 0 48 0;
#X connect 28 0 49 0;
#X connect 29 0 50 0;
#X connect 30 0 51 0;
#X connect 31 0 52 0;
#X connect 32 0 53 0;
#X connect 33 0 54 0;
#X connect 34 0 55 0;
#X connect 35 0 56 0;
#X connect 36 0 57 0;
#X connect 37 0 58 0;
#X connect 38 0 59 0;
#X connect 39 0 60 0;
#X connect 40 0 61 0;
#X connect 41 0 62 0;
#X connect 42 0 63 0;
#X connect 43 0 64 0;
#X connect 44 0 45 1;
#X connect 44 0 46 1;
#X connect 45 0 1 0;
#X connect 46 0 47 0;
#X connect 47 0 14 0;
#X connect 47 0 16 0;
#X coords 0 -1 1 1 80 40 2 100 100;
#X restore 105 232 pd keyinput;
#X floatatom 283 338 5 0 0 0 - - -, f 5;
#X obj 283 362 /;
#X obj 283 310 bng 15 250 50 0 empty empty empty 17 7 0 10 -262144
-1 -1;
#X obj 105 171 + 1;
#X obj 479 319 line;
#X floatatom 479 341 5 0 0 0 - - -, f 5;
#X obj 479 266 prepend set;
#X obj 461 267 bng 15 250 50 0 empty empty empty 17 7 0 10 -262144
-1 -1;
#X msg 479 298 0.405172 500;
#X obj 479 245 pack f 500;
#X obj 577 389 outlet~;
#X text 15 70 octave;
#X obj 105 214 tgl 15 1 empty empty empty 17 7 0 10 -262144 -1 -1 1
1;
#X obj 190 82 inlet;
#X obj 236 82 inlet;
#X obj 277 82 inlet;
#X obj 318 82 inlet;
#X obj 370 121 vsl 20 30 0 0.5 0 1 empty empty empty 0 -9 0 10 -262144
-1 -1 2350 1;
#X obj 370 181 tgl 20 1 empty empty empty 17 7 0 10 -262144 -1 -1 1
1;
#X obj 436 169 *;
#X text 359 163 on/off;
#X obj 424 147 t b f;
#X obj 577 299 *~;
#X obj 173 -50 inlet;
#X obj 178 23 line;
#X text 344 100 D;
#X text 296 100 C;
#X text 246 100 B;
#X text 196 100 A;
#X text 148 100 Freq;
#N canvas 758 85 450 300 snd_F 0;
#X floatatom 77 103 5 0 0 0 - - -, f 5;
#X floatatom 101 162 5 0 0 0 - - -, f 5;
#X obj 101 229 *~;
#X obj 77 259 +~;
#X obj 101 139 * 2;
#X obj 258 306 line~;
#X obj 77 327 *~;
#X obj 136 205 line~;
#X obj 258 154 bng 15 250 50 0 empty empty empty 17 7 0 10 -262144
-1 -1;
#X obj 77 23 inlet;
#X obj 77 299 osc~;
#X obj 101 204 osc~;
#X obj 226 125 pack f f f f;
#X msg 155 183 \$2 \, \$3 \$4;
#X msg 308 273 0 743;
#X obj 418 116 prepend set;
#X obj 418 95 pack 0 f;
#X obj 418 71 bng 15 250 50 0 empty empty empty 17 7 0 10 -262144 -1
-1;
#X obj 328 84 /;
#X floatatom 328 106 5 0 0 0 - - -, f 5;
#X obj 317 62 bng 15 250 50 0 empty empty empty 17 7 0 10 -262144 -1
-1;
#X obj 207 35 r para1_A;
#X obj 277 35 r para2_A;
#X obj 347 35 r para3_A;
#X obj 463 36 r Release_A;
#X obj 77 362 throw~ out_A;
#X msg 259 273 0.5 1;
#X obj 283 249 del 5;
#X connect 0 0 3 0;
#X connect 0 0 4 0;
#X connect 0 0 8 0;
#X connect 1 0 11 0;
#X connect 2 0 3 1;
#X connect 3 0 10 0;
#X connect 4 0 1 0;
#X connect 5 0 6 1;
#X connect 6 0 25 0;
#X connect 7 0 2 1;
#X connect 8 0 12 0;
#X connect 8 0 26 0;
#X connect 8 0 27 0;
#X connect 9 0 0 0;
#X connect 10 0 6 0;
#X connect 11 0 2 0;
#X connect 12 0 13 0;
#X connect 13 0 7 0;
#X connect 14 0 5 0;
#X connect 15 0 14 0;
#X connect 16 0 15 0;
#X connect 17 0 16 0;
#X connect 18 0 19 0;
#X connect 19 0 12 3;
#X connect 20 0 18 0;
#X connect 21 0 12 1;
#X connect 22 0 12 2;
#X connect 23 0 18 1;
#X connect 23 0 20 0;
#X connect 24 0 16 1;
#X connect 24 0 17 0;
#X connect 24 0 18 0;
#X connect 26 0 5 0;
#X connect 27 0 14 0;
#X restore 178 48 pd snd_F;
#X connect 0 0 27 0;
#X connect 0 0 49 0;
#X connect 2 0 0 0;
#X connect 3 0 0 0;
#X connect 4 0 3 0;
#X connect 5 0 4 0;
#X connect 6 0 4 0;
#X connect 7 0 25 0;
#X connect 8 0 7 0;
#X connect 9 0 5 0;
#X connect 10 0 6 0;
#X connect 11 0 12 0;
#X connect 12 0 10 1;
#X connect 12 0 9 1;
#X connect 13 0 11 0;
#X connect 14 0 0 0;
#X connect 15 0 20 0;
#X connect 16 0 18 0;
#X connect 16 0 28 0;
#X connect 17 0 21 0;
#X connect 17 0 31 0;
#X connect 20 0 47 1;
#X connect 20 0 48 0;
#X connect 20 0 30 0;
#X connect 21 0 46 0;
#X connect 22 0 19 0;
#X connect 22 0 29 0;
#X connect 23 0 16 0;
#X connect 23 0 22 0;
#X connect 23 0 15 0;
#X connect 23 0 17 0;
#X connect 23 0 11 0;
#X connect 25 0 9 0;
#X connect 25 1 10 0;
#X connect 26 0 4 1;
#X connect 32 0 34 0;
#X connect 33 0 32 0;
#X connect 34 0 56 0;
#X connect 35 0 68 0;
#X connect 36 0 37 0;
#X connect 36 0 38 0;
#X connect 38 0 40 0;
#X connect 39 0 68 1;
#X connect 40 0 39 1;
#X connect 41 0 63 0;
#X connect 46 0 47 0;
#X connect 47 0 24 0;
#X connect 48 0 46 0;
#X connect 49 0 1 0;
#X connect 50 0 51 0;
#X connect 51 0 34 1;
#X connect 52 0 54 0;
#X connect 53 0 54 0;
#X connect 54 0 50 0;
#X connect 55 0 52 0;
#X connect 58 0 45 0;
#X connect 59 0 16 0;
#X connect 60 0 22 0;
#X connect 61 0 15 0;
#X connect 62 0 17 0;
#X connect 63 0 67 0;
#X connect 63 0 53 0;
#X connect 64 0 65 0;
#X connect 64 0 53 0;
#X connect 65 0 55 0;
#X connect 67 0 65 0;
#X connect 67 1 65 1;
#X connect 68 0 33 0;
#X connect 69 0 70 0;
#X connect 70 0 76 0;
#X coords 0 -1 1 1 300 180 2 100 100;
#X restore 75 225 pd set_octave;
#N canvas 529 29 450 300 delay_effect 0;
#X obj 105 120 vsl 15 32 0 1 0 1 empty empty delay 0 -9 0 10 -262144
-1 -1 1200 1;
#X obj 158 68 inlet;
#X obj 248 176 *~;
#X obj 59 68 loadbang;
#X obj 115 68 inlet~;
#X obj 189 226 outlet~;
#X obj 249 205 delwrite~ \$0-delayA 1000;
#X obj 248 124 delread~ \$0-delayA \$1;
#X msg 286 94 500;
#X obj 234 68 inlet;
#X obj 286 68 loadbang;
#X connect 0 0 2 1;
#X connect 1 0 0 0;
#X connect 2 0 5 0;
#X connect 2 0 6 0;
#X connect 3 0 0 0;
#X connect 4 0 5 0;
#X connect 4 0 6 0;
#X connect 7 0 2 0;
#X connect 8 0 7 0;
#X connect 9 0 7 0;
#X connect 10 0 8 0;
#X coords 0 -1 1 1 85 60 2 100 100;
#X restore 75 437 pd delay_effect;
#N canvas 434 197 509 293 finalout 0;
#X obj 267 140 metro 20;
#X obj 267 70 tgl 15 0 empty empty empty 17 7 0 10 -262144 -1 -1 1
1;
#X obj 326 140 r~ Wave;
#X obj 267 44 loadbang;
#X obj 267 164 tabwrite~ \$0-out;
#X msg 275 95 \; pd dsp \$1;
#X text 340 101 dsp on;
#X obj 40 75 dac~;
#X obj 70 75 s~ Wave;
#X obj 109 136 cnv 15 60 40 empty empty empty 20 12 0 14 -262144 -66577
0;
#N canvas 0 22 450 278 (subpatch) 0;
#X array \$0-out 100 float 5 black black;
#A 0 -7.25637e-10 -6.46182e-10 -4.41966e-10 -1.19933e-10 2.00586e-10
3.94404e-10 4.65089e-10 4.53804e-10 3.4508e-10 1.09245e-10 -1.76379e-10
-3.64794e-10 -4.13021e-10 -3.54867e-10 -1.98523e-10 6.87494e-11 3.80896e-10
5.83276e-10 6.13086e-10 5.21709e-10 3.44195e-10 6.31952e-11 -3.00867e-10
-6.15371e-10 -7.74281e-10 -7.88705e-10 -6.81138e-10 -4.28524e-10 -3.56007e-11
3.65189e-10 6.20651e-10 7.14614e-10 6.91162e-10 5.50588e-10 2.74705e-10
-5.89726e-11 -3.03924e-10 -4.20341e-10 -4.4856e-10 -3.88978e-10 -2.01826e-10
7.80261e-11 3.02971e-10 3.88131e-10 3.62358e-10 2.50812e-10 3.36777e-11
-2.69848e-10 -5.24297e-10 -6.17369e-10 -5.689e-10 -4.25339e-10 -1.81726e-10
1.65026e-10 5.10484e-10 7.19426e-10 7.76566e-10 7.18683e-10 5.36839e-10
2.06109e-10 -1.96217e-10 -5.06711e-10 -6.60705e-10 -6.88593e-10 -6.00519e-10
-3.74866e-10 -5.51381e-11 2.12276e-10 3.47521e-10 3.90296e-10 3.68259e-10
2.43872e-10 5.63739e-12 -2.31624e-10 -3.48997e-10 -3.48921e-10 -2.65157e-10
-8.52238e-11 1.98557e-10 4.79821e-10 6.12101e-10 5.8195e-10 4.51905e-10
2.41249e-10 -6.8461e-11 -4.19892e-10 -6.70577e-10 -7.63598e-10 -7.32919e-10
-5.88345e-10 -3.01774e-10 9.06164e-11 4.3399e-10 6.20312e-10 6.67903e-10
6.08122e-10 4.26134e-10 1.29138e-10 -1.63465e-10 -3.3287e-10;
#X coords 0 -1 99 1 60 40 1;
#X restore 110 136 graph;
#X obj 40 9 inlet~;
#X obj 82 9 inlet~;
#X text 103 102 LEFT;
#X text 146 102 RIGHT;
#X obj 194 141 vsl 15 32 0 1 0 1 empty empty empty 0 -9 0 10 -262144
-1 -1 1700 1;
#X text 193 102 VOL;
#X obj 40 41 *~;
#X connect 0 0 4 0;
#X connect 1 0 0 0;
#X connect 1 0 5 0;
#X connect 2 0 4 0;
#X connect 3 0 1 0;
#X connect 11 0 17 0;
#X connect 12 0 17 0;
#X connect 15 0 17 1;
#X connect 17 0 7 0;
#X connect 17 0 7 1;
#X connect 17 0 8 0;
#X coords 0 -1 1 1 120 80 2 100 100;
#X restore 75 527 pd finalout;
#X obj 322 418 hsl 128 15 1 8 0 1 empty empty empty -2 -8 0 10 -262144
-1 -1 3100 1;
#X obj 191 447 * 125;
#X floatatom 193 468 5 0 0 0 - - -, f 5;
#X obj 260 432 int;
#X floatatom 416 146 5 0 0 0 - - -, f 5;
#X obj 416 119 % 5;
#X obj 657 129 / 5;
#X floatatom 657 176 5 0 0 0 - - -, f 5;
#X obj 657 149 int;
#X obj 416 168 sel 0 1 2 3 4;
#X obj 657 197 + 1;
#X obj 416 95 t f f;
#X obj 416 260 + 0;
#X obj 446 260 + 0;
#X obj 476 260 + 0;
#X obj 506 260 + 0;
#X obj 536 260 + 0;
#X obj 569 236 r modulation;
#X obj 416 230 + 0;
#X obj 446 230 + 0;
#X obj 476 230 + 0;
#X obj 506 230 + 0;
#X obj 536 230 + 0;
#X obj 599 156 r Oct_A;
#X obj 599 177 * 12;
#X msg 416 197 0;
#X msg 446 197 2;
#X msg 476 197 5;
#X msg 506 197 7;
#X msg 536 197 9;
#N canvas 411 287 450 300 snd_A 0;
#X obj 87 90 mtof;
#X floatatom 87 113 5 0 0 0 - - -, f 5;
#X floatatom 111 172 5 0 0 0 - - -, f 5;
#X obj 111 239 *~;
#X obj 87 269 +~;
#X obj 111 149 * 2;
#X obj 268 316 line~;
#X obj 87 337 *~;
#X obj 146 215 line~;
#X obj 268 164 bng 15 250 50 0 empty empty empty 17 7 0 10 -262144
-1 -1;
#X obj 87 33 inlet;
#X obj 87 65 +;
#X obj 125 54 * 12;
#X obj 87 309 osc~;
#X obj 111 214 osc~;
#X obj 236 135 pack f f f f;
#X msg 165 193 \$2 \, \$3 \$4;
#X msg 318 283 0 743;
#X obj 428 126 prepend set;
#X obj 428 105 pack 0 f;
#X obj 428 81 bng 15 250 50 0 empty empty empty 17 7 0 10 -262144 -1
-1;
#X obj 338 94 /;
#X floatatom 338 116 5 0 0 0 - - -, f 5;
#X obj 327 72 bng 15 250 50 0 empty empty empty 17 7 0 10 -262144 -1
-1;
#X obj 125 33 r Oct_A;
#X obj 217 45 r para1_A;
#X obj 287 45 r para2_A;
#X obj 357 45 r para3_A;
#X obj 473 46 r Release_A;
#X obj 87 372 throw~ out_A;
#X obj 293 259 del 5;
#X msg 269 283 0.25 1;
#X connect 0 0 1 0;
#X connect 0 0 9 0;
#X connect 1 0 4 0;
#X connect 1 0 5 0;
#X connect 2 0 14 0;
#X connect 3 0 4 1;
#X connect 4 0 13 0;
#X connect 5 0 2 0;
#X connect 6 0 7 1;
#X connect 7 0 29 0;
#X connect 8 0 3 1;
#X connect 9 0 15 0;
#X connect 9 0 31 0;
#X connect 9 0 30 0;
#X connect 10 0 11 0;
#X connect 11 0 0 0;
#X connect 12 0 11 1;
#X connect 13 0 7 0;
#X connect 14 0 3 0;
#X connect 15 0 16 0;
#X connect 16 0 8 0;
#X connect 17 0 6 0;
#X connect 18 0 17 0;
#X connect 19 0 18 0;
#X connect 20 0 19 0;
#X connect 21 0 22 0;
#X connect 22 0 15 3;
#X connect 23 0 21 0;
#X connect 24 0 12 0;
#X connect 25 0 15 1;
#X connect 26 0 15 2;
#X connect 27 0 21 1;
#X connect 27 0 23 0;
#X connect 28 0 19 1;
#X connect 28 0 20 0;
#X connect 28 0 21 0;
#X connect 30 0 17 0;
#X connect 31 0 6 0;
#X restore 416 284 pd snd_A;
#N canvas 411 287 450 300 snd_A 0;
#X obj 87 90 mtof;
#X floatatom 87 113 5 0 0 0 - - -, f 5;
#X floatatom 111 172 5 0 0 0 - - -, f 5;
#X obj 111 239 *~;
#X obj 87 269 +~;
#X obj 111 149 * 2;
#X obj 268 316 line~;
#X obj 87 337 *~;
#X obj 146 215 line~;
#X obj 268 164 bng 15 250 50 0 empty empty empty 17 7 0 10 -262144
-1 -1;
#X obj 87 33 inlet;
#X obj 87 65 +;
#X obj 125 54 * 12;
#X obj 87 309 osc~;
#X obj 111 214 osc~;
#X obj 236 135 pack f f f f;
#X msg 165 193 \$2 \, \$3 \$4;
#X msg 318 283 0 743;
#X obj 428 126 prepend set;
#X obj 428 105 pack 0 f;
#X obj 428 81 bng 15 250 50 0 empty empty empty 17 7 0 10 -262144 -1
-1;
#X obj 338 94 /;
#X floatatom 338 116 5 0 0 0 - - -, f 5;
#X obj 327 72 bng 15 250 50 0 empty empty empty 17 7 0 10 -262144 -1
-1;
#X obj 125 33 r Oct_A;
#X obj 217 45 r para1_A;
#X obj 287 45 r para2_A;
#X obj 357 45 r para3_A;
#X obj 473 46 r Release_A;
#X obj 87 372 throw~ out_A;
#X obj 293 259 del 5;
#X msg 269 283 0.25 1;
#X connect 0 0 1 0;
#X connect 0 0 9 0;
#X connect 1 0 4 0;
#X connect 1 0 5 0;
#X connect 2 0 14 0;
#X connect 3 0 4 1;
#X connect 4 0 13 0;
#X connect 5 0 2 0;
#X connect 6 0 7 1;
#X connect 7 0 29 0;
#X connect 8 0 3 1;
#X connect 9 0 15 0;
#X connect 9 0 31 0;
#X connect 9 0 30 0;
#X connect 10 0 11 0;
#X connect 11 0 0 0;
#X connect 12 0 11 1;
#X connect 13 0 7 0;
#X connect 14 0 3 0;
#X connect 15 0 16 0;
#X connect 16 0 8 0;
#X connect 17 0 6 0;
#X connect 18 0 17 0;
#X connect 19 0 18 0;
#X connect 20 0 19 0;
#X connect 21 0 22 0;
#X connect 22 0 15 3;
#X connect 23 0 21 0;
#X connect 24 0 12 0;
#X connect 25 0 15 1;
#X connect 26 0 15 2;
#X connect 27 0 21 1;
#X connect 27 0 23 0;
#X connect 28 0 19 1;
#X connect 28 0 20 0;
#X connect 28 0 21 0;
#X connect 30 0 17 0;
#X connect 31 0 6 0;
#X restore 446 284 pd snd_A;
#N canvas 411 287 450 300 snd_A 0;
#X obj 87 90 mtof;
#X floatatom 87 113 5 0 0 0 - - -, f 5;
#X floatatom 111 172 5 0 0 0 - - -, f 5;
#X obj 111 239 *~;
#X obj 87 269 +~;
#X obj 111 149 * 2;
#X obj 268 316 line~;
#X obj 87 337 *~;
#X obj 146 215 line~;
#X obj 268 164 bng 15 250 50 0 empty empty empty 17 7 0 10 -262144
-1 -1;
#X obj 87 33 inlet;
#X obj 87 65 +;
#X obj 125 54 * 12;
#X obj 87 309 osc~;
#X obj 111 214 osc~;
#X obj 236 135 pack f f f f;
#X msg 165 193 \$2 \, \$3 \$4;
#X msg 318 283 0 743;
#X obj 428 126 prepend set;
#X obj 428 105 pack 0 f;
#X obj 428 81 bng 15 250 50 0 empty empty empty 17 7 0 10 -262144 -1
-1;
#X obj 338 94 /;
#X floatatom 338 116 5 0 0 0 - - -, f 5;
#X obj 327 72 bng 15 250 50 0 empty empty empty 17 7 0 10 -262144 -1
-1;
#X obj 125 33 r Oct_A;
#X obj 217 45 r para1_A;
#X obj 287 45 r para2_A;
#X obj 357 45 r para3_A;
#X obj 473 46 r Release_A;
#X obj 87 372 throw~ out_A;
#X obj 293 259 del 5;
#X msg 269 283 0.25 1;
#X connect 0 0 1 0;
#X connect 0 0 9 0;
#X connect 1 0 4 0;
#X connect 1 0 5 0;
#X connect 2 0 14 0;
#X connect 3 0 4 1;
#X connect 4 0 13 0;
#X connect 5 0 2 0;
#X connect 6 0 7 1;
#X connect 7 0 29 0;
#X connect 8 0 3 1;
#X connect 9 0 15 0;
#X connect 9 0 31 0;
#X connect 9 0 30 0;
#X connect 10 0 11 0;
#X connect 11 0 0 0;
#X connect 12 0 11 1;
#X connect 13 0 7 0;
#X connect 14 0 3 0;
#X connect 15 0 16 0;
#X connect 16 0 8 0;
#X connect 17 0 6 0;
#X connect 18 0 17 0;
#X connect 19 0 18 0;
#X connect 20 0 19 0;
#X connect 21 0 22 0;
#X connect 22 0 15 3;
#X connect 23 0 21 0;
#X connect 24 0 12 0;
#X connect 25 0 15 1;
#X connect 26 0 15 2;
#X connect 27 0 21 1;
#X connect 27 0 23 0;
#X connect 28 0 19 1;
#X connect 28 0 20 0;
#X connect 28 0 21 0;
#X connect 30 0 17 0;
#X connect 31 0 6 0;
#X restore 476 284 pd snd_A;
#N canvas 411 287 450 300 snd_A 0;
#X obj 87 90 mtof;
#X floatatom 87 113 5 0 0 0 - - -, f 5;
#X floatatom 111 172 5 0 0 0 - - -, f 5;
#X obj 111 239 *~;
#X obj 87 269 +~;
#X obj 111 149 * 2;
#X obj 268 316 line~;
#X obj 87 337 *~;
#X obj 146 215 line~;
#X obj 268 164 bng 15 250 50 0 empty empty empty 17 7 0 10 -262144
-1 -1;
#X obj 87 33 inlet;
#X obj 87 65 +;
#X obj 125 54 * 12;
#X obj 87 309 osc~;
#X obj 111 214 osc~;
#X obj 236 135 pack f f f f;
#X msg 165 193 \$2 \, \$3 \$4;
#X msg 318 283 0 743;
#X obj 428 126 prepend set;
#X obj 428 105 pack 0 f;
#X obj 428 81 bng 15 250 50 0 empty empty empty 17 7 0 10 -262144 -1
-1;
#X obj 338 94 /;
#X floatatom 338 116 5 0 0 0 - - -, f 5;
#X obj 327 72 bng 15 250 50 0 empty empty empty 17 7 0 10 -262144 -1
-1;
#X obj 125 33 r Oct_A;
#X obj 217 45 r para1_A;
#X obj 287 45 r para2_A;
#X obj 357 45 r para3_A;
#X obj 473 46 r Release_A;
#X obj 87 372 throw~ out_A;
#X obj 293 259 del 5;
#X msg 269 283 0.25 1;
#X connect 0 0 1 0;
#X connect 0 0 9 0;
#X connect 1 0 4 0;
#X connect 1 0 5 0;
#X connect 2 0 14 0;
#X connect 3 0 4 1;
#X connect 4 0 13 0;
#X connect 5 0 2 0;
#X connect 6 0 7 1;
#X connect 7 0 29 0;
#X connect 8 0 3 1;
#X connect 9 0 15 0;
#X connect 9 0 31 0;
#X connect 9 0 30 0;
#X connect 10 0 11 0;
#X connect 11 0 0 0;
#X connect 12 0 11 1;
#X connect 13 0 7 0;
#X connect 14 0 3 0;
#X connect 15 0 16 0;
#X connect 16 0 8 0;
#X connect 17 0 6 0;
#X connect 18 0 17 0;
#X connect 19 0 18 0;
#X connect 20 0 19 0;
#X connect 21 0 22 0;
#X connect 22 0 15 3;
#X connect 23 0 21 0;
#X connect 24 0 12 0;
#X connect 25 0 15 1;
#X connect 26 0 15 2;
#X connect 27 0 21 1;
#X connect 27 0 23 0;
#X connect 28 0 19 1;
#X connect 28 0 20 0;
#X connect 28 0 21 0;
#X connect 30 0 17 0;
#X connect 31 0 6 0;
#X restore 506 284 pd snd_A;
#N canvas 411 287 450 300 snd_A 0;
#X obj 87 90 mtof;
#X floatatom 87 113 5 0 0 0 - - -, f 5;
#X floatatom 111 172 5 0 0 0 - - -, f 5;
#X obj 111 239 *~;
#X obj 87 269 +~;
#X obj 111 149 * 2;
#X obj 268 316 line~;
#X obj 87 337 *~;
#X obj 146 215 line~;
#X obj 268 164 bng 15 250 50 0 empty empty empty 17 7 0 10 -262144
-1 -1;
#X obj 87 33 inlet;
#X obj 87 65 +;
#X obj 125 54 * 12;
#X obj 87 309 osc~;
#X obj 111 214 osc~;
#X obj 236 135 pack f f f f;
#X msg 165 193 \$2 \, \$3 \$4;
#X msg 318 283 0 743;
#X obj 428 126 prepend set;
#X obj 428 105 pack 0 f;
#X obj 428 81 bng 15 250 50 0 empty empty empty 17 7 0 10 -262144 -1
-1;
#X obj 338 94 /;
#X floatatom 338 116 5 0 0 0 - - -, f 5;
#X obj 327 72 bng 15 250 50 0 empty empty empty 17 7 0 10 -262144 -1
-1;
#X obj 125 33 r Oct_A;
#X obj 217 45 r para1_A;
#X obj 287 45 r para2_A;
#X obj 357 45 r para3_A;
#X obj 473 46 r Release_A;
#X obj 87 372 throw~ out_A;
#X obj 293 259 del 5;
#X msg 269 283 0.25 1;
#X connect 0 0 1 0;
#X connect 0 0 9 0;
#X connect 1 0 4 0;
#X connect 1 0 5 0;
#X connect 2 0 14 0;
#X connect 3 0 4 1;
#X connect 4 0 13 0;
#X connect 5 0 2 0;
#X connect 6 0 7 1;
#X connect 7 0 29 0;
#X connect 8 0 3 1;
#X connect 9 0 15 0;
#X connect 9 0 31 0;
#X connect 9 0 30 0;
#X connect 10 0 11 0;
#X connect 11 0 0 0;
#X connect 12 0 11 1;
#X connect 13 0 7 0;
#X connect 14 0 3 0;
#X connect 15 0 16 0;
#X connect 16 0 8 0;
#X connect 17 0 6 0;
#X connect 18 0 17 0;
#X connect 19 0 18 0;
#X connect 20 0 19 0;
#X connect 21 0 22 0;
#X connect 22 0 15 3;
#X connect 23 0 21 0;
#X connect 24 0 12 0;
#X connect 25 0 15 1;
#X connect 26 0 15 2;
#X connect 27 0 21 1;
#X connect 27 0 23 0;
#X connect 28 0 19 1;
#X connect 28 0 20 0;
#X connect 28 0 21 0;
#X connect 30 0 17 0;
#X connect 31 0 6 0;
#X restore 536 284 pd snd_A;
#X floatatom 134 64 9 0 0 0 - - -, f 9;
#X obj 43 15 osc-rcv 4002 channel0;
#X floatatom 194 64 9 0 0 0 - - -, f 9;
#X floatatom 257 64 9 0 0 0 - - -, f 9;
#X obj 133 173 / 64;
#X floatatom 33 64 5 0 0 0 - - -, f 5;
#X obj 389 73 sel 0;
#X obj 330 59 *, f 1;
#X obj 193 147 * 10;
#X floatatom 73 64 5 0 0 0 - - -, f 5;
#X obj 133 83 vsl 30 80 0 1023 0 0 empty empty empty 0 -9 0 10 -20455
-1 -1 4873 1;
#X connect 0 0 1 0;
#X connect 1 0 2 0;
#X connect 1 0 2 1;
#X connect 3 0 6 0;
#X connect 4 0 5 0;
#X connect 5 0 1 2;
#X connect 6 0 4 0;
#X connect 7 0 12 0;
#X connect 8 0 7 0;
#X connect 9 0 11 0;
#X connect 10 0 13 0;
#X connect 11 0 10 0;
#X connect 12 0 28 0;
#X connect 12 1 29 0;
#X connect 12 2 30 0;
#X connect 12 3 31 0;
#X connect 12 4 32 0;
#X connect 14 0 8 0;
#X connect 14 1 9 0;
#X connect 15 0 33 0;
#X connect 16 0 34 0;
#X connect 17 0 35 0;
#X connect 18 0 36 0;
#X connect 19 0 37 0;
#X connect 20 0 19 1;
#X connect 20 0 18 1;
#X connect 20 0 17 1;
#X connect 20 0 16 1;
#X connect 20 0 15 1;
#X connect 21 0 15 0;
#X connect 22 0 16 0;
#X connect 23 0 17 0;
#X connect 24 0 18 0;
#X connect 25 0 19 0;
#X connect 26 0 27 0;
#X connect 27 0 25 1;
#X connect 27 0 24 1;
#X connect 27 0 23 1;
#X connect 27 0 22 1;
#X connect 27 0 21 1;
#X connect 28 0 21 0;
#X connect 29 0 22 0;
#X connect 30 0 23 0;
#X connect 31 0 24 0;
#X connect 32 0 25 0;
#X connect 38 0 48 0;
#X connect 39 0 43 0;
#X connect 39 1 47 0;
#X connect 39 2 38 0;
#X connect 39 3 41 0;
#X connect 39 4 40 0;
#X connect 40 0 46 0;
#X connect 41 0 0 5;
#X connect 42 0 45 0;
#X connect 43 0 45 1;
#X connect 44 1 14 0;
#X connect 45 0 44 0;
#X connect 46 0 0 2;
#X connect 47 0 0 0;
#X connect 48 0 42 0;
