#N canvas 537 341 262 230 10;
#X msg 153 22 1 1000;
#X msg 71 22 0 1000;
#X obj 71 -6 inlet;
#X obj 153 -7 inlet;
#X obj 74 56 line~ 0 10;
#X obj 74 105 outlet~;
#X connect 0 0 4 0;
#X connect 1 0 4 0;
#X connect 2 0 1 0;
#X connect 3 0 0 0;
#X connect 4 0 5 0;
