#N canvas 67 23 1184 530 10;
#X floatatom 40 192 5 0 0 0 - - -;
#X floatatom 40 128 5 0 0 0 - - -;
#X floatatom 90 128 5 0 0 0 - - -;
#X floatatom 140 128 5 0 0 0 - - -;
#X floatatom 190 128 5 0 0 0 - - -;
#X floatatom 240 128 5 0 0 0 - - -;
#X floatatom 290 128 5 0 0 0 - - -;
#X msg 90 56 1;
#X msg 140 56 2;
#X msg 190 56 3;
#X msg 240 56 4;
#X obj 40 86 tabread onkai_1;
#X obj 90 106 tabread onkai_1;
#X obj 190 106 tabread onkai_1;
#X obj 140 86 tabread onkai_1;
#X obj 240 86 tabread onkai_1;
#X obj 290 106 tabread onkai_1;
#X floatatom 340 128 5 0 0 0 - - -;
#X floatatom 390 128 5 0 0 0 - - -;
#X floatatom 440 128 5 0 0 0 - - -;
#X floatatom 490 128 5 0 0 0 - - -;
#X floatatom 540 128 5 0 0 0 - - -;
#X floatatom 589 128 5 0 0 0 - - -;
#X obj 340 86 tabread onkai_1;
#X obj 390 106 tabread onkai_1;
#X obj 490 106 tabread onkai_1;
#X obj 440 86 tabread onkai_1;
#X obj 540 86 tabread onkai_1;
#X obj 589 106 tabread onkai_1;
#X msg 340 56 6;
#X msg 390 56 7;
#X msg 440 56 8;
#X msg 490 56 9;
#X msg 540 56 10;
#X msg 589 56 11;
#X msg 290 56 5;
#X obj 40 371 mathrax_soundout;
#X floatatom 90 192 5 0 0 0 - - -;
#X floatatom 140 192 5 0 0 0 - - -;
#X floatatom 190 192 5 0 0 0 - - -;
#X floatatom 240 192 5 0 0 0 - - -;
#X floatatom 290 192 5 0 0 0 - - -;
#X floatatom 340 192 5 0 0 0 - - -;
#X floatatom 390 192 5 0 0 0 - - -;
#X floatatom 440 192 5 0 0 0 - - -;
#X floatatom 490 192 5 0 0 0 - - -;
#X floatatom 540 192 5 0 0 0 - - -;
#X floatatom 590 192 5 0 0 0 - - -;
#X obj 240 277 /~ 1;
#X obj 290 277 /~ 1;
#X obj 340 277 /~ 1;
#X obj 390 277 /~ 1;
#X obj 440 277 /~ 1;
#X obj 490 277 /~ 1;
#X obj 540 277 /~ 1;
#X obj 590 277 /~ 1;
#X obj 190 277 /~ 1;
#X obj 140 277 /~ 1;
#X obj 90 277 /~ 1;
#X obj 40 277 /~ 1;
#X msg 40 56 0;
#X floatatom 640 128 5 0 0 0 - - -;
#X floatatom 689 128 5 0 0 0 - - -;
#X obj 640 86 tabread onkai_1;
#X obj 689 106 tabread onkai_1;
#X floatatom 640 192 5 0 0 0 - - -;
#X floatatom 690 192 5 0 0 0 - - -;
#X obj 640 277 /~ 1;
#X obj 690 277 /~ 1;
#X msg 640 56 12;
#X msg 689 56 13;
#X obj 40 169 - 0;
#X obj 90 169 - 0;
#X obj 140 169 - 0;
#X obj 190 169 - 0;
#X obj 240 169 - 0;
#X obj 290 169 - 0;
#X obj 340 169 - 0;
#X obj 390 169 - 0;
#X obj 440 169 - 0;
#X obj 490 169 - 0;
#X obj 540 169 - 0;
#X obj 590 169 - 0;
#X obj 640 169 - 0;
#X obj 690 169 - 0;
#X obj 711 149 r offset_tenji;
#X obj 711 249 r volume_tenji;
#X obj 40 33 r k0;
#X obj 90 33 r k1;
#X obj 140 33 r k2;
#X obj 190 33 r k3;
#X obj 240 33 r k4;
#X obj 290 33 r k5;
#X obj 340 33 r k6;
#X obj 390 33 r k7;
#X obj 440 33 r k8;
#X obj 490 33 r k9;
#X obj 540 33 r k10;
#X obj 590 33 r k11;
#X obj 640 33 r k12;
#X obj 690 33 r k13;
#X obj 40 212 Orgel;
#X obj 90 212 Orgel;
#X obj 141 212 Orgel;
#X obj 190 213 Orgel;
#X obj 240 212 Orgel;
#X obj 290 212 Orgel;
#X obj 340 212 Orgel;
#X obj 390 212 Orgel;
#X obj 440 212 Orgel;
#X obj 490 212 Orgel;
#X obj 540 212 Orgel;
#X obj 590 212 Orgel;
#X obj 640 212 Orgel;
#X obj 690 212 Orgel;
#X connect 0 0 101 0;
#X connect 1 0 71 0;
#X connect 2 0 72 0;
#X connect 3 0 73 0;
#X connect 4 0 74 0;
#X connect 5 0 75 0;
#X connect 6 0 76 0;
#X connect 7 0 12 0;
#X connect 8 0 14 0;
#X connect 9 0 13 0;
#X connect 10 0 15 0;
#X connect 11 0 1 0;
#X connect 12 0 2 0;
#X connect 13 0 4 0;
#X connect 14 0 3 0;
#X connect 15 0 5 0;
#X connect 16 0 6 0;
#X connect 17 0 77 0;
#X connect 18 0 78 0;
#X connect 19 0 79 0;
#X connect 20 0 80 0;
#X connect 21 0 81 0;
#X connect 22 0 82 0;
#X connect 23 0 17 0;
#X connect 24 0 18 0;
#X connect 25 0 20 0;
#X connect 26 0 19 0;
#X connect 27 0 21 0;
#X connect 28 0 22 0;
#X connect 29 0 23 0;
#X connect 30 0 24 0;
#X connect 31 0 26 0;
#X connect 32 0 25 0;
#X connect 33 0 27 0;
#X connect 34 0 28 0;
#X connect 35 0 16 0;
#X connect 37 0 102 0;
#X connect 38 0 103 0;
#X connect 39 0 104 0;
#X connect 40 0 105 0;
#X connect 41 0 106 0;
#X connect 42 0 107 0;
#X connect 43 0 108 0;
#X connect 44 0 109 0;
#X connect 45 0 110 0;
#X connect 46 0 111 0;
#X connect 47 0 112 0;
#X connect 48 0 36 0;
#X connect 49 0 36 0;
#X connect 50 0 36 0;
#X connect 51 0 36 0;
#X connect 52 0 36 0;
#X connect 53 0 36 0;
#X connect 54 0 36 0;
#X connect 55 0 36 0;
#X connect 56 0 36 0;
#X connect 57 0 36 0;
#X connect 58 0 36 0;
#X connect 59 0 36 0;
#X connect 60 0 11 0;
#X connect 61 0 83 0;
#X connect 62 0 84 0;
#X connect 63 0 61 0;
#X connect 64 0 62 0;
#X connect 65 0 113 0;
#X connect 66 0 114 0;
#X connect 67 0 36 0;
#X connect 68 0 36 0;
#X connect 69 0 63 0;
#X connect 70 0 64 0;
#X connect 71 0 0 0;
#X connect 72 0 37 0;
#X connect 73 0 38 0;
#X connect 74 0 39 0;
#X connect 75 0 40 0;
#X connect 76 0 41 0;
#X connect 77 0 42 0;
#X connect 78 0 43 0;
#X connect 79 0 44 0;
#X connect 80 0 45 0;
#X connect 81 0 46 0;
#X connect 82 0 47 0;
#X connect 83 0 65 0;
#X connect 84 0 66 0;
#X connect 85 0 84 1;
#X connect 85 0 83 1;
#X connect 85 0 82 1;
#X connect 85 0 81 1;
#X connect 85 0 80 1;
#X connect 85 0 79 1;
#X connect 85 0 78 1;
#X connect 85 0 77 1;
#X connect 85 0 76 1;
#X connect 85 0 75 1;
#X connect 85 0 74 1;
#X connect 85 0 73 1;
#X connect 85 0 72 1;
#X connect 85 0 71 1;
#X connect 86 0 59 1;
#X connect 86 0 68 1;
#X connect 86 0 67 1;
#X connect 86 0 55 1;
#X connect 86 0 54 1;
#X connect 86 0 53 1;
#X connect 86 0 52 1;
#X connect 86 0 51 1;
#X connect 86 0 50 1;
#X connect 86 0 49 1;
#X connect 86 0 48 1;
#X connect 86 0 56 1;
#X connect 86 0 57 1;
#X connect 86 0 58 1;
#X connect 87 0 60 0;
#X connect 88 0 7 0;
#X connect 89 0 8 0;
#X connect 90 0 9 0;
#X connect 91 0 10 0;
#X connect 92 0 35 0;
#X connect 93 0 29 0;
#X connect 94 0 30 0;
#X connect 95 0 31 0;
#X connect 96 0 32 0;
#X connect 97 0 33 0;
#X connect 98 0 34 0;
#X connect 99 0 69 0;
#X connect 100 0 70 0;
#X connect 101 0 59 0;
#X connect 102 0 58 0;
#X connect 103 0 57 0;
#X connect 104 0 56 0;
#X connect 105 0 48 0;
#X connect 106 0 49 0;
#X connect 107 0 50 0;
#X connect 108 0 51 0;
#X connect 109 0 52 0;
#X connect 110 0 53 0;
#X connect 111 0 54 0;
#X connect 112 0 55 0;
#X connect 113 0 67 0;
#X connect 114 0 68 0;
