#N canvas 29 240 832 679 10;
#X obj 228 640 dac~;
#N canvas 529 29 450 300 delay_effect 0;
#X obj 105 120 vsl 15 32 0 1 0 1 empty empty delay 0 -9 0 10 -262144
-1 -1 1500 1;
#X obj 158 68 inlet;
#X obj 248 176 *~;
#X obj 59 68 loadbang;
#X obj 115 68 inlet~;
#X obj 189 226 outlet~;
#X obj 249 205 delwrite~ \$0-delayA 1000;
#X obj 248 124 delread~ \$0-delayA \$1;
#X msg 286 94 500;
#X obj 234 68 inlet;
#X obj 286 68 loadbang;
#X connect 0 0 2 1;
#X connect 1 0 0 0;
#X connect 2 0 5 0;
#X connect 2 0 6 0;
#X connect 3 0 0 0;
#X connect 4 0 5 0;
#X connect 4 0 6 0;
#X connect 7 0 2 0;
#X connect 8 0 7 0;
#X connect 9 0 7 0;
#X connect 10 0 8 0;
#X coords 0 -1 1 1 85 60 2 100 100;
#X restore 242 529 pd delay_effect;
#X obj 149 236 line, f 6;
#X obj 240 437 *~;
#X obj 270 413 line~;
#X obj 271 268 bng 15 250 50 0 empty empty empty 17 7 0 10 -262144
-1 -1;
#X obj 240 272 mtof;
#X msg 270 361 1 1;
#X obj 347 411 line~;
#X obj 348 266 bng 15 250 50 0 empty empty empty 17 7 0 10 -262144
-1 -1;
#X obj 380 358 del 4;
#X floatatom 239 298 5 0 0 0 - - -, f 5;
#X obj 240 216 t f b;
#X obj 303 360 del 2;
#X msg 303 381 0 50;
#X msg 380 379 0 20;
#X obj 240 324 osc~;
#X obj 204 174 vsl 15 128 0 127 0 0 empty empty empty 0 -9 0 10 -262144
-1 -1 4500 1;
#X msg 110 154 50 1;
#X obj 160 173 del 1;
#X msg 349 360 1 1;
#X obj 118 63 tgl 15 0 empty empty empty 17 7 0 10 -262144 -1 -1 1
1;
#X msg 148 209 45 10;
#X obj 118 83 metro 2000;
#X obj 224 489 *~;
#X obj 182 461 osc~ 3;
#X connect 1 0 0 0;
#X connect 1 0 0 1;
#X connect 2 0 17 0;
#X connect 3 0 24 1;
#X connect 4 0 3 1;
#X connect 5 0 7 0;
#X connect 5 0 13 0;
#X connect 6 0 11 0;
#X connect 7 0 4 0;
#X connect 8 0 3 1;
#X connect 9 0 20 0;
#X connect 9 0 10 0;
#X connect 10 0 15 0;
#X connect 11 0 16 0;
#X connect 12 0 6 0;
#X connect 12 1 5 0;
#X connect 12 1 9 0;
#X connect 13 0 14 0;
#X connect 14 0 4 0;
#X connect 15 0 8 0;
#X connect 16 0 3 0;
#X connect 17 0 12 0;
#X connect 18 0 2 0;
#X connect 18 0 19 0;
#X connect 19 0 22 0;
#X connect 20 0 8 0;
#X connect 21 0 23 0;
#X connect 22 0 2 0;
#X connect 23 0 18 0;
#X connect 24 0 1 0;
#X connect 25 0 24 0;
