#N canvas 40 53 653 565 10;
#X declare -stdpath extra/list-abs -stdpath extra/moocow -stdpath extra/zexy
;
#X declare -stdpath extra/mrpeach;
#X obj 19 -20 loadbang;
#X obj 19 7 del 500;
#X msg 19 34 \; pd dsp 1;
#X obj 19 81 s StartReset;
#X obj 19 150 hsl 64 15 1 48 0 0 empty empty empty -2 -8 0 10 -257985
-1 -1 670 1;
#X floatatom 16 169 5 0 0 0 - - -;
#X obj 16 108 r StartReset;
#X obj 99 150 hsl 64 15 1 48 0 0 empty empty empty -2 -8 0 10 -4032
-1 -1 402 1;
#X floatatom 96 169 5 0 0 0 - - -;
#X obj 96 108 r StartReset;
#X obj 96 205 s volume_kuma;
#X obj 16 205 s volume_tenji;
#X obj 193 255 t a a;
#X obj 193 278 list;
#X obj 193 227 csv_file;
#X msg 193 206 read data/tenji.txt;
#X msg 250 227 rewind;
#X obj 193 136 tgl 15 0 empty empty empty 17 7 0 10 -262144 -1 -1 0
1;
#X obj 193 305 packel 1 2 3 4;
#X floatatom 193 337 5 0 0 0 - - -;
#X obj 193 373 m_send;
#X floatatom 232 337 5 0 0 0 - - -;
#X floatatom 277 337 5 0 0 0 - - -;
#X floatatom 319 336 5 0 0 0 - - -;
#X obj 193 183 r StartReset;
#X obj 276 133 bng 15 250 50 0 empty empty empty 17 7 0 10 -262144
-1 -1;
#X obj 240 373 m_send;
#X obj 285 373 m_send;
#X obj 327 372 m_send;
#X obj 88 -14 m_key;
#X obj 99 270 hsl 64 15 1 48 0 0 empty empty empty -2 -8 0 10 -4032
-1 -1 0 1;
#X floatatom 96 289 5 0 0 0 - - -;
#X obj 96 228 r StartReset;
#X obj 96 325 s offset_kuma;
#X obj 19 270 hsl 64 15 1 48 0 0 empty empty empty -2 -8 0 10 -4032
-1 -1 1609 1;
#X floatatom 16 289 5 0 0 0 - - -;
#X obj 16 228 r StartReset;
#X obj 16 325 s offset_tenji;
#X msg 96 129 4;
#X obj 88 6 m_receiveOSC;
#X obj 276 12 udpreceive 3001;
#X obj 276 37 unpackOSC;
#X obj 276 62 routeOSC /bang;
#X obj 276 112 sel 1;
#X obj 424 329 sendOSC;
#X obj 424 279 r StartReset;
#X msg 507 255 0;
#X msg 537 255 1;
#X msg 507 278 send /sound \$1;
#X msg 424 304 connect localhost 4000;
#X obj 538 231 bng 15 250 50 0 empty empty empty 17 7 0 10 -262144
-1 -1;
#X obj 500 231 bng 15 250 50 0 empty empty empty 17 7 0 10 -262144
-1 -1;
#X obj 17 375 m_kuma_sounds;
#X obj 17 355 m_tenji_sounds;
#X msg 16 129 6;
#X obj 276 87 unpack f;
#X obj 538 209 r SEND1;
#X msg 16 249 13;
#X obj 193 160 metro 1000;
#X msg 96 249 1;
#X connect 0 0 1 0;
#X connect 1 0 2 0;
#X connect 1 0 3 0;
#X connect 4 0 5 0;
#X connect 5 0 11 0;
#X connect 6 0 54 0;
#X connect 7 0 8 0;
#X connect 8 0 10 0;
#X connect 9 0 38 0;
#X connect 12 0 13 0;
#X connect 13 0 18 0;
#X connect 14 0 12 0;
#X connect 14 2 16 0;
#X connect 15 0 14 0;
#X connect 16 0 14 0;
#X connect 17 0 58 0;
#X connect 18 0 19 0;
#X connect 18 1 21 0;
#X connect 18 2 22 0;
#X connect 18 3 23 0;
#X connect 19 0 20 0;
#X connect 21 0 26 0;
#X connect 22 0 27 0;
#X connect 23 0 28 0;
#X connect 24 0 15 0;
#X connect 24 0 16 0;
#X connect 25 0 14 0;
#X connect 30 0 31 0;
#X connect 31 0 33 0;
#X connect 32 0 59 0;
#X connect 34 0 35 0;
#X connect 35 0 37 0;
#X connect 36 0 57 0;
#X connect 38 0 7 0;
#X connect 40 0 41 0;
#X connect 41 0 42 0;
#X connect 42 0 55 0;
#X connect 43 0 25 0;
#X connect 45 0 49 0;
#X connect 46 0 48 0;
#X connect 47 0 48 0;
#X connect 48 0 44 0;
#X connect 49 0 44 0;
#X connect 50 0 47 0;
#X connect 51 0 46 0;
#X connect 54 0 4 0;
#X connect 55 0 43 0;
#X connect 56 0 50 0;
#X connect 57 0 34 0;
#X connect 58 0 14 0;
#X connect 59 0 30 0;
