#N canvas 0 28 546 295 10;
#X obj 47 82 unpack i;
#X obj 47 150 int;
#X obj 47 124 / 10;
#X obj 43 248 s touch;
#X obj 248 21 r touch;
#X obj 370 105 s o1;
#X obj 402 105 s o2;
#X obj 435 105 s o3;
#X obj 370 51 sel 50 51 52;
#X floatatom 43 229 5 0 0 0 - - -;
#X floatatom 264 105 5 0 0 0 - - -;
#X obj 47 104 expr if($i1>0 \, 60-$i1 \, 0) \;;
#X obj 248 125 sel 0 1 2 3 4 5 6 7 8 9 10 11 12 13;
#X floatatom 11 104 5 0 0 0 - - -;
#X obj 47 176 + 4;
#X obj 219 150 s u0;
#X obj 250 150 s u1;
#X obj 281 150 s u2;
#X obj 312 150 s u3;
#X obj 343 150 s u4;
#X obj 374 150 s u5;
#X obj 229 180 s u6;
#X obj 260 180 s u7;
#X obj 291 180 s u8;
#X obj 322 180 s u9;
#X obj 353 180 s u10;
#X obj 389 180 s u11;
#X obj 424 180 s u12;
#X obj 459 180 s u13;
#X obj 47 199 route 4;
#X obj 47 62 routeOSC /pd;
#X obj 47 21 udpreceive 3000;
#X obj 47 42 unpackOSC;
#X obj 96 248 s SEND1;
#X connect 0 0 11 0;
#X connect 0 0 13 0;
#X connect 1 0 14 0;
#X connect 2 0 1 0;
#X connect 4 0 8 0;
#X connect 4 0 10 0;
#X connect 4 0 12 0;
#X connect 8 0 5 0;
#X connect 8 1 6 0;
#X connect 8 2 7 0;
#X connect 9 0 3 0;
#X connect 11 0 2 0;
#X connect 12 0 15 0;
#X connect 12 1 16 0;
#X connect 12 2 17 0;
#X connect 12 3 18 0;
#X connect 12 4 19 0;
#X connect 12 5 20 0;
#X connect 12 6 21 0;
#X connect 12 7 22 0;
#X connect 12 8 23 0;
#X connect 12 9 24 0;
#X connect 12 10 25 0;
#X connect 12 11 26 0;
#X connect 12 12 27 0;
#X connect 12 13 28 0;
#X connect 14 0 29 0;
#X connect 29 1 9 0;
#X connect 29 1 33 0;
#X connect 30 0 0 0;
#X connect 31 0 32 0;
#X connect 32 0 30 0;
