#N canvas 0 29 770 606 10;
#X obj 73 136 freeverb~;
#X msg 86 106 wet 0.8 \, roomsize 0.8 \, dry 0.5;
#X obj 86 84 r StartReset;
#X msg 145 136 wet \$1 \, roomsize \$1;
#X obj 185 161 lop~ 16000;
#X obj 51 31 inlet~;
#X obj 174 297 dac~;
#X obj 185 211 hip~ 5;
#X obj 185 185 bp~ 3000 3;
#X connect 0 0 4 0;
#X connect 1 0 0 0;
#X connect 2 0 1 0;
#X connect 3 0 0 0;
#X connect 4 0 8 0;
#X connect 5 0 0 0;
#X connect 7 0 6 0;
#X connect 7 0 6 1;
#X connect 8 0 7 0;
