#N canvas 242 233 258 270 10;
#X obj 36 18 inlet;
#X obj 36 191 *~;
#X obj 36 41 t f b;
#X obj 36 68 mtof;
#X obj 36 221 outlet~;
#X obj 80 163 line~;
#X obj 80 69 bng 15 250 50 0 empty empty empty 17 7 0 10 -262144 -1
-1;
#X obj 36 90 osc~;
#X msg 80 100 1 5;
#X msg 126 120 0 2000;
#X obj 126 100 del 10;
#X connect 0 0 2 0;
#X connect 1 0 4 0;
#X connect 2 0 3 0;
#X connect 2 1 6 0;
#X connect 3 0 7 0;
#X connect 5 0 1 1;
#X connect 6 0 8 0;
#X connect 6 0 10 0;
#X connect 7 0 1 0;
#X connect 8 0 5 0;
#X connect 9 0 5 0;
#X connect 10 0 9 0;
