#N canvas 200 185 782 404 10;
#X obj 14 39 loadbang;
#X obj 14 66 del 500;
#X msg 14 93 \; pd dsp 1;
#X obj 14 140 s StartReset;
#X obj 97 85 hsl 64 15 1 12 0 0 empty empty empty -2 -8 0 10 -3136
-262144 -4160 0 1;
#X floatatom 94 104 5 0 0 0 - - -, f 5;
#X obj 94 140 s volume;
#X obj 94 43 r StartReset;
#X text 13 13 Stone's Voice;
#X obj 129 261 m_key;
#X obj 177 43 m_receiveOSC;
#X obj 259 65 tgl 15 0 empty empty empty 17 7 0 10 -262144 -1 -1 0
1;
#X floatatom 259 151 5 0 0 0 - - -, f 5;
#X obj 259 125 counter 0 1 4;
#X obj 259 98 metro 150;
#X obj 250 184 sel 1 2 3 4;
#X obj 259 28 r StartReset;
#X floatatom 386 52 5 0 0 0 - - -, f 5;
#X obj 422 52 sel 1;
#X obj 338 151 bng 15 250 50 0 empty empty empty 17 7 0 10 -262144
-1 -1;
#X obj 454 77 bng 15 250 50 0 empty empty empty 17 7 0 10 -262144 -1
-1;
#X obj 422 77 bng 15 250 50 0 empty empty empty 17 7 0 10 -262144 -1
-1;
#X obj 226 212 s k9;
#X obj 256 212 s k10;
#X obj 286 212 s k11;
#X obj 316 212 s k12;
#X obj 31 262 m_kuma_key;
#X obj 475 105 s cross1;
#X obj 415 105 s cross0;
#X floatatom 560 51 5 0 0 0 - - -, f 5;
#X obj 596 51 sel 1;
#X obj 628 77 bng 15 250 50 0 empty empty empty 17 7 0 10 -262144 -1
-1;
#X obj 596 77 bng 15 250 50 0 empty empty empty 17 7 0 10 -262144 -1
-1;
#X obj 656 104 s cross1;
#X obj 596 104 s cross0;
#X text 130 238 sensor;
#X text 30 238 keyboard;
#X obj 596 126 r cross0;
#X obj 596 153 bng 15 250 50 0 empty empty empty 17 7 0 10 -262144
-1 -1;
#X obj 656 153 bng 15 250 50 0 empty empty empty 17 7 0 10 -262144
-1 -1;
#X obj 656 126 r cross1;
#X text 593 168 'a' key;
#X text 648 168 's' key;
#X obj 415 127 m_sound0;
#X obj 475 127 m_sound1;
#X msg 94 64 0.5;
#X obj 232 315 OSC/osc_test;
#X obj 386 28 OSC/rcv_data 40001 sound;
#X obj 560 28 OSC/rcv_data 40002 sound;
#X connect 0 0 1 0;
#X connect 1 0 2 0;
#X connect 1 0 3 0;
#X connect 4 0 5 0;
#X connect 5 0 6 0;
#X connect 7 0 45 0;
#X connect 11 0 14 0;
#X connect 12 0 15 0;
#X connect 13 0 12 0;
#X connect 13 3 19 0;
#X connect 14 0 13 0;
#X connect 15 0 22 0;
#X connect 15 1 23 0;
#X connect 15 2 24 0;
#X connect 15 3 25 0;
#X connect 16 0 13 2;
#X connect 16 0 11 0;
#X connect 16 0 21 0;
#X connect 18 0 21 0;
#X connect 18 1 20 0;
#X connect 19 0 11 0;
#X connect 20 0 27 0;
#X connect 21 0 28 0;
#X connect 30 0 32 0;
#X connect 30 1 31 0;
#X connect 31 0 33 0;
#X connect 32 0 34 0;
#X connect 37 0 38 0;
#X connect 40 0 39 0;
#X connect 45 0 4 0;
#X connect 47 0 18 0;
#X connect 47 0 17 0;
#X connect 48 0 29 0;
#X connect 48 0 30 0;
