#N canvas 203 36 782 404 10;
#X obj 14 39 loadbang;
#X obj 14 66 del 500;
#X msg 14 93 \; pd dsp 1;
#X obj 14 140 s StartReset;
#X obj 97 85 hsl 64 15 1 12 0 0 empty empty empty -2 -8 0 10 -3136
-262144 -4160 1145 1;
#X floatatom 94 104 5 0 0 0 - - -, f 5;
#X obj 94 140 s volume;
#X obj 94 43 r StartReset;
#X text 13 13 Stone's Voice;
#X obj 129 261 m_key;
#X obj 177 43 m_receiveOSC;
#X obj 259 65 tgl 15 0 empty empty empty 17 7 0 10 -262144 -1 -1 0
1;
#X floatatom 259 151 5 0 0 0 - - -, f 5;
#X obj 259 125 counter 0 1 4;
#X obj 259 98 metro 150;
#X obj 250 184 sel 1 2 3 4;
#X obj 259 28 r StartReset;
#X floatatom 386 52 5 0 0 0 - - -, f 5;
#X obj 422 52 sel 1;
#X obj 338 151 bng 15 250 50 0 empty empty empty 17 7 0 10 -262144
-1 -1;
#X obj 454 77 bng 15 250 50 0 empty empty empty 17 7 0 10 -262144 -1
-1;
#X obj 422 77 bng 15 250 50 0 empty empty empty 17 7 0 10 -262144 -1
-1;
#X obj 226 212 s k9;
#X obj 256 212 s k10;
#X obj 286 212 s k11;
#X obj 316 212 s k12;
#X obj 31 262 m_kuma_key;
#X obj 475 105 s cross1;
#X obj 415 105 s cross0;
#X floatatom 560 51 5 0 0 0 - - -, f 5;
#X obj 596 51 sel 1;
#X obj 628 77 bng 15 250 50 0 empty empty empty 17 7 0 10 -262144 -1
-1;
#X obj 596 77 bng 15 250 50 0 empty empty empty 17 7 0 10 -262144 -1
-1;
#X obj 656 104 s cross1;
#X obj 596 104 s cross0;
#X text 130 238 sensor;
#X text 30 238 keyboard;
#X obj 596 126 r cross0;
#X obj 596 153 bng 15 250 50 0 empty empty empty 17 7 0 10 -262144
-1 -1;
#X obj 656 153 bng 15 250 50 0 empty empty empty 17 7 0 10 -262144
-1 -1;
#X obj 656 126 r cross1;
#X text 593 168 'a' key;
#X text 648 168 's' key;
#X obj 414 127 m_sound0;
#X obj 475 127 m_sound1;
#X obj 31 287 OSC/osc_test;
#X obj 386 28 OSC/rcv_data 40001 sound;
#X obj 560 28 OSC/rcv_data 40002 sound;
#X obj 420 230 tgl 15 0 empty empty empty 17 7 0 10 -262144 -1 -1 1
1;
#X obj 420 279 random 35;
#N canvas 1222 60 511 405 SoundTest0 0;
#X obj 190 353 mathrax_soundout;
#X obj 190 319 /~ 1;
#X obj 192 281 r volume;
#X obj 190 254 Orgel2;
#X floatatom 87 122 5 0 0 0 - - -, f 5;
#X obj 87 75 % 5;
#X obj 328 75 / 5;
#X floatatom 328 122 5 0 0 0 - - -, f 5;
#X obj 328 95 int;
#X msg 87 173 25;
#X msg 117 173 27;
#X msg 147 173 30;
#X msg 177 173 32;
#X msg 207 173 34;
#X obj 87 144 sel 0 1 2 3 4;
#X obj 87 41 t f f;
#X obj 328 143 * 12;
#X obj 310 208 +;
#X obj 280 208 +;
#X obj 250 208 +;
#X obj 220 208 +;
#X obj 190 208 +;
#X obj 240 319 /~ 1;
#X obj 242 281 r volume;
#X obj 240 254 Orgel2;
#X obj 290 319 /~ 1;
#X obj 292 281 r volume;
#X obj 290 254 Orgel2;
#X obj 340 319 /~ 1;
#X obj 342 281 r volume;
#X obj 340 254 Orgel2;
#X obj 390 319 /~ 1;
#X obj 392 281 r volume;
#X obj 390 254 Orgel2;
#X obj 29 15 inlet;
#X connect 1 0 0 0;
#X connect 2 0 1 1;
#X connect 3 0 1 0;
#X connect 4 0 14 0;
#X connect 5 0 4 0;
#X connect 6 0 8 0;
#X connect 7 0 16 0;
#X connect 8 0 7 0;
#X connect 9 0 21 0;
#X connect 10 0 20 0;
#X connect 11 0 19 0;
#X connect 12 0 18 0;
#X connect 13 0 17 0;
#X connect 14 0 9 0;
#X connect 14 1 10 0;
#X connect 14 2 11 0;
#X connect 14 3 12 0;
#X connect 14 4 13 0;
#X connect 15 0 5 0;
#X connect 15 1 6 0;
#X connect 16 0 17 1;
#X connect 16 0 18 1;
#X connect 16 0 19 1;
#X connect 16 0 20 1;
#X connect 16 0 21 1;
#X connect 17 0 33 0;
#X connect 18 0 30 0;
#X connect 19 0 27 0;
#X connect 20 0 24 0;
#X connect 21 0 3 0;
#X connect 22 0 0 0;
#X connect 23 0 22 1;
#X connect 24 0 22 0;
#X connect 25 0 0 0;
#X connect 26 0 25 1;
#X connect 27 0 25 0;
#X connect 28 0 0 0;
#X connect 29 0 28 1;
#X connect 30 0 28 0;
#X connect 31 0 0 0;
#X connect 32 0 31 1;
#X connect 33 0 31 0;
#X connect 34 0 15 0;
#X restore 416 325 pd SoundTest0;
#N canvas 1223 61 491 404 SoundTest1 0;
#X obj 190 353 mathrax_soundout;
#X obj 190 319 /~ 1;
#X obj 192 281 r volume;
#X floatatom 87 122 5 0 0 0 - - -, f 5;
#X obj 87 75 % 5;
#X obj 328 75 / 5;
#X floatatom 328 122 5 0 0 0 - - -, f 5;
#X obj 328 95 int;
#X msg 87 173 25;
#X msg 117 173 27;
#X msg 147 173 30;
#X msg 177 173 32;
#X msg 207 173 34;
#X obj 87 144 sel 0 1 2 3 4;
#X obj 87 41 t f f;
#X obj 328 143 * 12;
#X obj 310 208 +;
#X obj 280 208 +;
#X obj 250 208 +;
#X obj 220 208 +;
#X obj 190 208 +;
#X obj 240 319 /~ 1;
#X obj 242 281 r volume;
#X obj 290 319 /~ 1;
#X obj 292 281 r volume;
#X obj 340 319 /~ 1;
#X obj 342 281 r volume;
#X obj 390 319 /~ 1;
#X obj 392 281 r volume;
#X obj 29 15 inlet;
#X obj 190 254 Orgel;
#X obj 240 254 Orgel;
#X obj 290 254 Orgel;
#X obj 340 254 Orgel;
#X obj 390 254 Orgel;
#X connect 1 0 0 0;
#X connect 2 0 1 1;
#X connect 3 0 13 0;
#X connect 4 0 3 0;
#X connect 5 0 7 0;
#X connect 6 0 15 0;
#X connect 7 0 6 0;
#X connect 8 0 20 0;
#X connect 9 0 19 0;
#X connect 10 0 18 0;
#X connect 11 0 17 0;
#X connect 12 0 16 0;
#X connect 13 0 8 0;
#X connect 13 1 9 0;
#X connect 13 2 10 0;
#X connect 13 3 11 0;
#X connect 13 4 12 0;
#X connect 14 0 4 0;
#X connect 14 1 5 0;
#X connect 15 0 16 1;
#X connect 15 0 17 1;
#X connect 15 0 18 1;
#X connect 15 0 19 1;
#X connect 15 0 20 1;
#X connect 16 0 34 0;
#X connect 17 0 33 0;
#X connect 18 0 32 0;
#X connect 19 0 31 0;
#X connect 20 0 30 0;
#X connect 21 0 0 0;
#X connect 22 0 21 1;
#X connect 23 0 0 0;
#X connect 24 0 23 1;
#X connect 25 0 0 0;
#X connect 26 0 25 1;
#X connect 27 0 0 0;
#X connect 28 0 27 1;
#X connect 29 0 14 0;
#X connect 30 0 1 0;
#X connect 31 0 21 0;
#X connect 32 0 23 0;
#X connect 33 0 25 0;
#X connect 34 0 27 0;
#X restore 517 325 pd SoundTest1;
#X obj 420 250 metro 250;
#N canvas 0 22 614 660 bass 0;
#X obj 224 605 dac~;
#N canvas 529 29 450 300 delay_effect 0;
#X obj 105 120 vsl 15 32 0 1 0 1 empty empty delay 0 -9 0 10 -262144
-1 -1 1500 1;
#X obj 158 68 inlet;
#X obj 248 176 *~;
#X obj 59 68 loadbang;
#X obj 115 68 inlet~;
#X obj 189 226 outlet~;
#X obj 249 205 delwrite~ \$0-delayA 1000;
#X obj 248 124 delread~ \$0-delayA \$1;
#X msg 286 94 500;
#X obj 234 68 inlet;
#X obj 286 68 loadbang;
#X connect 0 0 2 1;
#X connect 1 0 0 0;
#X connect 2 0 5 0;
#X connect 2 0 6 0;
#X connect 3 0 0 0;
#X connect 4 0 5 0;
#X connect 4 0 6 0;
#X connect 7 0 2 0;
#X connect 8 0 7 0;
#X connect 9 0 7 0;
#X connect 10 0 8 0;
#X coords 0 -1 1 1 85 60 2 100 100;
#X restore 238 494 pd delay_effect;
#X obj 145 201 line, f 6;
#X obj 236 402 *~;
#X obj 266 378 line~;
#X obj 267 233 bng 15 250 50 0 empty empty empty 17 7 0 10 -262144
-1 -1;
#X obj 236 237 mtof;
#X msg 266 326 1 1;
#X obj 343 376 line~;
#X obj 344 231 bng 15 250 50 0 empty empty empty 17 7 0 10 -262144
-1 -1;
#X obj 376 323 del 4;
#X floatatom 235 263 5 0 0 0 - - -, f 5;
#X obj 236 181 t f b;
#X obj 299 325 del 2;
#X msg 299 346 0 50;
#X msg 376 344 0 20;
#X obj 236 289 osc~;
#X obj 200 139 vsl 15 128 0 127 0 0 empty empty empty 0 -9 0 10 -262144
-1 -1 4500 1;
#X msg 106 119 50 1;
#X obj 156 138 del 1;
#X msg 345 325 1 1;
#X obj 114 28 tgl 15 0 empty empty empty 17 7 0 10 -262144 -1 -1 1
1;
#X msg 144 174 45 10;
#X obj 114 48 metro 2000;
#X obj 220 454 *~;
#X obj 178 426 osc~ 3;
#X obj 270 68 inlet;
#X connect 1 0 0 0;
#X connect 1 0 0 1;
#X connect 2 0 17 0;
#X connect 3 0 24 1;
#X connect 4 0 3 1;
#X connect 5 0 7 0;
#X connect 5 0 13 0;
#X connect 6 0 11 0;
#X connect 7 0 4 0;
#X connect 8 0 3 1;
#X connect 9 0 20 0;
#X connect 9 0 10 0;
#X connect 10 0 15 0;
#X connect 11 0 16 0;
#X connect 12 0 6 0;
#X connect 12 1 5 0;
#X connect 12 1 9 0;
#X connect 13 0 14 0;
#X connect 14 0 4 0;
#X connect 15 0 8 0;
#X connect 16 0 3 0;
#X connect 17 0 12 0;
#X connect 18 0 2 0;
#X connect 18 0 19 0;
#X connect 19 0 22 0;
#X connect 20 0 8 0;
#X connect 21 0 23 0;
#X connect 22 0 2 0;
#X connect 23 0 18 0;
#X connect 24 0 1 0;
#X connect 25 0 24 0;
#X connect 26 0 21 0;
#X restore 347 326 pd bass;
#X msg 94 64 3;
#X connect 0 0 1 0;
#X connect 1 0 2 0;
#X connect 1 0 3 0;
#X connect 4 0 5 0;
#X connect 5 0 6 0;
#X connect 7 0 54 0;
#X connect 11 0 14 0;
#X connect 12 0 15 0;
#X connect 13 0 12 0;
#X connect 13 3 19 0;
#X connect 14 0 13 0;
#X connect 15 0 22 0;
#X connect 15 1 23 0;
#X connect 15 2 24 0;
#X connect 15 3 25 0;
#X connect 16 0 13 2;
#X connect 16 0 11 0;
#X connect 16 0 21 0;
#X connect 18 0 21 0;
#X connect 18 1 20 0;
#X connect 19 0 11 0;
#X connect 20 0 27 0;
#X connect 21 0 28 0;
#X connect 30 0 32 0;
#X connect 30 1 31 0;
#X connect 31 0 33 0;
#X connect 32 0 34 0;
#X connect 37 0 38 0;
#X connect 40 0 39 0;
#X connect 46 0 18 0;
#X connect 46 0 17 0;
#X connect 47 0 29 0;
#X connect 47 0 30 0;
#X connect 48 0 52 0;
#X connect 48 0 53 0;
#X connect 49 0 50 0;
#X connect 49 0 51 0;
#X connect 52 0 49 0;
#X connect 54 0 4 0;
