#N canvas -2 4 450 300 10;
#X obj 16 231 pack 255 0 0;
#X floatatom 50 208 5 0 0 0 - - -;
#X floatatom 85 207 5 0 0 0 - - -;
#X obj 16 203 bng 15 250 50 0 empty empty empty 17 7 0 10 -262144 -1
-1;
#X obj 35 161 >> 7;
#X obj 72 162 & 127;
#X obj 35 184 & 7;
#X obj 16 110 line;
#X obj 16 136 t b f f;
#X msg 16 85 1023 \, 0 1000;
#X obj 16 42 inlet;
#X obj 16 64 t b;
#X obj 16 254 outlet;
#X connect 0 0 12 0;
#X connect 1 0 0 1;
#X connect 2 0 0 2;
#X connect 3 0 0 0;
#X connect 4 0 6 0;
#X connect 5 0 2 0;
#X connect 6 0 1 0;
#X connect 7 0 8 0;
#X connect 8 0 3 0;
#X connect 8 1 4 0;
#X connect 8 2 5 0;
#X connect 9 0 7 0;
#X connect 10 0 11 0;
#X connect 11 0 9 0;
