#N canvas 55 178 551 300 10;
#X obj 36 18 inlet;
#X obj 36 171 *~;
#X obj 36 41 t f b;
#X obj 36 68 mtof;
#X obj 116 259 outlet~;
#X obj 129 172 *~;
#X obj 115 196 +~;
#X obj 181 172 *~;
#X obj 181 129 osc~;
#X obj 115 217 +~;
#X obj 36 128 osc~;
#X obj 83 18 inlet;
#X obj 83 119 / 127;
#X obj 129 105 *~ 2;
#X obj 179 105 *~ 3;
#X obj 129 129 osc~;
#X obj 187 229 /~ 3;
#X connect 0 0 2 0;
#X connect 1 0 6 0;
#X connect 2 0 3 0;
#X connect 3 0 10 0;
#X connect 3 0 13 0;
#X connect 3 0 14 0;
#X connect 5 0 6 1;
#X connect 6 0 9 0;
#X connect 7 0 9 1;
#X connect 8 0 7 0;
#X connect 9 0 16 0;
#X connect 10 0 1 0;
#X connect 11 0 12 0;
#X connect 12 0 1 1;
#X connect 12 0 5 1;
#X connect 12 0 7 1;
#X connect 13 0 15 0;
#X connect 14 0 8 0;
#X connect 15 0 5 0;
#X connect 16 0 4 0;
