#N canvas 13 53 700 490 10;
#X declare -stdpath extra/list-abs -stdpath extra/moocow -stdpath extra/zexy
;
#X declare -stdpath extra/mrpeach;
#X obj 19 -20 loadbang;
#X obj 19 7 del 500;
#X msg 19 34 \; pd dsp 1;
#X obj 19 81 s StartReset;
#X obj 19 150 hsl 64 15 1 48 0 0 empty empty empty -2 -8 0 10 -257985
-1 -1 1474 1;
#X floatatom 16 169 5 0 0 0 - - -;
#X obj 16 108 r StartReset;
#X obj 214 -14 r StartReset;
#X obj 99 150 hsl 64 15 1 48 0 0 empty empty empty -2 -8 0 10 -4032
-1 -1 402 1;
#X floatatom 96 169 5 0 0 0 - - -;
#X obj 96 108 r StartReset;
#X obj 96 205 s volume_kuma;
#X obj 16 205 s volume_tenji;
#X obj 223 124 t a a;
#X obj 223 147 list;
#X obj 223 96 csv_file;
#X msg 223 75 read data/tenji.txt;
#X msg 351 106 rewind;
#X obj 223 174 packel 1 2 3 4;
#X floatatom 223 206 5 0 0 0 - - -;
#X obj 223 242 m_send;
#X floatatom 262 206 5 0 0 0 - - -;
#X floatatom 307 206 5 0 0 0 - - -;
#X floatatom 349 205 5 0 0 0 - - -;
#X obj 223 52 r StartReset;
#X obj 266 32 bng 15 250 50 0 empty empty empty 17 7 0 10 -262144 -1
-1;
#X obj 270 242 m_send;
#X obj 315 242 m_send;
#X obj 357 241 m_send;
#X obj 88 -14 m_key;
#X obj 17 375 m_kuma_sounds_P;
#X obj 99 270 hsl 64 15 1 48 0 0 empty empty empty -2 -8 0 10 -4032
-1 -1 3083 1;
#X floatatom 96 289 5 0 0 0 - - -;
#X obj 96 228 r StartReset;
#X obj 96 325 s offset_kuma;
#X obj 17 355 m_tenji_sounds_P;
#X obj 19 270 hsl 64 15 1 48 0 0 empty empty empty -2 -8 0 10 -4032
-1 -1 4691 1;
#X floatatom 16 289 5 0 0 0 - - -;
#X obj 16 228 r StartReset;
#X obj 16 325 s offset_tenji;
#X msg 96 129 4;
#X msg 96 249 24;
#X msg 16 249 36;
#X msg 16 129 12;
#X obj 88 6 m_receiveOSC;
#X obj 196 31 metro 1000;
#X obj 436 9 unpackOSC;
#X obj 436 -12 udpreceive 3001;
#X obj 436 72 sel 1;
#X obj 436 29 routeOSC /bang;
#X obj 436 49 unpack f;
#X obj 218 403 sendOSC;
#X obj 218 353 r StartReset;
#X msg 301 329 0;
#X msg 331 329 1;
#X msg 301 352 send /sound \$1;
#X msg 218 378 connect localhost 4000;
#X obj 332 305 bng 15 250 50 0 empty empty empty 17 7 0 10 -262144
-1 -1;
#X obj 294 305 bng 15 250 50 0 empty empty empty 17 7 0 10 -262144
-1 -1;
#X obj 294 283 r SEND0;
#X connect 0 0 1 0;
#X connect 1 0 2 0;
#X connect 1 0 3 0;
#X connect 4 0 5 0;
#X connect 5 0 12 0;
#X connect 6 0 43 0;
#X connect 7 0 17 0;
#X connect 8 0 9 0;
#X connect 9 0 11 0;
#X connect 10 0 40 0;
#X connect 13 0 14 0;
#X connect 14 0 18 0;
#X connect 15 0 13 0;
#X connect 15 2 17 0;
#X connect 16 0 15 0;
#X connect 17 0 15 0;
#X connect 18 0 19 0;
#X connect 18 1 21 0;
#X connect 18 2 22 0;
#X connect 18 3 23 0;
#X connect 19 0 20 0;
#X connect 21 0 26 0;
#X connect 22 0 27 0;
#X connect 23 0 28 0;
#X connect 24 0 16 0;
#X connect 25 0 15 0;
#X connect 31 0 32 0;
#X connect 32 0 34 0;
#X connect 33 0 41 0;
#X connect 36 0 37 0;
#X connect 37 0 39 0;
#X connect 38 0 42 0;
#X connect 40 0 8 0;
#X connect 41 0 31 0;
#X connect 42 0 36 0;
#X connect 43 0 4 0;
#X connect 45 0 15 0;
#X connect 46 0 49 0;
#X connect 47 0 46 0;
#X connect 48 0 25 0;
#X connect 49 0 50 0;
#X connect 50 0 48 0;
#X connect 52 0 56 0;
#X connect 53 0 55 0;
#X connect 54 0 55 0;
#X connect 55 0 51 0;
#X connect 56 0 51 0;
#X connect 57 0 54 0;
#X connect 58 0 53 0;
#X connect 59 0 58 0;
