#N canvas 1 95 1184 594 10;
#X floatatom 20 332 5 0 0 0 - - -;
#X obj 5 7 loadbang;
#X obj 5 34 del 500;
#X msg 5 61 \; pd dsp 1;
#X obj 5 108 s StartReset;
#X floatatom 20 308 5 0 0 0 - - -;
#X obj 744 -19 keyname;
#X obj 745 6 unpack s;
#X floatatom 70 308 5 0 0 0 - - -;
#X floatatom 120 308 5 0 0 0 - - -;
#X floatatom 170 308 5 0 0 0 - - -;
#X floatatom 220 308 5 0 0 0 - - -;
#X floatatom 270 308 5 0 0 0 - - -;
#X msg 70 216 1;
#X msg 120 216 2;
#X msg 170 216 3;
#X msg 220 216 4;
#X obj 20 246 tabread onkai_1;
#X obj 70 266 tabread onkai_1;
#X obj 170 266 tabread onkai_1;
#X obj 120 246 tabread onkai_1;
#X obj 220 246 tabread onkai_1;
#X obj 270 266 tabread onkai_1;
#X obj 795 145 OSCroute /pd;
#X obj 795 165 unpack i;
#X obj 795 235 int;
#X floatatom 320 308 5 0 0 0 - - -;
#X floatatom 370 308 5 0 0 0 - - -;
#X floatatom 420 308 5 0 0 0 - - -;
#X floatatom 470 308 5 0 0 0 - - -;
#X floatatom 520 308 5 0 0 0 - - -;
#X floatatom 569 308 5 0 0 0 - - -;
#X obj 795 209 / 10;
#X obj 834 329 s touch;
#X obj 320 246 tabread onkai_1;
#X obj 370 266 tabread onkai_1;
#X obj 470 266 tabread onkai_1;
#X obj 420 246 tabread onkai_1;
#X obj 520 246 tabread onkai_1;
#X obj 569 266 tabread onkai_1;
#X msg 320 216 6;
#X msg 370 216 7;
#X msg 420 216 8;
#X msg 470 216 9;
#X msg 520 216 10;
#X msg 569 216 11;
#X obj 20 193 r k0;
#X obj 70 193 r k1;
#X obj 120 193 r k2;
#X obj 170 193 r k3;
#X obj 220 193 r k4;
#X obj 270 193 r k5;
#X obj 320 193 r k6;
#X obj 370 193 r k7;
#X obj 420 193 r k8;
#X obj 470 193 r k9;
#X obj 520 193 r k10;
#X obj 570 193 r k11;
#X obj 716 51 s k0;
#X obj 747 51 s k1;
#X obj 778 51 s k2;
#X obj 809 51 s k3;
#X obj 840 51 s k4;
#X obj 871 51 s k5;
#X obj 726 81 s k6;
#X obj 757 81 s k7;
#X obj 788 81 s k8;
#X obj 819 81 s k9;
#X obj 850 81 s k10;
#X obj 881 81 s k11;
#X msg 270 216 5;
#X obj 20 531 mathrax_soundout;
#X floatatom 70 332 5 0 0 0 - - -;
#X floatatom 120 332 5 0 0 0 - - -;
#X floatatom 170 332 5 0 0 0 - - -;
#X floatatom 220 332 5 0 0 0 - - -;
#X floatatom 270 332 5 0 0 0 - - -;
#X floatatom 320 332 5 0 0 0 - - -;
#X floatatom 370 332 5 0 0 0 - - -;
#X floatatom 420 332 5 0 0 0 - - -;
#X floatatom 470 332 5 0 0 0 - - -;
#X floatatom 520 332 5 0 0 0 - - -;
#X floatatom 570 332 5 0 0 0 - - -;
#X obj 858 216 s k0;
#X obj 889 216 s k1;
#X obj 920 216 s k2;
#X obj 951 216 s k3;
#X obj 982 216 s k4;
#X obj 1013 216 s k5;
#X obj 868 246 s k6;
#X obj 899 246 s k7;
#X obj 930 246 s k8;
#X obj 961 246 s k9;
#X obj 992 246 s k10;
#X obj 1028 246 s k11;
#X obj 887 127 r touch;
#X obj 745 26 sel q w e r t y u i o p [ ];
#X obj 633 27 sel v b n;
#X obj 587 109 onkai1;
#X obj 627 567 sendOSC;
#X obj 627 505 r StartReset;
#X msg 710 504 send /pd \$1;
#X msg 687 429 0;
#X msg 717 429 1;
#X msg 747 429 2;
#X msg 777 429 3;
#X msg 807 429 4;
#X msg 867 429 6;
#X msg 897 429 7;
#X msg 927 429 8;
#X msg 957 429 9;
#X msg 987 429 10;
#X msg 1023 429 11;
#X obj 687 406 r k0;
#X obj 717 406 r k1;
#X obj 747 406 r k2;
#X obj 777 406 r k3;
#X obj 807 406 r k4;
#X obj 837 406 r k5;
#X obj 867 406 r k6;
#X obj 897 406 r k7;
#X obj 927 406 r k8;
#X obj 957 406 r k9;
#X obj 987 406 r k10;
#X obj 1024 406 r k11;
#X msg 837 429 5;
#X obj 640 109 s o1;
#X obj 672 109 s o2;
#X obj 705 109 s o3;
#X obj 526 77 r o1;
#X obj 555 77 r o2;
#X obj 584 77 r o3;
#X obj 1119 182 s o1;
#X obj 1151 182 s o2;
#X obj 1184 182 s o3;
#X obj 1119 128 sel 50 51 52;
#X obj 1069 406 r o1;
#X obj 1098 406 r o2;
#X obj 1127 406 r o3;
#X msg 1069 429 50;
#X msg 1098 429 51;
#X msg 1127 429 52;
#X obj 795 119 dumpOSC 3000;
#X floatatom 795 288 5 0 0 0 - - -;
#X msg 623 535 connect 192.168.1.2 3001;
#X floatatom 903 171 5 0 0 0 - - -;
#X obj 220 437 /~ 1;
#X obj 270 437 /~ 1;
#X obj 320 437 /~ 1;
#X obj 370 437 /~ 1;
#X obj 420 437 /~ 1;
#X obj 470 437 /~ 1;
#X obj 520 437 /~ 1;
#X obj 570 437 /~ 1;
#X obj 170 437 /~ 1;
#X obj 120 437 /~ 1;
#X obj 70 437 /~ 1;
#X obj 20 437 /~ 1;
#X obj 88 53 hsl 128 15 1 12 0 0 empty empty empty -2 -8 0 10 -262144
-1 -1 5773 1;
#X floatatom 85 72 5 0 0 0 - - -;
#X obj 85 108 s volume;
#X obj 22 399 r volume;
#X obj 72 399 r volume;
#X obj 122 399 r volume;
#X obj 172 399 r volume;
#X obj 222 399 r volume;
#X obj 272 399 r volume;
#X obj 322 399 r volume;
#X obj 372 399 r volume;
#X obj 422 399 r volume;
#X obj 472 399 r volume;
#X obj 522 399 r volume;
#X obj 572 399 r volume;
#X obj 85 11 r StartReset;
#X obj 370 352 Orgel;
#X msg 20 216 0;
#X obj 628 166 expr if($i1>0 \, 60-$i1 \, 0) \;;
#X obj 795 261 + 0;
#X obj 887 191 sel 0 1 2 3 4 5 6 7 8 9 10 11 12 13;
#X obj 1063 246 s k12;
#X obj 1098 246 s k13;
#X floatatom 620 308 5 0 0 0 - - -;
#X floatatom 669 308 5 0 0 0 - - -;
#X obj 620 246 tabread onkai_1;
#X obj 669 266 tabread onkai_1;
#X floatatom 620 332 5 0 0 0 - - -;
#X floatatom 670 332 5 0 0 0 - - -;
#X obj 620 437 /~ 1;
#X obj 670 437 /~ 1;
#X obj 622 399 r volume;
#X obj 672 399 r volume;
#X msg 620 216 12;
#X msg 669 216 13;
#X obj 620 193 r k12;
#X obj 670 193 r k13;
#X msg 85 32 6;
#X text 4 -19 Stone's Voice;
#X obj 570 352 Orgel;
#X obj 470 352 Orgel;
#X obj 20 352 Orgel;
#X obj 220 352 Orgel;
#X obj 70 352 Orgel;
#X obj 121 352 Orgel;
#X obj 170 353 Orgel;
#X obj 270 352 Orgel;
#X obj 320 352 Orgel;
#X obj 420 352 Orgel;
#X obj 520 352 Orgel;
#X obj 670 352 Orgel;
#X obj 620 352 Orgel;
#X obj 327 97 r StartReset;
#X obj 268 74 unpack i;
#X obj 268 28 dumpOSC 3001;
#X obj 268 54 OSCroute /sound;
#X obj 267 98 sel 0 1;
#X obj 265 123 s o1;
#X obj 297 123 s o2;
#X obj 329 123 s o1;
#X obj 434 -18 r StartReset;
#X obj 424 21 tgl 15 0 empty empty empty 17 7 0 10 -262144 -1 -1 0
1;
#X floatatom 434 95 5 0 0 0 - - -;
#X obj 434 69 counter 0 1 4;
#X obj 511 100 bng 15 250 50 0 empty empty empty 17 7 0 10 -262144
-1 -1;
#X obj 395 128 sel 1 2 3 4;
#X obj 434 42 metro 150;
#X obj 371 156 s k9;
#X obj 401 156 s k10;
#X obj 431 156 s k11;
#X obj 461 156 s k12;
#X obj 492 20 del 1000;
#X connect 0 0 199 0;
#X connect 1 0 2 0;
#X connect 2 0 3 0;
#X connect 2 0 4 0;
#X connect 5 0 0 0;
#X connect 6 1 7 0;
#X connect 7 0 96 0;
#X connect 7 0 97 0;
#X connect 8 0 72 0;
#X connect 9 0 73 0;
#X connect 10 0 74 0;
#X connect 11 0 75 0;
#X connect 12 0 76 0;
#X connect 13 0 18 0;
#X connect 14 0 20 0;
#X connect 15 0 19 0;
#X connect 16 0 21 0;
#X connect 17 0 5 0;
#X connect 18 0 8 0;
#X connect 19 0 10 0;
#X connect 20 0 9 0;
#X connect 21 0 11 0;
#X connect 22 0 12 0;
#X connect 23 0 24 0;
#X connect 24 0 32 0;
#X connect 25 0 177 0;
#X connect 26 0 77 0;
#X connect 27 0 78 0;
#X connect 28 0 79 0;
#X connect 29 0 80 0;
#X connect 30 0 81 0;
#X connect 31 0 82 0;
#X connect 32 0 25 0;
#X connect 34 0 26 0;
#X connect 35 0 27 0;
#X connect 36 0 29 0;
#X connect 37 0 28 0;
#X connect 38 0 30 0;
#X connect 39 0 31 0;
#X connect 40 0 34 0;
#X connect 41 0 35 0;
#X connect 42 0 37 0;
#X connect 43 0 36 0;
#X connect 44 0 38 0;
#X connect 45 0 39 0;
#X connect 46 0 175 0;
#X connect 47 0 13 0;
#X connect 48 0 14 0;
#X connect 49 0 15 0;
#X connect 50 0 16 0;
#X connect 51 0 70 0;
#X connect 52 0 40 0;
#X connect 53 0 41 0;
#X connect 54 0 42 0;
#X connect 55 0 43 0;
#X connect 56 0 44 0;
#X connect 57 0 45 0;
#X connect 70 0 22 0;
#X connect 72 0 201 0;
#X connect 73 0 202 0;
#X connect 74 0 203 0;
#X connect 75 0 200 0;
#X connect 76 0 204 0;
#X connect 77 0 205 0;
#X connect 78 0 174 0;
#X connect 79 0 206 0;
#X connect 80 0 198 0;
#X connect 81 0 207 0;
#X connect 82 0 197 0;
#X connect 95 0 135 0;
#X connect 95 0 145 0;
#X connect 95 0 178 0;
#X connect 96 0 58 0;
#X connect 96 1 59 0;
#X connect 96 2 60 0;
#X connect 96 3 61 0;
#X connect 96 4 62 0;
#X connect 96 5 63 0;
#X connect 96 6 64 0;
#X connect 96 7 65 0;
#X connect 96 8 66 0;
#X connect 96 9 67 0;
#X connect 96 10 68 0;
#X connect 96 11 69 0;
#X connect 97 0 126 0;
#X connect 97 1 127 0;
#X connect 97 2 128 0;
#X connect 100 0 144 0;
#X connect 101 0 99 0;
#X connect 102 0 101 0;
#X connect 103 0 101 0;
#X connect 104 0 101 0;
#X connect 105 0 101 0;
#X connect 106 0 101 0;
#X connect 107 0 101 0;
#X connect 108 0 101 0;
#X connect 109 0 101 0;
#X connect 110 0 101 0;
#X connect 111 0 101 0;
#X connect 112 0 101 0;
#X connect 113 0 102 0;
#X connect 114 0 103 0;
#X connect 115 0 104 0;
#X connect 116 0 105 0;
#X connect 117 0 106 0;
#X connect 118 0 125 0;
#X connect 119 0 107 0;
#X connect 120 0 108 0;
#X connect 121 0 109 0;
#X connect 122 0 110 0;
#X connect 123 0 111 0;
#X connect 124 0 112 0;
#X connect 125 0 101 0;
#X connect 129 0 98 0;
#X connect 130 0 98 1;
#X connect 131 0 98 2;
#X connect 135 0 132 0;
#X connect 135 1 133 0;
#X connect 135 2 134 0;
#X connect 136 0 139 0;
#X connect 137 0 140 0;
#X connect 138 0 141 0;
#X connect 139 0 101 0;
#X connect 140 0 101 0;
#X connect 141 0 101 0;
#X connect 142 0 23 0;
#X connect 143 0 33 0;
#X connect 144 0 99 0;
#X connect 146 0 71 0;
#X connect 147 0 71 0;
#X connect 148 0 71 0;
#X connect 149 0 71 0;
#X connect 150 0 71 0;
#X connect 151 0 71 0;
#X connect 152 0 71 0;
#X connect 153 0 71 0;
#X connect 154 0 71 0;
#X connect 155 0 71 0;
#X connect 156 0 71 0;
#X connect 157 0 71 0;
#X connect 158 0 159 0;
#X connect 159 0 160 0;
#X connect 161 0 157 1;
#X connect 162 0 156 1;
#X connect 163 0 155 1;
#X connect 164 0 154 1;
#X connect 165 0 146 1;
#X connect 166 0 147 1;
#X connect 167 0 148 1;
#X connect 168 0 149 1;
#X connect 169 0 150 1;
#X connect 170 0 151 1;
#X connect 171 0 152 1;
#X connect 172 0 153 1;
#X connect 173 0 195 0;
#X connect 174 0 149 0;
#X connect 175 0 17 0;
#X connect 176 0 32 0;
#X connect 177 0 143 0;
#X connect 178 0 83 0;
#X connect 178 1 84 0;
#X connect 178 2 85 0;
#X connect 178 3 86 0;
#X connect 178 4 87 0;
#X connect 178 5 88 0;
#X connect 178 6 89 0;
#X connect 178 7 90 0;
#X connect 178 8 91 0;
#X connect 178 9 92 0;
#X connect 178 10 93 0;
#X connect 178 11 94 0;
#X connect 178 12 179 0;
#X connect 178 13 180 0;
#X connect 181 0 185 0;
#X connect 182 0 186 0;
#X connect 183 0 181 0;
#X connect 184 0 182 0;
#X connect 185 0 209 0;
#X connect 186 0 208 0;
#X connect 187 0 71 0;
#X connect 188 0 71 0;
#X connect 189 0 187 1;
#X connect 190 0 188 1;
#X connect 191 0 183 0;
#X connect 192 0 184 0;
#X connect 193 0 191 0;
#X connect 194 0 192 0;
#X connect 195 0 158 0;
#X connect 197 0 153 0;
#X connect 198 0 151 0;
#X connect 199 0 157 0;
#X connect 200 0 146 0;
#X connect 201 0 156 0;
#X connect 202 0 155 0;
#X connect 203 0 154 0;
#X connect 204 0 147 0;
#X connect 205 0 148 0;
#X connect 206 0 150 0;
#X connect 207 0 152 0;
#X connect 208 0 188 0;
#X connect 209 0 187 0;
#X connect 210 0 217 0;
#X connect 211 0 214 0;
#X connect 212 0 213 0;
#X connect 213 0 211 0;
#X connect 214 0 215 0;
#X connect 214 1 216 0;
#X connect 218 0 221 2;
#X connect 218 0 229 0;
#X connect 219 0 224 0;
#X connect 220 0 223 0;
#X connect 221 0 220 0;
#X connect 221 3 222 0;
#X connect 222 0 219 0;
#X connect 223 0 225 0;
#X connect 223 1 226 0;
#X connect 223 2 227 0;
#X connect 223 3 228 0;
#X connect 224 0 221 0;
#X connect 229 0 219 0;
