#N canvas 284 35 847 500 10;
#X obj 76 33 inlet;
#X obj 76 338 *~;
#X obj 106 314 line~;
#X obj 106 153 bng 15 250 50 0 empty empty empty 17 7 0 10 -262144
-1 -1;
#X obj 76 130 t f b;
#X obj 76 152 mtof;
#X obj 92 470 outlet~;
#X obj 92 389 +~;
#X obj 92 410 +~;
#X obj 76 174 osc~;
#X obj 195 340 *~;
#X obj 225 316 line~;
#X obj 225 201 bng 15 250 50 0 empty empty empty 17 7 0 10 -262144
-1 -1;
#X obj 195 112 t f b;
#X obj 195 134 mtof;
#X obj 195 200 osc~;
#X msg 225 224 1 1;
#X obj 258 223 del 10;
#X msg 106 222 1 3;
#X msg 139 242 0 150;
#X obj 139 221 del 6;
#X obj 307 338 *~;
#X obj 337 314 line~;
#X obj 337 199 bng 15 250 50 0 empty empty empty 17 7 0 10 -262144
-1 -1;
#X obj 307 198 osc~;
#X msg 337 222 1 1;
#X obj 370 221 del 10;
#X obj 92 445 /~ 4;
#X obj 195 362 +~;
#X obj 423 336 *~;
#X obj 453 312 line~;
#X obj 453 197 bng 15 250 50 0 empty empty empty 17 7 0 10 -262144
-1 -1;
#X obj 423 108 t f b;
#X obj 423 130 mtof;
#X obj 423 196 osc~;
#X msg 453 220 1 1;
#X obj 535 334 *~;
#X obj 565 310 line~;
#X obj 565 195 bng 15 250 50 0 empty empty empty 17 7 0 10 -262144
-1 -1;
#X obj 535 194 osc~;
#X msg 565 218 1 1;
#X obj 423 358 +~;
#X obj 536 172 + 3;
#X obj 598 217 del 2;
#X obj 486 219 del 2;
#X msg 370 242 0 500;
#X msg 258 244 0 500;
#X msg 486 240 0 750;
#X msg 598 238 0 750;
#X obj 308 176 + 1;
#X obj 195 85 + 24;
#X obj 76 103 + 36;
#X obj 423 81 - 48;
#X connect 0 0 50 0;
#X connect 0 0 51 0;
#X connect 0 0 52 0;
#X connect 1 0 7 0;
#X connect 2 0 1 1;
#X connect 3 0 18 0;
#X connect 3 0 20 0;
#X connect 4 0 5 0;
#X connect 4 1 3 0;
#X connect 5 0 9 0;
#X connect 7 0 8 0;
#X connect 8 0 27 0;
#X connect 9 0 1 0;
#X connect 10 0 28 0;
#X connect 11 0 10 1;
#X connect 12 0 16 0;
#X connect 12 0 17 0;
#X connect 13 0 14 0;
#X connect 13 1 12 0;
#X connect 13 1 23 0;
#X connect 14 0 15 0;
#X connect 14 0 49 0;
#X connect 15 0 10 0;
#X connect 16 0 11 0;
#X connect 17 0 46 0;
#X connect 18 0 2 0;
#X connect 19 0 2 0;
#X connect 20 0 19 0;
#X connect 21 0 28 1;
#X connect 22 0 21 1;
#X connect 23 0 25 0;
#X connect 23 0 26 0;
#X connect 24 0 21 0;
#X connect 25 0 22 0;
#X connect 26 0 45 0;
#X connect 27 0 6 0;
#X connect 28 0 7 1;
#X connect 29 0 41 0;
#X connect 30 0 29 1;
#X connect 31 0 35 0;
#X connect 31 0 44 0;
#X connect 32 0 33 0;
#X connect 32 1 31 0;
#X connect 32 1 38 0;
#X connect 33 0 34 0;
#X connect 33 0 42 0;
#X connect 34 0 29 0;
#X connect 35 0 30 0;
#X connect 36 0 41 1;
#X connect 37 0 36 1;
#X connect 38 0 40 0;
#X connect 38 0 43 0;
#X connect 39 0 36 0;
#X connect 40 0 37 0;
#X connect 41 0 8 1;
#X connect 42 0 39 0;
#X connect 43 0 48 0;
#X connect 44 0 47 0;
#X connect 45 0 22 0;
#X connect 46 0 11 0;
#X connect 47 0 30 0;
#X connect 48 0 37 0;
#X connect 49 0 24 0;
#X connect 50 0 13 0;
#X connect 51 0 4 0;
#X connect 52 0 32 0;
