#N canvas 214 101 821 527 10;
#X obj 183 473 outlet~;
#X obj 183 450 *~;
#X obj 244 420 m_crossfade;
#X obj 222 392 r cross0;
#X obj 289 392 r cross1;
#X obj 147 -4 inlet;
#X obj 147 301 *~;
#X obj 177 277 line~;
#X obj 177 116 bng 15 250 50 0 empty empty empty 17 7 0 10 -262144
-1 -1;
#X obj 147 93 t f b;
#X obj 147 115 mtof;
#X obj 163 352 +~;
#X obj 163 373 +~;
#X obj 266 303 *~;
#X obj 296 279 line~;
#X obj 296 164 bng 15 250 50 0 empty empty empty 17 7 0 10 -262144
-1 -1;
#X obj 266 75 t f b;
#X obj 266 97 mtof;
#X msg 296 187 1 1;
#X obj 329 186 del 10;
#X obj 378 301 *~;
#X obj 408 277 line~;
#X obj 408 162 bng 15 250 50 0 empty empty empty 17 7 0 10 -262144
-1 -1;
#X msg 408 185 1 1;
#X obj 441 184 del 10;
#X obj 266 325 +~;
#X obj 494 299 *~;
#X obj 524 275 line~;
#X obj 524 160 bng 15 250 50 0 empty empty empty 17 7 0 10 -262144
-1 -1;
#X obj 494 71 t f b;
#X obj 494 93 mtof;
#X msg 524 183 1 1;
#X obj 606 297 *~;
#X obj 636 273 line~;
#X obj 636 158 bng 15 250 50 0 empty empty empty 17 7 0 10 -262144
-1 -1;
#X msg 636 181 1 1;
#X obj 494 321 +~;
#X obj 669 180 del 2;
#X obj 557 182 del 2;
#X msg 557 203 0 750;
#X obj 210 184 del 10;
#X obj 147 137 phasor~;
#X msg 441 205 0 2000;
#X msg 669 201 0 1500;
#X msg 177 185 1 1;
#X obj 379 139 + 2;
#X obj 607 135 + 10;
#X obj 266 163 phasor~;
#X obj 378 161 phasor~;
#X obj 494 159 phasor~;
#X obj 606 157 phasor~;
#X obj 494 44 + 24;
#X obj 147 66 - 24;
#X obj 163 408 /~ 24;
#X msg 210 205 0 100;
#X msg 329 207 0 500;
#X obj 266 48 - 12;
#X connect 1 0 0 0;
#X connect 2 0 1 1;
#X connect 3 0 2 0;
#X connect 4 0 2 1;
#X connect 5 0 51 0;
#X connect 5 0 52 0;
#X connect 5 0 56 0;
#X connect 6 0 11 0;
#X connect 7 0 6 1;
#X connect 8 0 44 0;
#X connect 8 0 40 0;
#X connect 9 0 10 0;
#X connect 9 1 8 0;
#X connect 10 0 41 0;
#X connect 11 0 12 0;
#X connect 12 0 53 0;
#X connect 13 0 25 0;
#X connect 14 0 13 1;
#X connect 15 0 18 0;
#X connect 15 0 19 0;
#X connect 16 0 17 0;
#X connect 16 1 15 0;
#X connect 16 1 22 0;
#X connect 17 0 45 0;
#X connect 17 0 47 0;
#X connect 18 0 14 0;
#X connect 19 0 55 0;
#X connect 20 0 25 1;
#X connect 21 0 20 1;
#X connect 22 0 23 0;
#X connect 22 0 24 0;
#X connect 23 0 21 0;
#X connect 24 0 42 0;
#X connect 25 0 11 1;
#X connect 26 0 36 0;
#X connect 27 0 26 1;
#X connect 28 0 31 0;
#X connect 28 0 38 0;
#X connect 29 0 30 0;
#X connect 29 1 28 0;
#X connect 29 1 34 0;
#X connect 30 0 46 0;
#X connect 30 0 49 0;
#X connect 31 0 27 0;
#X connect 32 0 36 1;
#X connect 33 0 32 1;
#X connect 34 0 35 0;
#X connect 34 0 37 0;
#X connect 35 0 33 0;
#X connect 36 0 12 1;
#X connect 37 0 43 0;
#X connect 38 0 39 0;
#X connect 39 0 27 0;
#X connect 40 0 54 0;
#X connect 41 0 6 0;
#X connect 42 0 21 0;
#X connect 43 0 33 0;
#X connect 44 0 7 0;
#X connect 45 0 48 0;
#X connect 46 0 50 0;
#X connect 47 0 13 0;
#X connect 48 0 20 0;
#X connect 49 0 26 0;
#X connect 50 0 32 0;
#X connect 51 0 29 0;
#X connect 52 0 9 0;
#X connect 53 0 1 0;
#X connect 54 0 7 0;
#X connect 55 0 14 0;
#X connect 56 0 16 0;
