#N canvas 0 94 1184 530 10;
#X floatatom 16 413 5 0 0 0 - - -;
#X floatatom 57 414 5 0 0 0 - - -;
#X obj 527 651 dac~;
#X obj 424 585 freeverb~;
#X msg 437 555 wet 0.8 \, roomsize 0.8 \, dry 0.5;
#X obj 437 533 r StartReset;
#X msg 496 585 wet \$1 \, roomsize \$1;
#X obj 19 -40 loadbang;
#X obj 19 -13 del 500;
#X msg 19 14 \; pd dsp 1;
#X obj 19 61 s StartReset;
#X obj 16 480 +~;
#X obj 16 502 +~;
#X floatatom 20 368 5 0 0 0 - - -;
#X obj 431 42 keyname;
#X obj 470 80 unpack s;
#X floatatom 102 410 5 0 0 0 - - -;
#X floatatom 143 411 5 0 0 0 - - -;
#X obj 102 477 +~;
#X obj 102 499 +~;
#X floatatom 106 365 5 0 0 0 - - -;
#X obj 16 458 /~ 12;
#X obj 57 458 /~ 12;
#X obj 102 455 /~ 12;
#X obj 143 455 /~ 12;
#X floatatom 184 410 5 0 0 0 - - -;
#X floatatom 225 411 5 0 0 0 - - -;
#X obj 184 477 +~;
#X obj 184 499 +~;
#X floatatom 188 365 5 0 0 0 - - -;
#X obj 184 455 /~ 12;
#X obj 225 455 /~ 12;
#X floatatom 265 410 5 0 0 0 - - -;
#X floatatom 306 411 5 0 0 0 - - -;
#X obj 265 477 +~;
#X obj 264 497 +~;
#X floatatom 269 365 5 0 0 0 - - -;
#X obj 265 455 /~ 12;
#X obj 306 455 /~ 12;
#X floatatom 344 408 5 0 0 0 - - -;
#X floatatom 385 409 5 0 0 0 - - -;
#X obj 344 475 +~;
#X obj 344 497 +~;
#X floatatom 348 363 5 0 0 0 - - -;
#X obj 344 453 /~ 12;
#X obj 385 453 /~ 12;
#X obj 471 109 sel a s d f g h;
#X floatatom 424 407 5 0 0 0 - - -;
#X floatatom 465 408 5 0 0 0 - - -;
#X obj 424 474 +~;
#X obj 424 496 +~;
#X floatatom 428 362 5 0 0 0 - - -;
#X obj 424 452 /~ 12;
#X obj 465 452 /~ 12;
#X obj 283 43 metro 250;
#X obj 289 -23 tgl 30 0 empty empty empty 17 7 0 10 -262144 -1 -1 0
1;
#X obj 282 69 random 12;
#X obj 536 610 lop~ 16000;
#X msg 44 216 0;
#X msg 96 216 1;
#X msg 144 216 2;
#X msg 194 216 3;
#X msg 244 216 4;
#X msg 294 216 5;
#X obj 46 286 tabread onkai_1;
#X obj 95 286 tabread onkai_1;
#X obj 198 286 tabread onkai_1;
#X obj 146 286 tabread onkai_1;
#X obj 243 286 tabread onkai_1;
#X obj 276 286 tabread onkai_1;
#X obj 344 123 onkai1;
#X obj 267 155 sel 0 1 2 3 4 5 6 7 8 9 10 11;
#X obj 345 69 random 3;
#X obj 345 93 sel 0 1 2;
#X obj 621 76 OSCroute /pd;
#X obj 621 110 unpack i;
#X obj 621 25 dumpOSC 3000;
#X obj 554 220 int;
#X msg 239 256 6;
#X msg 291 256 7;
#X msg 339 256 8;
#X msg 389 256 9;
#X msg 439 256 10;
#X msg 489 256 11;
#X floatatom 511 409 5 0 0 0 - - -;
#X floatatom 552 410 5 0 0 0 - - -;
#X obj 511 476 +~;
#X obj 511 498 +~;
#X floatatom 515 364 5 0 0 0 - - -;
#X floatatom 597 406 5 0 0 0 - - -;
#X floatatom 638 407 5 0 0 0 - - -;
#X obj 597 473 +~;
#X obj 597 495 +~;
#X floatatom 601 361 5 0 0 0 - - -;
#X obj 511 454 /~ 12;
#X obj 552 454 /~ 12;
#X obj 597 451 /~ 12;
#X obj 638 451 /~ 12;
#X floatatom 679 406 5 0 0 0 - - -;
#X floatatom 720 407 5 0 0 0 - - -;
#X obj 679 473 +~;
#X obj 679 495 +~;
#X floatatom 683 361 5 0 0 0 - - -;
#X obj 679 451 /~ 12;
#X obj 720 451 /~ 12;
#X floatatom 760 406 5 0 0 0 - - -;
#X floatatom 801 407 5 0 0 0 - - -;
#X obj 760 473 +~;
#X obj 759 493 +~;
#X floatatom 764 361 5 0 0 0 - - -;
#X obj 760 451 /~ 12;
#X obj 801 451 /~ 12;
#X floatatom 839 404 5 0 0 0 - - -;
#X floatatom 880 405 5 0 0 0 - - -;
#X obj 839 471 +~;
#X obj 839 493 +~;
#X floatatom 843 359 5 0 0 0 - - -;
#X obj 839 449 /~ 12;
#X obj 880 449 /~ 12;
#X floatatom 919 403 5 0 0 0 - - -;
#X floatatom 960 404 5 0 0 0 - - -;
#X obj 919 470 +~;
#X obj 919 492 +~;
#X floatatom 923 358 5 0 0 0 - - -;
#X obj 919 448 /~ 12;
#X obj 960 448 /~ 12;
#X obj 555 317 tabread onkai_1;
#X obj 604 317 tabread onkai_1;
#X obj 707 317 tabread onkai_1;
#X obj 655 317 tabread onkai_1;
#X obj 752 317 tabread onkai_1;
#X obj 785 317 tabread onkai_1;
#X obj 520 161 / 10;
#X obj 929 83 osc~;
#X obj 937 155 dac~;
#X obj 932 120 *~ 0.1;
#X obj 889 61 * 1.5;
#X msg 984 83 0;
#X obj 646 159 s touch;
#X obj 345 42 metro 5000;
#X floatatom 614 187 5 0 0 0 - - -;
#X obj 960 424 Orgel;
#X obj 57 393 + 0;
#X obj 143 390 + 0;
#X obj 225 390 + 0;
#X obj 306 390 + 0;
#X obj 385 388 + 0;
#X obj 465 387 + 0;
#X obj 552 389 + 0;
#X obj 638 386 + 0;
#X obj 720 386 + 0;
#X obj 801 386 + 0;
#X obj 880 384 + 0;
#X obj 960 383 + 0;
#X obj 16 433 Orgel;
#X obj 344 428 Orgel;
#X obj 57 434 Orgel;
#X obj 143 431 Orgel;
#X obj 102 430 Orgel;
#X obj 225 431 Orgel;
#X obj 184 430 Orgel;
#X obj 306 431 Orgel;
#X obj 265 430 Orgel;
#X obj 385 429 Orgel;
#X obj 465 428 Orgel;
#X obj 424 427 Orgel;
#X obj 511 429 Orgel;
#X obj 552 430 Orgel;
#X obj 638 427 Orgel;
#X obj 597 426 Orgel;
#X obj 720 427 Orgel;
#X obj 679 426 Orgel;
#X obj 801 427 Orgel;
#X obj 760 426 Orgel;
#X obj 880 425 Orgel;
#X obj 839 424 Orgel;
#X obj 919 423 Orgel;
#X connect 0 0 154 0;
#X connect 1 0 156 0;
#X connect 3 0 57 0;
#X connect 4 0 3 0;
#X connect 5 0 4 0;
#X connect 6 0 3 0;
#X connect 7 0 8 0;
#X connect 8 0 9 0;
#X connect 8 0 10 0;
#X connect 11 0 12 0;
#X connect 12 0 3 0;
#X connect 13 0 142 0;
#X connect 14 1 15 0;
#X connect 15 0 46 0;
#X connect 16 0 158 0;
#X connect 17 0 157 0;
#X connect 18 0 19 0;
#X connect 19 0 3 0;
#X connect 20 0 143 0;
#X connect 21 0 11 0;
#X connect 22 0 11 1;
#X connect 23 0 18 0;
#X connect 24 0 18 1;
#X connect 25 0 160 0;
#X connect 26 0 159 0;
#X connect 27 0 28 0;
#X connect 28 0 3 0;
#X connect 29 0 144 0;
#X connect 30 0 27 0;
#X connect 31 0 27 1;
#X connect 32 0 162 0;
#X connect 33 0 161 0;
#X connect 34 0 35 0;
#X connect 35 0 3 0;
#X connect 36 0 145 0;
#X connect 37 0 34 0;
#X connect 38 0 34 1;
#X connect 39 0 155 0;
#X connect 40 0 163 0;
#X connect 41 0 42 0;
#X connect 42 0 3 0;
#X connect 43 0 146 0;
#X connect 44 0 41 0;
#X connect 45 0 41 1;
#X connect 47 0 165 0;
#X connect 48 0 164 0;
#X connect 49 0 50 0;
#X connect 50 0 3 0;
#X connect 51 0 147 0;
#X connect 52 0 49 0;
#X connect 53 0 49 1;
#X connect 54 0 56 0;
#X connect 55 0 54 0;
#X connect 55 0 139 0;
#X connect 57 0 2 0;
#X connect 57 0 2 1;
#X connect 59 0 65 0;
#X connect 60 0 67 0;
#X connect 61 0 66 0;
#X connect 62 0 68 0;
#X connect 63 0 69 0;
#X connect 64 0 13 0;
#X connect 65 0 20 0;
#X connect 66 0 36 0;
#X connect 67 0 29 0;
#X connect 68 0 43 0;
#X connect 69 0 51 0;
#X connect 71 0 58 0;
#X connect 71 1 59 0;
#X connect 71 2 60 0;
#X connect 71 3 61 0;
#X connect 71 4 62 0;
#X connect 71 5 63 0;
#X connect 71 6 78 0;
#X connect 71 7 79 0;
#X connect 71 8 80 0;
#X connect 71 9 81 0;
#X connect 71 10 82 0;
#X connect 71 11 83 0;
#X connect 72 0 73 0;
#X connect 73 0 70 0;
#X connect 73 1 70 1;
#X connect 73 2 70 2;
#X connect 74 0 75 0;
#X connect 75 0 132 0;
#X connect 75 0 138 0;
#X connect 75 0 140 0;
#X connect 76 0 74 0;
#X connect 77 0 71 0;
#X connect 78 0 126 0;
#X connect 79 0 127 0;
#X connect 80 0 129 0;
#X connect 81 0 128 0;
#X connect 82 0 130 0;
#X connect 83 0 131 0;
#X connect 84 0 166 0;
#X connect 85 0 167 0;
#X connect 86 0 87 0;
#X connect 87 0 3 0;
#X connect 88 0 148 0;
#X connect 89 0 169 0;
#X connect 90 0 168 0;
#X connect 91 0 92 0;
#X connect 92 0 3 0;
#X connect 93 0 149 0;
#X connect 94 0 86 0;
#X connect 95 0 86 1;
#X connect 96 0 91 0;
#X connect 97 0 91 1;
#X connect 98 0 171 0;
#X connect 99 0 170 0;
#X connect 100 0 101 0;
#X connect 101 0 3 0;
#X connect 102 0 150 0;
#X connect 103 0 100 0;
#X connect 104 0 100 1;
#X connect 105 0 173 0;
#X connect 106 0 172 0;
#X connect 107 0 108 0;
#X connect 108 0 3 0;
#X connect 109 0 151 0;
#X connect 110 0 107 0;
#X connect 111 0 107 1;
#X connect 112 0 175 0;
#X connect 113 0 174 0;
#X connect 114 0 115 0;
#X connect 115 0 3 0;
#X connect 116 0 152 0;
#X connect 117 0 114 0;
#X connect 118 0 114 1;
#X connect 119 0 176 0;
#X connect 120 0 141 0;
#X connect 121 0 122 0;
#X connect 122 0 3 0;
#X connect 123 0 153 0;
#X connect 124 0 121 0;
#X connect 125 0 121 1;
#X connect 126 0 88 0;
#X connect 127 0 93 0;
#X connect 128 0 109 0;
#X connect 129 0 102 0;
#X connect 130 0 116 0;
#X connect 131 0 123 0;
#X connect 132 0 77 0;
#X connect 133 0 135 0;
#X connect 135 0 134 0;
#X connect 135 0 134 1;
#X connect 136 0 133 0;
#X connect 137 0 133 0;
#X connect 139 0 72 0;
#X connect 141 0 125 0;
#X connect 142 0 1 0;
#X connect 143 0 17 0;
#X connect 144 0 26 0;
#X connect 145 0 33 0;
#X connect 146 0 40 0;
#X connect 147 0 48 0;
#X connect 148 0 85 0;
#X connect 149 0 90 0;
#X connect 150 0 99 0;
#X connect 151 0 106 0;
#X connect 152 0 113 0;
#X connect 153 0 120 0;
#X connect 154 0 21 0;
#X connect 155 0 44 0;
#X connect 156 0 22 0;
#X connect 157 0 24 0;
#X connect 158 0 23 0;
#X connect 159 0 31 0;
#X connect 160 0 30 0;
#X connect 161 0 38 0;
#X connect 162 0 37 0;
#X connect 163 0 45 0;
#X connect 164 0 53 0;
#X connect 165 0 52 0;
#X connect 166 0 94 0;
#X connect 167 0 95 0;
#X connect 168 0 97 0;
#X connect 169 0 96 0;
#X connect 170 0 104 0;
#X connect 171 0 103 0;
#X connect 172 0 111 0;
#X connect 173 0 110 0;
#X connect 174 0 118 0;
#X connect 175 0 117 0;
#X connect 176 0 124 0;
