#N canvas 262 325 258 270 10;
#X obj 36 18 inlet;
#X obj 36 191 *~;
#X obj 36 41 t f b;
#X obj 36 98 mtof;
#X obj 36 221 outlet~;
#X obj 90 163 line~;
#X obj 90 69 bng 15 250 50 0 empty empty empty 17 7 0 10 -262144 -1
-1;
#X obj 136 100 del 100;
#X obj 36 65 + 0;
#X msg 136 120 0 200;
#X msg 90 101 1 10;
#X obj 36 120 phasor~;
#X connect 0 0 2 0;
#X connect 1 0 4 0;
#X connect 2 0 8 0;
#X connect 2 1 6 0;
#X connect 3 0 11 0;
#X connect 5 0 1 1;
#X connect 6 0 10 0;
#X connect 6 0 7 0;
#X connect 7 0 9 0;
#X connect 8 0 3 0;
#X connect 9 0 5 0;
#X connect 10 0 5 0;
#X connect 11 0 1 0;
