#N canvas 584 359 450 300 10;
#X obj 131 112 oscparse;
#X obj 131 138 route list;
#X floatatom 131 219 5 0 0 0 - - -, f 5;
#X obj 166 216 outlet;
#X obj 131 85 netreceive -u -b \$1;
#X obj 131 184 route \$2;
#X connect 0 0 1 0;
#X connect 1 0 5 0;
#X connect 4 0 0 0;
#X connect 5 0 2 0;
#X connect 5 0 3 0;
