#N canvas 0 29 770 606 10;
#X obj 63 126 freeverb~;
#X obj 76 74 r StartReset;
#X msg 135 126 wet \$1 \, roomsize \$1;
#X obj 175 151 lop~ 16000;
#X obj 41 21 inlet~;
#X obj 167 271 dac~;
#X obj 178 179 hip~ 5;
#X msg 76 95 wet 1 \, roomsize 0.8 \, dry 0;
#X connect 0 0 3 0;
#X connect 1 0 7 0;
#X connect 2 0 0 0;
#X connect 3 0 6 0;
#X connect 4 0 0 0;
#X connect 6 0 5 1;
#X connect 6 0 5 0;
#X connect 7 0 0 0;
