#N canvas 29 184 1184 530 10;
#X obj 173 493 outlet~;
#X obj 173 470 *~;
#X obj 252 433 m_crossfade;
#X obj 252 412 r cross1;
#X obj 313 412 r cross0;
#X obj 119 38 inlet;
#X obj 119 343 *~;
#X obj 149 319 line~;
#X obj 149 158 bng 15 250 50 0 empty empty empty 17 7 0 10 -262144
-1 -1;
#X obj 119 135 t f b;
#X obj 119 157 mtof;
#X obj 135 394 +~;
#X obj 135 415 +~;
#X obj 238 345 *~;
#X obj 268 321 line~;
#X obj 268 206 bng 15 250 50 0 empty empty empty 17 7 0 10 -262144
-1 -1;
#X obj 238 117 t f b;
#X obj 238 139 mtof;
#X msg 268 229 1 1;
#X msg 182 247 0 150;
#X obj 350 343 *~;
#X obj 380 319 line~;
#X obj 380 204 bng 15 250 50 0 empty empty empty 17 7 0 10 -262144
-1 -1;
#X obj 350 203 osc~;
#X msg 380 227 1 1;
#X obj 238 367 +~;
#X obj 466 341 *~;
#X obj 496 317 line~;
#X obj 496 202 bng 15 250 50 0 empty empty empty 17 7 0 10 -262144
-1 -1;
#X obj 466 113 t f b;
#X obj 466 135 mtof;
#X msg 496 225 1 1;
#X obj 578 339 *~;
#X obj 608 315 line~;
#X obj 608 200 bng 15 250 50 0 empty empty empty 17 7 0 10 -262144
-1 -1;
#X obj 578 199 osc~;
#X msg 608 223 1 1;
#X obj 466 363 +~;
#X obj 579 177 + 3;
#X obj 641 222 del 2;
#X obj 529 224 del 2;
#X obj 351 181 + 1;
#X obj 135 450 /~ 12;
#X obj 238 90 + 12;
#X msg 529 245 0 750;
#X msg 641 243 0 750;
#X msg 301 249 0 100;
#X msg 413 247 0 100;
#X obj 466 86 - 36;
#X obj 119 108 - 12;
#X obj 119 179 osc~;
#X msg 149 227 1 1;
#X obj 182 226 del 2;
#X obj 301 228 del 5;
#X obj 413 226 del 5;
#X obj 466 201 osc~;
#X obj 238 205 phasor~;
#X connect 1 0 0 0;
#X connect 2 0 1 1;
#X connect 3 0 2 0;
#X connect 4 0 2 1;
#X connect 5 0 43 0;
#X connect 5 0 48 0;
#X connect 5 0 49 0;
#X connect 6 0 11 0;
#X connect 7 0 6 1;
#X connect 8 0 51 0;
#X connect 8 0 52 0;
#X connect 9 0 10 0;
#X connect 9 1 8 0;
#X connect 10 0 50 0;
#X connect 11 0 12 0;
#X connect 12 0 42 0;
#X connect 13 0 25 0;
#X connect 14 0 13 1;
#X connect 15 0 18 0;
#X connect 15 0 53 0;
#X connect 16 0 17 0;
#X connect 16 1 15 0;
#X connect 16 1 22 0;
#X connect 17 0 41 0;
#X connect 17 0 56 0;
#X connect 18 0 14 0;
#X connect 19 0 7 0;
#X connect 20 0 25 1;
#X connect 21 0 20 1;
#X connect 22 0 24 0;
#X connect 22 0 54 0;
#X connect 23 0 20 0;
#X connect 24 0 21 0;
#X connect 25 0 11 1;
#X connect 26 0 37 0;
#X connect 27 0 26 1;
#X connect 28 0 31 0;
#X connect 28 0 40 0;
#X connect 29 0 30 0;
#X connect 29 1 28 0;
#X connect 29 1 34 0;
#X connect 30 0 38 0;
#X connect 30 0 55 0;
#X connect 31 0 27 0;
#X connect 32 0 37 1;
#X connect 33 0 32 1;
#X connect 34 0 36 0;
#X connect 34 0 39 0;
#X connect 35 0 32 0;
#X connect 36 0 33 0;
#X connect 37 0 12 1;
#X connect 38 0 35 0;
#X connect 39 0 45 0;
#X connect 40 0 44 0;
#X connect 41 0 23 0;
#X connect 42 0 1 0;
#X connect 43 0 16 0;
#X connect 44 0 27 0;
#X connect 45 0 33 0;
#X connect 46 0 14 0;
#X connect 47 0 21 0;
#X connect 48 0 29 0;
#X connect 49 0 9 0;
#X connect 50 0 6 0;
#X connect 51 0 7 0;
#X connect 52 0 19 0;
#X connect 53 0 46 0;
#X connect 54 0 47 0;
#X connect 55 0 26 0;
#X connect 56 0 13 0;
