#N canvas 590 37 450 300 16;
#X obj 35 52 inlet~;
#X obj 35 102 phasor~;
#X obj 35 146 *~ 2;
#X obj 35 178 expr~ if($v1 < 1 \, $v1 \, -1*($v1 - 1) +1) \;;
#X obj 35 226 outlet~;
#X connect 0 0 1 0;
#X connect 1 0 2 0;
#X connect 2 0 3 0;
#X connect 3 0 4 0;
