#N canvas 0 23 734 741 10;
#X floatatom 79 359 5 0 0 0 - - -;
#X floatatom 120 360 5 0 0 0 - - -;
#X obj 590 597 dac~;
#X obj 487 531 freeverb~;
#X msg 500 501 wet 0.8 \, roomsize 0.8 \, dry 0.5;
#X obj 500 479 r StartReset;
#X msg 559 531 wet \$1 \, roomsize \$1;
#X obj 19 -40 loadbang;
#X obj 19 -13 del 500;
#X msg 19 14 \; pd dsp 1;
#X obj 19 61 s StartReset;
#X obj 79 426 +~;
#X obj 79 448 +~;
#X floatatom 83 314 5 0 0 0 - - -;
#X obj 431 42 keyname;
#X obj 470 80 unpack s;
#X floatatom 165 356 5 0 0 0 - - -;
#X floatatom 206 357 5 0 0 0 - - -;
#X obj 165 423 +~;
#X obj 165 445 +~;
#X floatatom 169 311 5 0 0 0 - - -;
#X obj 79 404 /~ 12;
#X obj 120 404 /~ 12;
#X obj 165 401 /~ 12;
#X obj 206 401 /~ 12;
#X floatatom 247 356 5 0 0 0 - - -;
#X floatatom 288 357 5 0 0 0 - - -;
#X obj 247 423 +~;
#X obj 247 445 +~;
#X floatatom 251 311 5 0 0 0 - - -;
#X obj 247 401 /~ 12;
#X obj 288 401 /~ 12;
#X floatatom 328 356 5 0 0 0 - - -;
#X floatatom 369 357 5 0 0 0 - - -;
#X obj 328 423 +~;
#X obj 327 443 +~;
#X floatatom 332 311 5 0 0 0 - - -;
#X obj 328 401 /~ 12;
#X obj 369 401 /~ 12;
#X floatatom 407 354 5 0 0 0 - - -;
#X floatatom 448 355 5 0 0 0 - - -;
#X obj 407 421 +~;
#X obj 407 443 +~;
#X floatatom 411 309 5 0 0 0 - - -;
#X obj 407 399 /~ 12;
#X obj 448 399 /~ 12;
#X obj 120 380 Orgel;
#X obj 206 377 Orgel;
#X obj 79 379 Orgel;
#X obj 165 376 Orgel;
#X obj 288 377 Orgel;
#X obj 247 376 Orgel;
#X obj 369 377 Orgel;
#X obj 328 376 Orgel;
#X obj 448 375 Orgel;
#X obj 407 374 Orgel;
#X obj 471 109 sel a s d f g h;
#X floatatom 487 353 5 0 0 0 - - -;
#X floatatom 528 354 5 0 0 0 - - -;
#X obj 487 420 +~;
#X obj 487 442 +~;
#X floatatom 491 308 5 0 0 0 - - -;
#X obj 487 398 /~ 12;
#X obj 528 398 /~ 12;
#X obj 528 374 Orgel;
#X obj 487 373 Orgel;
#X obj 283 43 metro 250;
#X obj 289 -23 tgl 30 0 empty empty empty 17 7 0 10 -262144 -1 -1 0
1;
#X obj 282 69 random 12;
#X obj 120 339 + 24;
#X obj 206 336 + 24;
#X obj 288 336 + 24;
#X obj 369 336 + 24;
#X obj 448 334 + 24;
#X obj 528 333 + 24;
#X obj 599 556 lop~ 16000;
#X msg 177 214 0;
#X msg 229 214 1;
#X msg 277 214 2;
#X msg 327 214 3;
#X msg 377 214 4;
#X msg 427 214 5;
#X obj 157 244 tabread onkai_1;
#X obj 169 263 tabread onkai_1;
#X obj 287 263 tabread onkai_1;
#X obj 272 243 tabread onkai_1;
#X obj 377 243 tabread onkai_1;
#X obj 399 263 tabread onkai_1;
#X obj 344 123 onkai1;
#X obj 283 174 sel 0 1 2 3 4 5 6 7 8 9 10 11;
#X obj 345 69 random 3;
#X obj 345 93 sel 0 1 2;
#X obj 345 42 metro 10000;
#X connect 0 0 48 0;
#X connect 1 0 46 0;
#X connect 3 0 75 0;
#X connect 4 0 3 0;
#X connect 5 0 4 0;
#X connect 6 0 3 0;
#X connect 7 0 8 0;
#X connect 8 0 9 0;
#X connect 8 0 10 0;
#X connect 11 0 12 0;
#X connect 12 0 3 0;
#X connect 13 0 0 0;
#X connect 13 0 69 0;
#X connect 14 1 15 0;
#X connect 15 0 56 0;
#X connect 16 0 49 0;
#X connect 17 0 47 0;
#X connect 18 0 19 0;
#X connect 19 0 3 0;
#X connect 20 0 16 0;
#X connect 20 0 70 0;
#X connect 21 0 11 0;
#X connect 22 0 11 1;
#X connect 23 0 18 0;
#X connect 24 0 18 1;
#X connect 25 0 51 0;
#X connect 26 0 50 0;
#X connect 27 0 28 0;
#X connect 28 0 3 0;
#X connect 29 0 25 0;
#X connect 29 0 71 0;
#X connect 30 0 27 0;
#X connect 31 0 27 1;
#X connect 32 0 53 0;
#X connect 33 0 52 0;
#X connect 34 0 35 0;
#X connect 35 0 3 0;
#X connect 36 0 32 0;
#X connect 36 0 72 0;
#X connect 37 0 34 0;
#X connect 38 0 34 1;
#X connect 39 0 55 0;
#X connect 40 0 54 0;
#X connect 41 0 42 0;
#X connect 42 0 3 0;
#X connect 43 0 39 0;
#X connect 43 0 73 0;
#X connect 44 0 41 0;
#X connect 45 0 41 1;
#X connect 46 0 22 0;
#X connect 47 0 24 0;
#X connect 48 0 21 0;
#X connect 49 0 23 0;
#X connect 50 0 31 0;
#X connect 51 0 30 0;
#X connect 52 0 38 0;
#X connect 53 0 37 0;
#X connect 54 0 45 0;
#X connect 55 0 44 0;
#X connect 57 0 65 0;
#X connect 58 0 64 0;
#X connect 59 0 60 0;
#X connect 60 0 3 0;
#X connect 61 0 57 0;
#X connect 61 0 74 0;
#X connect 62 0 59 0;
#X connect 63 0 59 1;
#X connect 64 0 63 0;
#X connect 65 0 62 0;
#X connect 66 0 68 0;
#X connect 67 0 66 0;
#X connect 67 0 92 0;
#X connect 68 0 89 0;
#X connect 69 0 1 0;
#X connect 70 0 17 0;
#X connect 71 0 26 0;
#X connect 72 0 33 0;
#X connect 73 0 40 0;
#X connect 74 0 58 0;
#X connect 75 0 2 0;
#X connect 75 0 2 1;
#X connect 76 0 82 0;
#X connect 77 0 83 0;
#X connect 78 0 85 0;
#X connect 79 0 84 0;
#X connect 80 0 86 0;
#X connect 81 0 87 0;
#X connect 82 0 13 0;
#X connect 83 0 20 0;
#X connect 84 0 36 0;
#X connect 85 0 29 0;
#X connect 86 0 43 0;
#X connect 87 0 61 0;
#X connect 89 0 76 0;
#X connect 89 1 77 0;
#X connect 89 2 78 0;
#X connect 89 3 79 0;
#X connect 89 4 80 0;
#X connect 89 5 81 0;
#X connect 90 0 91 0;
#X connect 91 1 88 1;
#X connect 91 2 88 2;
#X connect 92 0 90 0;
