#N canvas 11 32 800 513 12;
#X obj 15 21 netreceive 10001 1;
#X floatatom 82 93 5 0 0 0 - - -;
#X symbolatom 15 93 8 0 0 0 - - -;
#X obj 14 371 dac~;
#X obj 655 48 loadbang;
#X obj 655 75 del 500;
#X msg 655 102 \; pd dsp 1;
#X floatatom 230 70 5 0 0 0 - - -;
#X obj 155 45 unpack s f;
#X symbolatom 155 70 10 0 0 0 - - -;
#X obj 155 21 netreceive 10002 1;
#X obj 12 318 freeverb~;
#X msg 25 288 wet 0.8 \, roomsize 0.8 \, dry 0.5;
#X obj 655 149 s StartReset;
#X obj 666 202 r StartReset;
#X obj 25 266 r StartReset;
#X obj 82 161 Orgel;
#X obj 82 69 int;
#X obj 15 440 LED;
#X obj 15 423 bng 15 250 50 0 empty empty empty 17 7 0 10 -262144 -1
-1;
#X obj 694 226 loadbang;
#X msg 694 253 close;
#X msg 636 253 open 0;
#X obj 636 326 comport 0 9600;
#X obj 545 253 r SerialData;
#X obj 15 462 s SerialData;
#X obj 662 371 key;
#X obj 662 393 sel 97;
#X obj 15 45 unpack s f;
#X floatatom 370 70 5 0 0 0 - - -;
#X obj 295 45 unpack s f;
#X symbolatom 295 70 10 0 0 0 - - -;
#X obj 92 127 s LEDbang;
#X obj 15 394 r LEDbang;
#X obj 662 423 s LEDbang;
#N canvas 220 96 800 513 (subpatch) 0;
#X obj 7 4 bng 15 250 50 0 empty empty empty 17 7 0 10 -262144 -1 -1
;
#X obj 7 53 pack 255 254 200;
#X obj 179 23 pack 255 254 100;
#X obj 129 4 bng 15 250 50 0 empty empty empty 17 7 0 10 -262144 -1
-1;
#X obj 7 -90 sel 1;
#X obj 179 64 s SerialData;
#X obj 129 -101 r StartReset;
#X text 4 21 ShutDown;
#X text 124 21 Cancel;
#X obj 6 -114 inlet;
#X obj 7 -57 del 1200;
#X obj 24 -28 s LEDbang;
#X connect 0 0 1 0;
#X connect 1 0 5 0;
#X connect 2 0 5 0;
#X connect 3 0 2 0;
#X connect 4 0 10 0;
#X connect 4 0 11 0;
#X connect 4 1 3 0;
#X connect 6 0 3 0;
#X connect 9 0 4 0;
#X connect 10 0 0 0;
#X coords 0 1 100 -1 180 40 1 0 0;
#X restore 370 100 graph;
#X obj 12 211 +~;
#X floatatom 179 157 5 0 0 0 - - -;
#X obj 221 158 s LEDbang;
#X obj 86 394 r StartReset;
#X floatatom 374 205 5 0 0 0 - - -;
#X obj 299 180 unpack s f;
#X symbolatom 299 205 10 0 0 0 - - -;
#X obj 299 156 netreceive 3000 1;
#X obj 295 21 netreceive 10003 1;
#X obj 179 182 Orgel_auto_osc;
#X obj 365 334 random 100;
#X obj 365 357 / 100;
#X floatatom 365 381 5 0 0 0 - - -;
#X obj 365 427 line;
#X obj 374 229 moses 1;
#X obj 374 253 s Bang1;
#X obj 179 134 r Bang1;
#X obj 365 316 bng 15 250 50 0 empty empty empty 17 7 0 10 -262144
-1 -1;
#X msg 365 403 \$1 100;
#X text 14 3 IP : 192.168.13.4;
#X msg 84 318 wet \$1 \, roomsize \$1;
#X obj 604 423 s Bang1;
#X obj 12 242 /~ 12;
#X obj 124 343 lop~ 16000;
#X connect 0 0 28 0;
#X connect 1 0 16 0;
#X connect 1 0 32 0;
#X connect 4 0 5 0;
#X connect 5 0 6 0;
#X connect 5 0 13 0;
#X connect 7 0 16 0;
#X connect 7 0 32 0;
#X connect 8 0 9 0;
#X connect 8 1 7 0;
#X connect 10 0 8 0;
#X connect 11 0 59 0;
#X connect 12 0 11 0;
#X connect 14 0 22 0;
#X connect 15 0 12 0;
#X connect 16 0 36 0;
#X connect 17 0 1 0;
#X connect 18 0 25 0;
#X connect 19 0 18 0;
#X connect 20 0 21 0;
#X connect 21 0 23 0;
#X connect 22 0 23 0;
#X connect 24 0 23 0;
#X connect 26 0 27 0;
#X connect 27 0 34 0;
#X connect 27 0 57 0;
#X connect 28 0 2 0;
#X connect 28 1 17 0;
#X connect 29 0 35 0;
#X connect 30 0 31 0;
#X connect 30 1 29 0;
#X connect 33 0 19 0;
#X connect 36 0 58 0;
#X connect 37 0 38 0;
#X connect 37 0 45 0;
#X connect 39 0 19 0;
#X connect 40 0 50 0;
#X connect 41 0 42 0;
#X connect 41 1 40 0;
#X connect 43 0 41 0;
#X connect 44 0 30 0;
#X connect 45 0 36 1;
#X connect 46 0 47 0;
#X connect 47 0 48 0;
#X connect 48 0 54 0;
#X connect 50 1 51 0;
#X connect 50 1 53 0;
#X connect 52 0 37 0;
#X connect 53 0 46 0;
#X connect 54 0 49 0;
#X connect 56 0 11 0;
#X connect 58 0 11 0;
#X connect 59 0 3 0;
#X connect 59 0 3 1;
