#N canvas 200 246 549 366 10;
#X obj 60 34 inlet;
#X obj 66 221 *~;
#X obj 96 197 line~;
#X obj 96 134 bng 15 250 50 0 empty empty empty 17 7 0 10 -262144 -1
-1;
#X obj 66 87 t f b;
#X obj 66 134 mtof;
#X obj 66 270 outlet~;
#X obj 250 249 *~;
#X obj 280 225 line~;
#X obj 280 162 bng 15 250 50 0 empty empty empty 17 7 0 10 -262144
-1 -1;
#X obj 250 116 t f b;
#X obj 250 162 mtof;
#X obj 145 256 +~;
#X obj 372 240 *~;
#X obj 402 216 line~;
#X obj 402 153 bng 15 250 50 0 empty empty empty 17 7 0 10 -262144
-1 -1;
#X obj 372 107 t f b;
#X obj 372 153 mtof;
#X obj 145 277 +~;
#X obj 201 300 /~ 3;
#X msg 281 203 1 1;
#X obj 372 177 osc~;
#X obj 250 186 osc~;
#X obj 66 158 osc~;
#X msg 96 175 1 1;
#X obj 316 177 del 2;
#X obj 159 87 r touch;
#X obj 317 13 r touch;
#X obj 306 36 / 10;
#X msg 402 194 1 1;
#X obj 438 168 del 5;
#X obj 168 148 del 1;
#X msg 438 194 0 1000;
#X msg 316 203 0 500;
#X msg 169 174 0 200;
#X obj 250 93 - 12;
#X obj 369 73 + 12;
#X connect 0 0 4 0;
#X connect 0 0 35 0;
#X connect 0 0 36 0;
#X connect 1 0 12 0;
#X connect 2 0 1 1;
#X connect 3 0 24 0;
#X connect 3 0 31 0;
#X connect 4 0 5 0;
#X connect 4 1 3 0;
#X connect 5 0 23 0;
#X connect 7 0 12 1;
#X connect 8 0 7 1;
#X connect 9 0 20 0;
#X connect 9 0 25 0;
#X connect 10 0 11 0;
#X connect 10 1 9 0;
#X connect 11 0 22 0;
#X connect 12 0 18 0;
#X connect 13 0 18 1;
#X connect 14 0 13 1;
#X connect 15 0 29 0;
#X connect 15 0 30 0;
#X connect 16 0 17 0;
#X connect 16 1 15 0;
#X connect 17 0 21 0;
#X connect 18 0 19 0;
#X connect 19 0 6 0;
#X connect 20 0 8 0;
#X connect 21 0 13 0;
#X connect 22 0 7 0;
#X connect 23 0 1 0;
#X connect 24 0 2 0;
#X connect 25 0 33 0;
#X connect 26 0 31 1;
#X connect 27 0 28 0;
#X connect 29 0 14 0;
#X connect 30 0 32 0;
#X connect 31 0 34 0;
#X connect 32 0 14 0;
#X connect 33 0 8 0;
#X connect 34 0 2 0;
#X connect 35 0 10 0;
#X connect 36 0 16 0;
