#N canvas 0 94 1184 530 10;
#X obj 183 473 outlet~;
#X obj 183 450 *~;
#X obj 244 420 m_crossfade;
#X obj 222 392 r cross0;
#X obj 289 392 r cross1;
#X obj 163 408 /~ 12;
#X obj 105 -6 inlet;
#X obj 105 299 *~;
#X obj 135 275 line~;
#X obj 135 114 bng 15 250 50 0 empty empty empty 17 7 0 10 -262144
-1 -1;
#X obj 105 91 t f b;
#X obj 105 113 mtof;
#X obj 121 350 +~;
#X obj 121 371 +~;
#X obj 105 135 osc~;
#X obj 224 301 *~;
#X obj 254 277 line~;
#X obj 254 162 bng 15 250 50 0 empty empty empty 17 7 0 10 -262144
-1 -1;
#X obj 224 73 t f b;
#X obj 224 95 mtof;
#X obj 224 161 osc~;
#X msg 254 185 1 1;
#X obj 336 299 *~;
#X obj 366 275 line~;
#X obj 366 160 bng 15 250 50 0 empty empty empty 17 7 0 10 -262144
-1 -1;
#X obj 336 159 osc~;
#X msg 366 183 1 1;
#X obj 224 323 +~;
#X obj 452 297 *~;
#X obj 482 273 line~;
#X obj 482 158 bng 15 250 50 0 empty empty empty 17 7 0 10 -262144
-1 -1;
#X obj 452 69 t f b;
#X obj 452 91 mtof;
#X obj 452 157 osc~;
#X msg 482 181 1 1;
#X obj 564 295 *~;
#X obj 594 271 line~;
#X obj 594 156 bng 15 250 50 0 empty empty empty 17 7 0 10 -262144
-1 -1;
#X obj 564 155 osc~;
#X msg 594 179 1 1;
#X obj 452 319 +~;
#X obj 627 178 del 2;
#X obj 515 180 del 2;
#X obj 565 133 + 300;
#X msg 399 203 0 50;
#X msg 627 199 0 50;
#X obj 337 137 + 200;
#X obj 399 182 del 5;
#X msg 135 183 1 1;
#X obj 168 182 del 2;
#X obj 224 46 + 24;
#X obj 287 184 del 5;
#X msg 515 201 0 100;
#X obj 105 64 - 48;
#X msg 287 205 0 100;
#X msg 168 203 0 60;
#X obj 452 42 + 12;
#X connect 1 0 0 0;
#X connect 2 0 1 1;
#X connect 3 0 2 0;
#X connect 4 0 2 1;
#X connect 5 0 1 0;
#X connect 6 0 50 0;
#X connect 6 0 53 0;
#X connect 6 0 56 0;
#X connect 7 0 12 0;
#X connect 8 0 7 1;
#X connect 9 0 48 0;
#X connect 9 0 49 0;
#X connect 10 0 11 0;
#X connect 10 1 9 0;
#X connect 11 0 14 0;
#X connect 12 0 13 0;
#X connect 13 0 5 0;
#X connect 14 0 7 0;
#X connect 15 0 27 0;
#X connect 16 0 15 1;
#X connect 17 0 21 0;
#X connect 17 0 51 0;
#X connect 18 0 19 0;
#X connect 18 1 17 0;
#X connect 19 0 20 0;
#X connect 19 0 46 0;
#X connect 20 0 15 0;
#X connect 21 0 16 0;
#X connect 22 0 27 1;
#X connect 23 0 22 1;
#X connect 24 0 26 0;
#X connect 24 0 47 0;
#X connect 25 0 22 0;
#X connect 26 0 23 0;
#X connect 27 0 12 1;
#X connect 28 0 40 0;
#X connect 29 0 28 1;
#X connect 30 0 34 0;
#X connect 30 0 42 0;
#X connect 31 0 32 0;
#X connect 31 1 30 0;
#X connect 32 0 33 0;
#X connect 32 0 43 0;
#X connect 33 0 28 0;
#X connect 34 0 29 0;
#X connect 35 0 40 1;
#X connect 36 0 35 1;
#X connect 37 0 39 0;
#X connect 37 0 41 0;
#X connect 38 0 35 0;
#X connect 39 0 36 0;
#X connect 40 0 13 1;
#X connect 41 0 45 0;
#X connect 42 0 52 0;
#X connect 43 0 38 0;
#X connect 44 0 23 0;
#X connect 45 0 36 0;
#X connect 46 0 25 0;
#X connect 47 0 44 0;
#X connect 48 0 8 0;
#X connect 49 0 55 0;
#X connect 50 0 18 0;
#X connect 51 0 54 0;
#X connect 52 0 29 0;
#X connect 53 0 10 0;
#X connect 54 0 16 0;
#X connect 55 0 8 0;
#X connect 56 0 31 0;
