#N canvas 10 23 1184 530 10;
#X declare -stdpath extra/list-abs -stdpath extra/moocow -stdpath extra/zexy
;
#X declare -stdpath extra/mrpeach;
#X obj 19 -20 loadbang;
#X obj 19 7 del 500;
#X msg 19 34 \; pd dsp 1;
#X obj 19 81 s StartReset;
#X obj 19 150 hsl 64 15 1 48 0 0 empty empty empty -2 -8 0 10 -257985
-1 -1 670 1;
#X floatatom 16 169 5 0 0 0 - - -;
#X obj 16 108 r StartReset;
#X obj 99 150 hsl 64 15 1 48 0 0 empty empty empty -2 -8 0 10 -4032
-1 -1 402 1;
#X floatatom 96 169 5 0 0 0 - - -;
#X obj 96 108 r StartReset;
#X obj 96 205 s volume_kuma;
#X obj 16 205 s volume_tenji;
#X obj 193 255 t a a;
#X obj 193 278 list;
#X obj 193 227 csv_file;
#X msg 193 206 read data/tenji.txt;
#X msg 250 227 rewind;
#X obj 193 136 tgl 15 0 empty empty empty 17 7 0 10 -262144 -1 -1 0
1;
#X obj 193 305 packel 1 2 3 4;
#X floatatom 193 337 5 0 0 0 - - -;
#X obj 193 373 m_send;
#X floatatom 232 337 5 0 0 0 - - -;
#X floatatom 277 337 5 0 0 0 - - -;
#X floatatom 319 336 5 0 0 0 - - -;
#X obj 193 183 r StartReset;
#X obj 276 133 bng 15 250 50 0 empty empty empty 17 7 0 10 -262144
-1 -1;
#X obj 240 373 m_send;
#X obj 285 373 m_send;
#X obj 327 372 m_send;
#X obj 88 -14 m_key;
#X obj 193 160 metro 1000;
#X obj 99 270 hsl 64 15 1 48 0 0 empty empty empty -2 -8 0 10 -4032
-1 -1 3083 1;
#X floatatom 96 289 5 0 0 0 - - -;
#X obj 96 228 r StartReset;
#X obj 96 325 s offset_kuma;
#X obj 19 270 hsl 64 15 1 48 0 0 empty empty empty -2 -8 0 10 -4032
-1 -1 1474 1;
#X floatatom 16 289 5 0 0 0 - - -;
#X obj 16 228 r StartReset;
#X obj 16 325 s offset_tenji;
#X msg 96 129 4;
#X msg 96 249 24;
#X obj 88 6 m_receiveOSC;
#X obj 338 4 udpreceive 3001;
#X obj 338 29 unpackOSC;
#X obj 338 54 routeOSC /bang;
#X obj 338 79 unpack i;
#X obj 338 104 sel 1;
#X obj 424 329 sendOSC;
#X obj 424 279 r StartReset;
#X msg 507 255 0;
#X msg 537 255 1;
#X msg 507 278 send /sound \$1;
#X obj 636 -52 line;
#X floatatom 636 -2 5 0 0 0 - - -;
#X obj 636 -31 int;
#X obj 636 -100 r DELAY_SEND;
#X obj 636 22 sel 0;
#X obj 672 103 t b f;
#X obj 636 126 f;
#X obj 684 127 + 1;
#X obj 684 149 moses 0;
#X floatatom 684 190 5 0 0 0 - - -;
#X msg 704 72 1;
#X msg 672 73 -1;
#X msg 636 -78 127 \, 0 20000;
#X floatatom 684 229 5 0 0 0 - - -;
#X msg 636 43 21;
#X obj 672 22 s DELAY_FOR_AUTO;
#X obj 678 251 s PipeVal;
#X obj 684 169 moses 21;
#X obj 684 209 * 100;
#X obj 672 50 r DELAY_SEND;
#X obj 291 -99 r DELAY_FOR_AUTO;
#X floatatom 291 -78 5 0 0 0 - - -;
#X obj 291 -35 s Toggle2;
#X obj 291 -55 == 0;
#X obj 121 -88 tgl 15 0 empty empty empty 17 7 0 10 -262144 -1 -1 1
1;
#X obj 121 -110 r StartReset;
#X obj 121 -68 metro 1000;
#X obj 206 29 tgl 15 0 empty empty empty 17 7 0 10 -262144 -1 -1 0
1;
#X obj 205 48 sel 0;
#X obj 206 9 onebang 1;
#X obj 206 -34 sel 0;
#X obj 206 -11 bng 15 250 50 0 empty empty empty 17 7 0 10 -262144
-1 -1;
#X obj 241 -11 bng 15 250 50 0 empty empty empty 17 7 0 10 -262144
-1 -1;
#X floatatom 221 -78 5 0 0 0 - - -;
#X obj 221 -99 r Toggle2;
#X obj 206 -53 *;
#X msg 191 -78 100;
#X obj 265 71 s Onkai2;
#X obj 205 71 s Onkai1;
#X obj 491 204 r Onkai1;
#X obj 547 204 r Onkai2;
#X msg 424 304 connect localhost 4000;
#X obj 538 231 bng 15 250 50 0 empty empty empty 17 7 0 10 -262144
-1 -1;
#X obj 500 231 bng 15 250 50 0 empty empty empty 17 7 0 10 -262144
-1 -1;
#X obj 17 375 m_kuma_sounds;
#X obj 17 355 m_tenji_sounds;
#X msg 16 249 12;
#X msg 16 129 6;
#X connect 0 0 1 0;
#X connect 1 0 2 0;
#X connect 1 0 3 0;
#X connect 4 0 5 0;
#X connect 5 0 11 0;
#X connect 6 0 99 0;
#X connect 7 0 8 0;
#X connect 8 0 10 0;
#X connect 9 0 39 0;
#X connect 12 0 13 0;
#X connect 13 0 18 0;
#X connect 14 0 12 0;
#X connect 14 2 16 0;
#X connect 15 0 14 0;
#X connect 16 0 14 0;
#X connect 17 0 30 0;
#X connect 18 0 19 0;
#X connect 18 1 21 0;
#X connect 18 2 22 0;
#X connect 18 3 23 0;
#X connect 19 0 20 0;
#X connect 21 0 26 0;
#X connect 22 0 27 0;
#X connect 23 0 28 0;
#X connect 24 0 15 0;
#X connect 24 0 16 0;
#X connect 25 0 14 0;
#X connect 30 0 14 0;
#X connect 31 0 32 0;
#X connect 32 0 34 0;
#X connect 33 0 40 0;
#X connect 35 0 36 0;
#X connect 36 0 38 0;
#X connect 37 0 98 0;
#X connect 39 0 7 0;
#X connect 40 0 31 0;
#X connect 42 0 43 0;
#X connect 43 0 44 0;
#X connect 44 0 45 0;
#X connect 45 0 46 0;
#X connect 46 0 25 0;
#X connect 48 0 93 0;
#X connect 49 0 51 0;
#X connect 50 0 51 0;
#X connect 51 0 47 0;
#X connect 52 0 54 0;
#X connect 53 0 56 0;
#X connect 53 0 67 0;
#X connect 54 0 53 0;
#X connect 55 0 64 0;
#X connect 56 0 66 0;
#X connect 57 0 58 0;
#X connect 57 1 59 1;
#X connect 58 0 59 0;
#X connect 59 0 60 0;
#X connect 60 1 69 0;
#X connect 61 0 70 0;
#X connect 62 0 57 0;
#X connect 63 0 57 0;
#X connect 64 0 52 0;
#X connect 65 0 68 0;
#X connect 66 0 58 0;
#X connect 69 0 58 1;
#X connect 69 0 61 0;
#X connect 70 0 65 0;
#X connect 71 0 63 0;
#X connect 72 0 73 0;
#X connect 73 0 75 0;
#X connect 75 0 74 0;
#X connect 76 0 78 0;
#X connect 77 0 76 0;
#X connect 78 0 88 0;
#X connect 79 0 80 0;
#X connect 80 0 90 0;
#X connect 80 1 89 0;
#X connect 81 0 79 0;
#X connect 82 0 84 0;
#X connect 82 1 83 0;
#X connect 83 0 81 0;
#X connect 84 0 81 1;
#X connect 85 0 87 1;
#X connect 86 0 85 0;
#X connect 87 0 82 0;
#X connect 88 0 87 0;
#X connect 91 0 95 0;
#X connect 92 0 94 0;
#X connect 93 0 47 0;
#X connect 94 0 50 0;
#X connect 95 0 49 0;
#X connect 98 0 35 0;
#X connect 99 0 4 0;
