#N canvas 68 127 659 256 10;
#X obj 305 58 keyname;
#X obj 306 83 unpack s;
#X obj 277 128 s k0;
#X obj 308 128 s k1;
#X obj 339 128 s k2;
#X obj 370 128 s k3;
#X obj 401 128 s k4;
#X obj 432 128 s k5;
#X obj 287 158 s k6;
#X obj 318 158 s k7;
#X obj 349 158 s k8;
#X obj 380 158 s k9;
#X obj 411 158 s k10;
#X obj 442 158 s k11;
#X obj 306 103 sel q w e r t y u i o p [ ];
#X obj 194 104 sel v b n;
#X obj 148 186 onkai1;
#X obj 201 186 s o1;
#X obj 233 186 s o2;
#X obj 266 186 s o3;
#X obj 87 154 r o1;
#X obj 116 154 r o2;
#X obj 145 154 r o3;
#X obj 152 69 r StartReset;
#X connect 0 1 1 0;
#X connect 1 0 14 0;
#X connect 1 0 15 0;
#X connect 14 0 2 0;
#X connect 14 1 3 0;
#X connect 14 2 4 0;
#X connect 14 3 5 0;
#X connect 14 4 6 0;
#X connect 14 5 7 0;
#X connect 14 6 8 0;
#X connect 14 7 9 0;
#X connect 14 8 10 0;
#X connect 14 9 11 0;
#X connect 14 10 12 0;
#X connect 14 11 13 0;
#X connect 15 0 17 0;
#X connect 15 1 18 0;
#X connect 15 2 19 0;
#X connect 20 0 16 0;
#X connect 21 0 16 1;
#X connect 22 0 16 2;
#X connect 23 0 19 0;
