#N canvas 232 154 888 428 10;
#X obj 52 60 bng 15 250 50 0 empty empty empty 17 7 0 10 -262144 -1
-1;
#X obj 52 294 t f b;
#N canvas 0 22 450 300 (subpatch) 0;
#X array onkai_2 50 float 3;
#A 0 35 38 40 43 45 47 50 52 55 57 59 62 64 67 105 107 110 112 115
117 119 122 127 128 119 19 21 23 26 28 31 33 35 38 40 43 45 47 50 52
55 57 59 62 64 67 69 71 74 81;
#X coords 0 0 50 127 54 64 1 0 0;
#X restore 156 324 graph;
#X obj 52 82 t b b;
#X obj 195 58 bng 15 250 50 0 empty empty empty 17 7 0 10 -262144 -1
-1;
#X obj 195 80 t b b;
#X obj 451 60 bng 15 250 50 0 empty empty empty 17 7 0 10 -262144 -1
-1;
#X obj 451 82 t b b;
#X obj 52 23 inlet;
#X obj 195 21 inlet;
#X obj 451 23 inlet;
#X obj 62 319 counter 0 51;
#X obj 52 371 tabwrite onkai_2;
#X msg 451 261 2 \, 4 \, 7 \, 9 \, 11 \, 14 \, 16 \, 19 \, 21 \, 23
\, 26 \, 28 \, 31 \, 33 \, 35 \, 38 \, 40 \, 43 \, 45 \, 47 \, 50 \,
52 \, 55 \, 57 \, 59 \, 62 \, 64 \, 67 \, 69 \, 71 \, 74 \, 76 \, 79
\, 81 \, 83 \, 86 \, 88 \, 91 \, 93 \, 95 \, 98 \, 100 \, 103 \, 105
\, 107 \, 110 \, 112 \, 115 \, 117 \, 119 \, 122 \, 124 \, 127;
#X msg 570 76 40 \, 43 \, 45 \, 47 \, 50 \, 52 \, 55 \, 57 \, 59 \,
62 \, 64 \, 67 \,;
#X msg 555 129 69 \, 71 \, 74 \, 76 \, 79 \, 81 \, 83 \, 86 \, 88 \,
91 \, 93 \, 95 \, 98 \,;
#X msg 195 126 69 \, 71 \, 74 \, 76 \, 79 \, 81 \, 83 \, 86 \, 88 \,
91 \, 93 \, 95 \, 98 \,;
#X msg 451 181 100 \, 103 \, 105 \, 107 \, 110 \, 112 \, 115 \, 117
\, 119 \, 122 \, 124 \, 127;
#X msg 51 181 35 \, 38 \, 40 \, 43 \, 45 \, 47 \, 50 \, 52 \, 55 \,
57 \, 59 \, 62 \, 64 \, 67 \,;
#X connect 0 0 3 0;
#X connect 1 0 12 0;
#X connect 1 1 11 0;
#X connect 3 0 18 0;
#X connect 3 1 11 2;
#X connect 4 0 5 0;
#X connect 5 0 16 0;
#X connect 5 1 11 2;
#X connect 6 0 7 0;
#X connect 7 0 17 0;
#X connect 7 1 11 2;
#X connect 8 0 0 0;
#X connect 9 0 4 0;
#X connect 10 0 6 0;
#X connect 11 0 12 1;
#X connect 16 0 1 0;
#X connect 17 0 1 0;
#X connect 18 0 1 0;
