#N canvas 263 65 579 500 10;
#X obj 76 33 inlet;
#X obj 76 338 *~;
#X obj 106 314 line~;
#X obj 106 153 bng 15 250 50 0 empty empty empty 17 7 0 10 -262144
-1 -1;
#X obj 76 130 t f b;
#X obj 76 152 mtof;
#X obj 153 457 outlet~;
#X obj 153 387 +~;
#X obj 153 408 +~;
#X obj 153 432 /~ 3;
#X obj 76 174 osc~;
#X obj 196 338 *~;
#X obj 226 314 line~;
#X obj 226 153 bng 15 250 50 0 empty empty empty 17 7 0 10 -262144
-1 -1;
#X obj 196 130 t f b;
#X obj 196 152 mtof;
#X obj 196 174 osc~;
#X obj 426 338 *~;
#X obj 456 314 line~;
#X obj 456 153 bng 15 250 50 0 empty empty empty 17 7 0 10 -262144
-1 -1;
#X obj 426 130 t f b;
#X obj 426 152 mtof;
#X obj 426 174 osc~;
#X msg 106 222 1 3;
#X msg 259 242 0 250;
#X msg 139 242 0 150;
#X obj 139 221 del 6;
#X msg 489 242 0 500;
#X msg 456 222 1 4;
#X obj 489 221 del 50;
#X obj 196 103 + 36;
#X obj 76 103 + 12;
#X obj 425 104 - 24;
#X msg 226 222 1 10;
#X obj 259 221 del 20;
#X obj 303 312 line~;
#X obj 303 151 bng 15 250 50 0 empty empty empty 17 7 0 10 -262144
-1 -1;
#X msg 303 220 1 12;
#X obj 336 219 del 22;
#X msg 336 240 0 500;
#X connect 0 0 30 0;
#X connect 0 0 31 0;
#X connect 0 0 32 0;
#X connect 1 0 7 0;
#X connect 2 0 1 1;
#X connect 3 0 23 0;
#X connect 3 0 26 0;
#X connect 4 0 5 0;
#X connect 4 1 3 0;
#X connect 5 0 10 0;
#X connect 7 0 8 0;
#X connect 8 0 9 0;
#X connect 9 0 6 0;
#X connect 10 0 1 0;
#X connect 11 0 7 1;
#X connect 12 0 11 1;
#X connect 13 0 33 0;
#X connect 13 0 34 0;
#X connect 14 0 15 0;
#X connect 14 1 13 0;
#X connect 14 1 36 0;
#X connect 15 0 16 0;
#X connect 16 0 11 0;
#X connect 17 0 8 1;
#X connect 18 0 17 1;
#X connect 19 0 28 0;
#X connect 19 0 29 0;
#X connect 20 0 21 0;
#X connect 20 1 19 0;
#X connect 21 0 22 0;
#X connect 22 0 17 0;
#X connect 23 0 2 0;
#X connect 24 0 12 0;
#X connect 25 0 2 0;
#X connect 26 0 25 0;
#X connect 27 0 18 0;
#X connect 28 0 18 0;
#X connect 29 0 27 0;
#X connect 30 0 14 0;
#X connect 31 0 4 0;
#X connect 32 0 20 0;
#X connect 33 0 12 0;
#X connect 34 0 24 0;
#X connect 35 0 11 1;
#X connect 36 0 37 0;
#X connect 36 0 38 0;
#X connect 37 0 35 0;
#X connect 38 0 39 0;
#X connect 39 0 35 0;
